%
T1C.01969F095S3
X080354Y08248
X081693Y083228
X083031Y08248
X095354Y08622
X096535Y087362
X102402Y091378
X096575Y090945
X096575Y091969
X095748Y087717
X094961Y090433
X094488Y090354
X094094Y091024
X091378Y091142
X090945Y091299
X089961Y09126
X089252Y090827
X089055Y088031
X089055Y087638
X088937Y09122
X088898Y089606
X087126Y088031
X086732Y087795
X091378Y093346
X095394Y092598
T2C.035F197S55
X100394Y086614
X101394Y086614
X102394Y086614
X103394Y086614
X104394Y086614
X105394Y086614
X104394Y094614
X103394Y094614
X102394Y094614
X101394Y094614
T3C.03543F197S55
X079961Y084626
X079961Y083642
X083484Y079961
X084469Y079961
X085453Y079961
X096516Y08
X0975Y08
X098484Y08
X099469Y08
X100453Y08
X101437Y08
X102343Y083307
X102421Y08
X103327Y083307
X104311Y083307
X105295Y083307
X079961Y086594
X079961Y08561
X079961Y087579
X079961Y090177
X079961Y091161
X079961Y093563
X079961Y094547
X08998Y097205
X090965Y097205
X091949Y097205
X092933Y097205
T4C.04F139S55
X097425Y088425
X097425Y089425
X098425Y089425
X098425Y088425
X098425Y090425
X098189Y095866
X098189Y09689
X097425Y090425
X097189Y095866
X097189Y09689
X096189Y095866
X096189Y09689
X096189Y097913
X097189Y097913
X098189Y097913
T5C.044F139S55
X086551Y081764
X086551Y084764
X087551Y084764
X087551Y081764
X088551Y084764
X088551Y081764
X089551Y084764
X089551Y081764
X090551Y084764
X090551Y081764
X091551Y084764
X091551Y081764
X092551Y084764
X092551Y081764
X093551Y084764
X093551Y081764
X094551Y084764
X094551Y081764
X095551Y084764
X095551Y081764
M30
