*
*
G04 PADS 9.5 Build Number: 522968 generated Gerber (RS-274-X) file*
G04 PC Version=2.1*
*
%IN "MAIN.pcb"*%
*
%MOIN*%
*
%FSLAX35Y35*%
*
*
*
*
G04 PC Standard Apertures*
*
*
G04 Thermal Relief Aperture macro.*
%AMTER*
1,1,$1,0,0*
1,0,$1-$2,0,0*
21,0,$3,$4,0,0,45*
21,0,$3,$4,0,0,135*
%
*
*
G04 Annular Aperture macro.*
%AMANN*
1,1,$1,0,0*
1,0,$2,0,0*
%
*
*
G04 Odd Aperture macro.*
%AMODD*
1,1,$1,0,0*
1,0,$1-0.005,0,0*
%
*
*
G04 PC Custom Aperture Macros*
*
*
*
*
*
*
G04 PC Aperture Table*
*
%ADD010C,0.001*%
%ADD013C,0.01*%
%ADD059R,0.076X0.076*%
%ADD061C,0.09*%
%ADD062R,0.09X0.09*%
%ADD085C,0.06906*%
%ADD086R,0.07X0.07*%
%ADD087C,0.07*%
%ADD107R,0.06906X0.06906*%
%ADD111C,0.043*%
*
*
*
*
G04 PC Circuitry*
G04 Layer Name MAIN.pcb - circuitry*
%LPD*%
*
*
G04 PC Custom Flashes*
G04 Layer Name MAIN.pcb - flashes*
%LPD*%
*
*
G04 PC Circuitry*
G04 Layer Name MAIN.pcb - circuitry*
%LPD*%
*
G54D10*
G54D13*
G01X787402Y787402D02*
X1062992D01*
Y984252*
X787402*
Y787402*
G54D59*
X865512Y817638D03*
G54D61*
X974252Y884252D03*
Y894252D03*
Y904252D03*
G54D62*
X984252Y884252D03*
Y894252D03*
Y904252D03*
X981890Y958661D03*
X971890D03*
X961890D03*
X981890Y968898D03*
X971890D03*
X961890D03*
X981890Y979134D03*
X971890D03*
X961890D03*
G54D85*
X799606Y901772D03*
X844685Y799606D03*
X854528D03*
X919488Y972047D03*
X909646D03*
X899803D03*
X799606Y935630D03*
X975000Y800000D03*
X984843D03*
X994685D03*
X1004528D03*
X1014370D03*
X1024213D03*
X799606Y865945D03*
Y856102D03*
Y846260D03*
Y836417D03*
X1043110Y833071D03*
X1033268D03*
X1023425D03*
G54D86*
X1003937Y866142D03*
G54D87*
X1013937D03*
X1023937D03*
X1033937D03*
X1043937D03*
X1053937D03*
X1043937Y946142D03*
X1033937D03*
X1023937D03*
X1013937D03*
G54D107*
X799606Y911614D03*
X834843Y799606D03*
X929331Y972047D03*
X799606Y945472D03*
X965157Y800000D03*
X799606Y875787D03*
X1052953Y833071D03*
G54D111*
X875512Y817638D03*
X885512D03*
X895512D03*
X905512D03*
X915512D03*
X925512D03*
X935512D03*
X945512D03*
X955512D03*
Y847638D03*
X945512D03*
X935512D03*
X925512D03*
X915512D03*
X905512D03*
X895512D03*
X885512D03*
X875512D03*
X865512D03*
X0Y0D02*
M02*
