*
*
G04 PADS 9.5 Build Number: 522968 generated Gerber (RS-274-X) file*
G04 PC Version=2.1*
*
%IN "MAIN.pcb"*%
*
%MOIN*%
*
%FSLAX35Y35*%
*
*
*
*
G04 PC Standard Apertures*
*
*
G04 Thermal Relief Aperture macro.*
%AMTER*
1,1,$1,0,0*
1,0,$1-$2,0,0*
21,0,$3,$4,0,0,45*
21,0,$3,$4,0,0,135*
%
*
*
G04 Annular Aperture macro.*
%AMANN*
1,1,$1,0,0*
1,0,$2,0,0*
%
*
*
G04 Odd Aperture macro.*
%AMODD*
1,1,$1,0,0*
1,0,$1-0.005,0,0*
%
*
*
G04 PC Custom Aperture Macros*
*
*
*
*
*
*
G04 PC Aperture Table*
*
%ADD010C,0.001*%
%ADD011C,0.004*%
%ADD013C,0.01*%
%ADD014C,0.00787*%
%ADD016C,0.0003*%
%ADD017C,0.00591*%
%ADD019C,0.005*%
%ADD105C,0.006*%
%ADD106C,0.00822*%
*
*
*
*
G04 PC Circuitry*
G04 Layer Name MAIN.pcb - circuitry*
%LPD*%
*
*
G04 PC Custom Flashes*
G04 Layer Name MAIN.pcb - flashes*
%LPD*%
*
*
G04 PC Circuitry*
G04 Layer Name MAIN.pcb - circuitry*
%LPD*%
*
G54D10*
G54D11*
G01X989252Y879252D02*
X969252D01*
Y909252*
X989252*
Y879252*
X986890Y963661D02*
Y953661D01*
X956890*
Y963661*
X986890*
Y973898D02*
Y963898D01*
X956890*
Y973898*
X986890*
Y984134D02*
Y974134D01*
X956890*
Y984134*
X986890*
X1059843Y860236D02*
Y950787D01*
X998031*
Y860236*
X1059843*
G54D13*
X815398Y948013D02*
Y942213D01*
X822398*
Y948013*
X815398Y950413D02*
Y956213D01*
X822398*
Y950413*
X833634Y947382D02*
Y956382D01*
X824634*
Y947382*
X833634Y942382D02*
Y934882D01*
X832134Y933382*
X826134*
X824634Y934882*
Y942382*
X877335Y947382D02*
Y956382D01*
X868335*
Y947382*
X877335Y942382D02*
Y934882D01*
X875835Y933382*
X869835*
X868335Y934882*
Y942382*
X879571Y948406D02*
Y942606D01*
X886571*
Y948406*
X879571Y950806D02*
Y956606D01*
X886571*
Y950806*
X875634Y888564D02*
Y882764D01*
X882634*
Y888564*
X875634Y890964D02*
Y896764D01*
X882634*
Y890964*
X957043Y894507D02*
Y900307D01*
X950043*
Y894507*
X957043Y892107D02*
Y886307D01*
X950043*
Y892107*
X864524Y890176D02*
Y895976D01*
X857524*
Y890176*
X864524Y887776D02*
Y881976D01*
X857524*
Y887776*
Y873603D02*
Y867803D01*
X864524*
Y873603*
X857524Y876003D02*
Y881803D01*
X864524*
Y876003*
X879940Y796106D02*
X885740D01*
Y803106*
X879940*
X877540Y796106D02*
X871740D01*
Y803106*
X877540*
X879153Y922878D02*
X884953D01*
Y929878*
X879153*
X876753Y922878D02*
X870953D01*
Y929878*
X876753*
X981871Y871610D02*
X976071D01*
Y864610*
X981871*
X984271Y871610D02*
X990071D01*
Y864610*
X984271*
X862186Y929878D02*
X856386D01*
Y922878*
X862186*
X864586Y929878D02*
X870386D01*
Y922878*
X864586*
X952713Y930334D02*
Y936134D01*
X945713*
Y930334*
X952713Y927934D02*
Y922134D01*
X945713*
Y927934*
X967698Y871610D02*
X961898D01*
Y864610*
X967698*
X970098Y871610D02*
X975898D01*
Y864610*
X970098*
X833902Y831083D02*
Y825283D01*
X840902*
Y831083*
X833902Y833483D02*
Y839283D01*
X840902*
Y833483*
X818933Y961024D02*
X818826Y961319D01*
X818611Y961614*
X818397Y961762*
X817967*
X817752Y961614*
X817538Y961319*
X817430Y961024*
X817323Y960581*
Y959843*
X817430Y959400*
X817538Y959104*
X817752Y958809*
X817967Y958661*
X818397*
X818611Y958809*
X818826Y959104*
X818933Y959400*
X819900Y961171D02*
X820115Y961319D01*
X820437Y961762*
Y958661*
X828776Y961417D02*
X828669Y961713D01*
X828454Y962008*
X828239Y962156*
X827810*
X827595Y962008*
X827380Y961713*
X827273Y961417*
X827165Y960974*
Y960236*
X827273Y959793*
X827380Y959498*
X827595Y959203*
X827810Y959055*
X828239*
X828454Y959203*
X828669Y959498*
X828776Y959793*
X829850Y961417D02*
Y961565D01*
X829957Y961860*
X830064Y962008*
X830279Y962156*
X830709*
X830923Y962008*
X831031Y961860*
X831138Y961565*
Y961270*
X831031Y960974*
X830816Y960531*
X829742Y959055*
X831246*
X872477Y961024D02*
X872369Y961319D01*
X872155Y961614*
X871940Y961762*
X871510*
X871296Y961614*
X871081Y961319*
X870974Y961024*
X870866Y960581*
Y959843*
X870974Y959400*
X871081Y959104*
X871296Y958809*
X871510Y958661*
X871940*
X872155Y958809*
X872369Y959104*
X872477Y959400*
X873658Y961762D02*
X874839D01*
X874195Y960581*
X874517*
X874732Y960433*
X874839Y960285*
X874946Y959843*
Y959547*
X874839Y959104*
X874624Y958809*
X874302Y958661*
X873980*
X873658Y958809*
X873550Y958957*
X873443Y959252*
X882713Y961024D02*
X882606Y961319D01*
X882391Y961614*
X882176Y961762*
X881747*
X881532Y961614*
X881317Y961319*
X881210Y961024*
X881102Y960581*
Y959843*
X881210Y959400*
X881317Y959104*
X881532Y958809*
X881747Y958661*
X882176*
X882391Y958809*
X882606Y959104*
X882713Y959400*
X884753Y961762D02*
X883679Y959695D01*
X885290*
X884753Y961762D02*
Y958661D01*
X879170Y901181D02*
X879062Y901476D01*
X878848Y901772*
X878633Y901919*
X878203*
X877989Y901772*
X877774Y901476*
X877666Y901181*
X877559Y900738*
Y900000*
X877666Y899557*
X877774Y899262*
X877989Y898967*
X878203Y898819*
X878633*
X878848Y898967*
X879062Y899262*
X879170Y899557*
X881532Y901919D02*
X880458D01*
X880351Y900591*
X880458Y900738*
X880780Y900886*
X881102*
X881424Y900738*
X881639Y900443*
X881747Y900000*
X881639Y899705*
X881532Y899262*
X881317Y898967*
X880995Y898819*
X880673*
X880351Y898967*
X880243Y899114*
X880136Y899409*
X953185Y904724D02*
X953078Y905020D01*
X952863Y905315*
X952649Y905463*
X952219*
X952004Y905315*
X951790Y905020*
X951682Y904724*
X951575Y904281*
Y903543*
X951682Y903100*
X951790Y902805*
X952004Y902510*
X952219Y902362*
X952649*
X952863Y902510*
X953078Y902805*
X953185Y903100*
X955440Y905020D02*
X955333Y905315D01*
X955011Y905463*
X954796*
X954474Y905315*
X954259Y904872*
X954152Y904134*
Y903396*
X954259Y902805*
X954474Y902510*
X954796Y902362*
X954903*
X955225Y902510*
X955440Y902805*
X955548Y903248*
Y903396*
X955440Y903839*
X955225Y904134*
X954903Y904281*
X954796*
X954474Y904134*
X954259Y903839*
X954152Y903396*
X861453Y900787D02*
X861346Y901083D01*
X861131Y901378*
X860916Y901526*
X860487*
X860272Y901378*
X860057Y901083*
X859950Y900787*
X859843Y900344*
Y899606*
X859950Y899163*
X860057Y898868*
X860272Y898573*
X860487Y898425*
X860916*
X861131Y898573*
X861346Y898868*
X861453Y899163*
X863923Y901526D02*
X862849Y898425D01*
X862419Y901526D02*
X863923D01*
X861059Y864961D02*
X860952Y865256D01*
X860737Y865551*
X860523Y865699*
X860093*
X859878Y865551*
X859664Y865256*
X859556Y864961*
X859449Y864518*
Y863780*
X859556Y863337*
X859664Y863041*
X859878Y862746*
X860093Y862598*
X860523*
X860737Y862746*
X860952Y863041*
X861059Y863337*
X862563Y865699D02*
X862241Y865551D01*
X862133Y865256*
Y864961*
X862241Y864665*
X862455Y864518*
X862885Y864370*
X863207Y864222*
X863422Y863927*
X863529Y863632*
Y863189*
X863422Y862894*
X863314Y862746*
X862992Y862598*
X862563*
X862241Y862746*
X862133Y862894*
X862026Y863189*
Y863632*
X862133Y863927*
X862348Y864222*
X862670Y864370*
X863100Y864518*
X863100D02*
X863314Y864665D01*
X863422Y864961*
Y865256*
X863314Y865551*
X862992Y865699*
X862563*
X878776Y793307D02*
X878669Y793602D01*
X878454Y793898*
X878239Y794045*
X877810*
X877595Y793898*
X877380Y793602*
X877273Y793307*
X877165Y792864*
Y792126*
X877273Y791683*
X877380Y791388*
X877595Y791093*
X877810Y790945*
X878239*
X878454Y791093*
X878669Y791388*
X878776Y791683*
X881138Y793012D02*
X881031Y792569D01*
X880816Y792274*
X880494Y792126*
X880387*
X880064Y792274*
X879850Y792569*
X879742Y793012*
Y793159*
X879850Y793602*
X880064Y793898*
X880387Y794045*
X880494*
X880816Y793898*
X881031Y793602*
X881138Y793012*
Y792274*
X881031Y791535*
X880816Y791093*
X880494Y790945*
X880279*
X879957Y791093*
X879850Y791388*
X886614Y927510D02*
Y924409D01*
Y927510D02*
X887366D01*
X887688Y927362*
X887903Y927067*
X888010Y926772*
X888117Y926329*
Y925591*
X888010Y925148*
X887903Y924852*
X887688Y924557*
X887366Y924409*
X886614*
X889084Y926919D02*
X889298Y927067D01*
X889621Y927510*
Y924409*
X981496Y862549D02*
Y859449D01*
Y862549D02*
X982248D01*
X982570Y862402*
X982785Y862106*
X982892Y861811*
X982999Y861368*
Y860630*
X982892Y860187*
X982785Y859892*
X982570Y859596*
X982248Y859449*
X981496*
X984073Y861811D02*
Y861959D01*
X984180Y862254*
X984288Y862402*
X984503Y862549*
X984932*
X985147Y862402*
X985254Y862254*
X985361Y861959*
Y861663*
X985254Y861368*
X985039Y860925*
X983966Y859449*
X985469*
X850394Y927904D02*
Y924803D01*
Y927904D02*
X851360D01*
X851682Y927756*
X851790Y927608*
X851897Y927313*
Y927018*
X851790Y926722*
X851682Y926575*
X851360Y926427*
X850394*
X851145D02*
X851897Y924803D01*
X852863Y927313D02*
X853078Y927461D01*
X853400Y927904*
Y924803*
X947244Y941289D02*
Y938189D01*
Y941289D02*
X948210D01*
X948533Y941142*
X948640Y940994*
X948747Y940699*
Y940404*
X948640Y940108*
X948533Y939961*
X948210Y939813*
X947244*
X947996D02*
X948747Y938189D01*
X949821Y940551D02*
Y940699D01*
X949928Y940994*
X950036Y941142*
X950251Y941289*
X950680*
X950895Y941142*
X951002Y940994*
X951110Y940699*
Y940404*
X951002Y940108*
X950787Y939665*
X949714Y938189*
X951217*
X966142Y862156D02*
Y859055D01*
Y862156D02*
X967108D01*
X967430Y862008*
X967538Y861860*
X967645Y861565*
Y861270*
X967538Y860974*
X967430Y860827*
X967108Y860679*
X966142*
X966893D02*
X967645Y859055D01*
X968826Y862156D02*
X970007D01*
X969363Y860974*
X969685*
X969900Y860827*
X970007Y860679*
X970115Y860236*
Y859941*
X970007Y859498*
X969792Y859203*
X969470Y859055*
X969148*
X968826Y859203*
X968719Y859350*
X968611Y859646*
X835827Y823573D02*
Y820472D01*
Y823573D02*
X836793D01*
X837115Y823425*
X837223Y823278*
X837330Y822982*
Y822687*
X837223Y822392*
X837115Y822244*
X836793Y822096*
X835827*
X836578D02*
X837330Y820472D01*
X839370Y823573D02*
X838296Y821506D01*
X839907*
X839370Y823573D02*
Y820472D01*
X787402Y787402D02*
X1062992D01*
Y984252*
X787402*
Y787402*
G54D14*
X802756Y921260D02*
X806693Y917323D01*
Y892126*
X787402*
Y921260*
X802756*
X801181Y918504D02*
X805118Y914567D01*
Y894882*
X791339*
Y918504*
X801181*
X825197Y802756D02*
X829134Y806693D01*
X864173*
Y787402*
X825197*
Y802756*
X827953Y801181D02*
X831890Y805118D01*
X861417*
Y791339*
X827953*
Y801181*
X938976Y968898D02*
X935039Y964961D01*
X890157*
Y984252*
X938976*
Y968898*
X936220Y970472D02*
X932283Y966535D01*
X892913*
Y980315*
X936220*
Y970472*
X802756Y955118D02*
X806693Y951181D01*
Y925984*
X787402*
Y955118*
X802756*
X801181Y952362D02*
X805118Y948425D01*
Y928740*
X791339*
Y952362*
X801181*
X955512Y803150D02*
X959449Y807087D01*
X1033858*
Y787795*
X955512*
Y803150*
X958268Y801575D02*
X962205Y805512D01*
X1031102*
Y791732*
X958268*
Y801575*
X802756Y885433D02*
X806693Y881496D01*
Y826772*
X787402*
Y885433*
X802756*
X801181Y882677D02*
X805118Y878740D01*
Y829528*
X791339*
Y882677*
X801181*
X1062598Y829921D02*
X1058661Y825984D01*
X1013780*
Y845276*
X1062598*
Y829921*
X1059843Y831496D02*
X1055906Y827559D01*
X1016535*
Y841339*
X1059843*
Y831496*
X836929Y979173D02*
X865433D01*
Y933425*
X836929*
Y979173*
X835236Y850984D02*
Y912008D01*
X852166*
Y850984*
X835236*
G54D16*
X901575Y901969D02*
X929134D01*
Y874409*
X901575*
Y901969*
X906822Y899291D02*
G75*
G03X906822I-1783J0D01*
G54D17*
G01X813435Y945669D02*
X808268D01*
X813435D02*
Y944059D01*
X813189Y943522*
X812943Y943343*
X812451Y943164*
X811959*
X811467Y943343*
X811220Y943522*
X810974Y944059*
Y945669D02*
Y944059D01*
X810728Y943522*
X810482Y943343*
X809990Y943164*
X809252*
X808760Y943343*
X808514Y943522*
X808268Y944059*
Y945669*
X813435Y940122D02*
X808268Y941553D01*
X813435Y940122D02*
X808268Y938690D01*
X809990Y941016D02*
Y939227D01*
X813435Y935827D02*
X808268D01*
X813435Y937079D02*
Y934574D01*
X814616Y918504D02*
X809449D01*
X814616D02*
Y916178D01*
X812156Y918504D02*
Y917072D01*
X809449Y918504D02*
Y916178D01*
X814616Y914567D02*
X809449Y912062D01*
X814616D02*
X809449Y914567D01*
X808465Y910451D02*
Y906693D01*
X814616Y905619D02*
X809449D01*
X814616D02*
Y904009D01*
X814370Y903472*
X814124Y903293*
X813632Y903114*
X813140*
X812648Y903293*
X812402Y903472*
X812156Y904009*
Y905619D02*
Y904009D01*
X811909Y903472*
X811663Y903293*
X811171Y903114*
X810433*
X809941Y903293*
X809695Y903472*
X809449Y904009*
Y905619*
X814616Y900072D02*
X809449Y901503D01*
X814616Y900072D02*
X809449Y898640D01*
X811171Y900966D02*
Y899177D01*
X814616Y895777D02*
X809449D01*
X814616Y897029D02*
Y894524D01*
X815797Y861811D02*
X810630D01*
X815797D02*
Y860200D01*
X815551Y859664*
X815305Y859485*
X814813Y859306*
X814321*
X813829Y859485*
X813583Y859664*
X813337Y860200*
Y861811*
Y860558D02*
X810630Y859306D01*
X815797Y856442D02*
X810630D01*
X815797Y857695D02*
Y855190D01*
X814567Y850895D02*
X815059Y851074D01*
X815551Y851432*
X815797Y851790*
Y852505*
X815551Y852863*
X815059Y853221*
X814567Y853400*
X813829Y853579*
X812598*
X811860Y853400*
X811368Y853221*
X810876Y852863*
X810630Y852505*
Y851790*
X810876Y851432*
X811368Y851074*
X811860Y850895*
X907087Y961467D02*
Y957776D01*
X907266Y957037*
X907623Y956545*
X908160Y956299*
X908518*
X909055Y956545*
X909413Y957037*
X909592Y957776*
Y961467*
X912634D02*
X911203Y956299D01*
X912634Y961467D02*
X914066Y956299D01*
X911739Y958022D02*
X913529D01*
X915676Y961467D02*
Y956299D01*
Y961467D02*
X917287D01*
X917824Y961220*
X918003Y960974*
X918182Y960482*
Y959990*
X918003Y959498*
X917824Y959252*
X917287Y959006*
X915676*
X916929D02*
X918182Y956299D01*
X921045Y961467D02*
Y956299D01*
X919792Y961467D02*
X922298D01*
X838440Y814616D02*
X837008Y809449D01*
X838440Y814616D02*
X839871Y809449D01*
X837545Y811171D02*
X839334D01*
X841482Y814616D02*
X843987Y809449D01*
Y814616D02*
X841482Y809449D01*
X845598Y808465D02*
X849356D01*
X850429Y814616D02*
Y809449D01*
Y814616D02*
X851861Y809449D01*
X853293Y814616D02*
X851861Y809449D01*
X853293Y814616D02*
Y809449D01*
X990551Y814616D02*
Y809449D01*
X992699*
X996994Y813386D02*
X996815Y813878D01*
X996457Y814370*
X996099Y814616*
X995383*
X995025Y814370*
X994667Y813878*
X994488Y813386*
X994309Y812648*
Y811417*
X994488Y810679*
X994667Y810187*
X995025Y809695*
X995383Y809449*
X996099*
X996457Y809695*
X996815Y810187*
X996994Y810679*
X998604Y814616D02*
Y809449D01*
Y814616D02*
X999857D01*
X1000394Y814370*
X1000752Y813878*
X1000931Y813386*
X1001110Y812648*
Y811417*
X1000931Y810679*
X1000752Y810187*
X1000394Y809695*
X999857Y809449*
X998604*
X1027165Y852411D02*
Y847244D01*
X1029313*
X1030923Y846260D02*
X1034681D01*
X1038440Y851181D02*
X1038261Y851673D01*
X1037903Y852165*
X1037545Y852411*
X1036829*
X1036471Y852165*
X1036113Y851673*
X1035934Y851181*
X1035755Y850443*
Y849213*
X1035934Y848474*
X1036113Y847982*
X1036471Y847490*
X1036829Y847244*
X1037545*
X1037903Y847490*
X1038261Y847982*
X1038440Y848474*
X1040050Y852411D02*
Y847244D01*
Y852411D02*
X1042377D01*
X1040050Y849951D02*
X1041482D01*
X1040050Y847244D02*
X1042377D01*
X1043987Y852411D02*
Y847244D01*
X1046135*
X1047745Y852411D02*
Y847244D01*
X1049893*
G54D19*
X836221Y860236D02*
Y902756D01*
X837992Y904527D02*
X838977D01*
X848425D02*
X849410D01*
X851181Y902756D02*
Y860236D01*
X849410Y858465D02*
X848425D01*
X838977D02*
X837992D01*
X836221Y860237D02*
G03X837992Y858465I1771J-0D01*
G01X851181Y902756D02*
G03X849409Y904527I-1772J-0D01*
G01X837992D02*
G03X836221Y902756I0J-1771D01*
G01X849409Y858465D02*
G03X851181Y860237I0J1772D01*
G01X810379Y907353D02*
Y905241D01*
X810271Y904845*
X810164Y904713*
X809949Y904581*
X809735*
X809520Y904713*
X809412Y904845*
X809305Y905241*
Y905505*
X811345Y906825D02*
X811560Y906957D01*
X811882Y907353*
Y904581*
X828489Y811684D02*
Y809571D01*
X828382Y809175*
X828274Y809043*
X828060Y808911*
X827845*
X827630Y809043*
X827523Y809175*
X827415Y809571*
Y809836*
X829455Y811156D02*
X829670Y811288D01*
X829992Y811684*
Y808911*
X831603Y811684D02*
X831281Y811552D01*
X831066Y811156*
X830959Y810496*
Y810100*
X831066Y809439*
X831281Y809043*
X831603Y808911*
X831818*
X832140Y809043*
X832355Y809439*
X832462Y810100*
Y810496*
X832355Y811156*
X832140Y811552*
X831818Y811684*
X831603*
X885182Y975070D02*
Y972957D01*
X885075Y972561*
X884967Y972429*
X884753Y972297*
X884538*
X884323Y972429*
X884216Y972561*
X884108Y972957*
Y973221*
X886148Y974541D02*
X886363Y974673D01*
X886685Y975070*
Y972297*
X887652Y974541D02*
X887866Y974673D01*
X888188Y975070*
Y972297*
X795812Y959321D02*
Y957209D01*
X795705Y956813*
X795597Y956681*
X795382Y956549*
X795168*
X794953Y956681*
X794846Y956813*
X794738Y957209*
Y957473*
X796886Y958661D02*
Y958793D01*
X796993Y959057*
X797100Y959189*
X797315Y959321*
X797745*
X797959Y959189*
X798067Y959057*
X798174Y958793*
Y958529*
X798067Y958265*
X797852Y957869*
X796778Y956549*
X798281*
X977452Y914124D02*
Y911762D01*
X977344Y911319*
X977237Y911171*
X977022Y911024*
X976807*
X976593Y911171*
X976485Y911319*
X976378Y911762*
Y912057*
X978633Y914124D02*
X979814D01*
X979170Y912943*
X979492*
X979707Y912795*
X979814Y912648*
X979921Y912205*
Y911909*
X979814Y911467*
X979599Y911171*
X979277Y911024*
X978955*
X978633Y911171*
X978525Y911319*
X978418Y911614*
X950930Y797904D02*
Y795792D01*
X950823Y795396*
X950715Y795264*
X950501Y795132*
X950286*
X950071Y795264*
X949964Y795396*
X949856Y795792*
Y796056*
X952970Y797904D02*
X951896Y796056D01*
X953507*
X952970Y797904D02*
Y795132D01*
X799355Y825463D02*
Y823351D01*
X799248Y822955*
X799140Y822823*
X798926Y822691*
X798711*
X798496Y822823*
X798389Y822955*
X798281Y823351*
X798281D02*
Y823615D01*
X801717Y825463D02*
X800644D01*
X800536Y824275*
X800644Y824407*
X800966Y824539*
X801288*
X801610Y824407*
X801825Y824143*
X801932Y823747*
X801825Y823483*
X801717Y823087*
X801503Y822823*
X801181Y822691*
X800858*
X800536Y822823*
X800429Y822955*
X800322Y823219*
X989263Y959400D02*
Y957037D01*
X989155Y956594*
X989048Y956447*
X988833Y956299*
X988618*
X988404Y956447*
X988296Y956594*
X988189Y957037*
Y957333*
X991518Y958957D02*
X991410Y959252D01*
X991088Y959400*
X990873*
X990551Y959252*
X990336Y958809*
X990229Y958071*
Y957333*
X990336Y956742*
X990551Y956447*
X990873Y956299*
X990981*
X991303Y956447*
X991518Y956742*
X991625Y957185*
Y957333*
X991518Y957776*
X991303Y958071*
X990981Y958219*
X990873*
X990551Y958071*
X990336Y957776*
X990229Y957333*
X989263Y970423D02*
Y968061D01*
X989155Y967618*
X989048Y967470*
X988833Y967323*
X988618*
X988404Y967470*
X988296Y967618*
X988189Y968061*
Y968356*
X991732Y970423D02*
X990659Y967323D01*
X990229Y970423D02*
X991732D01*
X989263Y980659D02*
Y978297D01*
X989155Y977854*
X989048Y977707*
X988833Y977559*
X988618*
X988404Y977707*
X988296Y977854*
X988189Y978297*
Y978593*
X990766Y980659D02*
X990444Y980512D01*
X990336Y980217*
Y979921*
X990444Y979626*
X990659Y979478*
X991088Y979331*
X991410Y979183*
X991625Y978888*
X991732Y978593*
Y978150*
X991625Y977854*
X991518Y977707*
X991195Y977559*
X990766*
X990444Y977707*
X990336Y977854*
X990229Y978150*
Y978593*
X990336Y978888*
X990551Y979183*
X990873Y979331*
X991303Y979478*
X991518Y979626*
X991625Y979921*
Y980217*
X991518Y980512*
X991195Y980659*
X990766*
X1009591Y834912D02*
Y832800D01*
X1009484Y832404*
X1009377Y832272*
X1009162Y832140*
X1008947*
X1008732Y832272*
X1008625Y832404*
X1008518Y832800*
Y833064*
X1011954Y833988D02*
X1011846Y833592D01*
X1011632Y833328*
X1011309Y833196*
X1011202*
X1010880Y833328*
X1010665Y833592*
X1010558Y833988*
Y834120*
X1010665Y834516*
X1010880Y834780*
X1011202Y834912*
X1011309*
X1011632Y834780*
X1011846Y834516*
X1011954Y833988*
Y833328*
X1011846Y832668*
X1011632Y832272*
X1011309Y832140*
X1011095*
X1010773Y832272*
X1010665Y832536*
X915676Y938484D02*
X915462Y938780D01*
X915140Y938927*
X914710*
X914388Y938780*
X914173Y938484*
Y938189*
X914281Y937894*
X914388Y937746*
X914603Y937598*
X915247Y937303*
X915462Y937156*
X915569Y937008*
X915676Y936713*
Y936270*
X915462Y935974*
X915140Y935827*
X914710*
X914388Y935974*
X914173Y936270*
X916643Y938927D02*
X917180Y935827D01*
X917717Y938927D02*
X917180Y935827D01*
X917717Y938927D02*
X918253Y935827D01*
X918790Y938927D02*
X918253Y935827D01*
X919757Y938337D02*
X919971Y938484D01*
X920293Y938927*
Y935827*
X915354Y891289D02*
Y889075D01*
X915462Y888632*
X915676Y888337*
X915999Y888189*
X916213*
X916535Y888337*
X916750Y888632*
X916858Y889075*
Y891289*
X917931Y890551D02*
Y890699D01*
X918039Y890994*
X918146Y891142*
X918361Y891289*
X918790*
X919005Y891142*
X919112Y890994*
X919220Y890699*
Y890404*
X919112Y890108*
X918898Y889665*
X917824Y888189*
X919327*
X1054331Y858219D02*
Y856004D01*
X1054438Y855561*
X1054653Y855266*
X1054975Y855118*
X1055190*
X1055512Y855266*
X1055727Y855561*
X1055834Y856004*
Y858219*
X1057874D02*
X1056800Y856152D01*
X1058411*
X1057874Y858219D02*
Y855118D01*
G54D105*
X860712Y845638D02*
X857512D01*
X960312Y819638D02*
X963512D01*
Y845638*
X960312*
X857512D02*
Y833838D01*
Y831438*
Y819638*
X860312*
X857512Y831438D02*
G03Y833838I-0J1200D01*
G54D106*
G01X907480Y809006D02*
Y805906D01*
Y809006D02*
X908447D01*
X908769Y808858*
X908876Y808711*
X908984Y808415*
Y808120*
X908876Y807825*
X908769Y807677*
X908447Y807530*
X907480*
X908232D02*
X908984Y805906D01*
X909950Y807087D02*
X911238D01*
Y807382*
X911131Y807677*
X911024Y807825*
X910809Y807972*
X910487*
X910272Y807825*
X910057Y807530*
X909950Y807087*
Y806791*
X910057Y806348*
X910272Y806053*
X910487Y805906*
X910809*
X911024Y806053*
X911238Y806348*
X913064Y809006D02*
X912849D01*
X912634Y808858*
X912527Y808415*
Y805906*
X912205Y807972D02*
X912956D01*
X914137Y806201D02*
X914030Y806053D01*
X914137Y805906*
X914245Y806053*
X914137Y806201*
X915211Y809006D02*
Y805906D01*
Y809006D02*
X915963D01*
X916285Y808858*
X916500Y808563*
X916607Y808268*
X916714Y807825*
Y807087*
X916607Y806644*
X916500Y806348*
X916285Y806053*
X915963Y805906*
X915211*
X917681Y807087D02*
X918969D01*
Y807382*
X918862Y807677*
X918754Y807825*
X918540Y807972*
X918218*
X918003Y807825*
X917788Y807530*
X917681Y807087*
Y806791*
X917788Y806348*
X918003Y806053*
X918218Y805906*
X918540*
X918754Y806053*
X918969Y806348*
X921117Y807530D02*
X921009Y807825D01*
X920687Y807972*
X920365*
X920043Y807825*
X919936Y807530*
X920043Y807234*
X920258Y807087*
X920795Y806939*
X921009Y806791*
X921117Y806496*
Y806348*
X921009Y806053*
X920687Y805906*
X920365*
X920043Y806053*
X919936Y806348*
X922190Y806201D02*
X922083Y806053D01*
X922190Y805906*
X922298Y806053*
X922190Y806201*
X923264Y807677D02*
X925197D01*
X923264Y806791D02*
X925197D01*
X926163Y809006D02*
Y806791D01*
X926271Y806348*
X926485Y806053*
X926807Y805906*
X927022*
X927344Y806053*
X927559Y806348*
X927666Y806791*
Y809006*
X928848D02*
X930029D01*
X929384Y807825*
X929707*
X929921Y807677*
X930029Y807530*
X930136Y807087*
Y806791*
X930029Y806348*
X929814Y806053*
X929492Y805906*
X929170*
X928848Y806053*
X928740Y806201*
X928633Y806496*
G74*
X0Y0D02*
M02*
