*
*
G04 PADS 9.5 Build Number: 522968 generated Gerber (RS-274-X) file*
G04 PC Version=2.1*
*
%IN "MAIN.pcb"*%
*
%MOIN*%
*
%FSLAX35Y35*%
*
*
*
*
G04 PC Standard Apertures*
*
*
G04 Thermal Relief Aperture macro.*
%AMTER*
1,1,$1,0,0*
1,0,$1-$2,0,0*
21,0,$3,$4,0,0,45*
21,0,$3,$4,0,0,135*
%
*
*
G04 Annular Aperture macro.*
%AMANN*
1,1,$1,0,0*
1,0,$2,0,0*
%
*
*
G04 Odd Aperture macro.*
%AMODD*
1,1,$1,0,0*
1,0,$1-0.005,0,0*
%
*
*
G04 PC Custom Aperture Macros*
*
*
*
*
*
*
G04 PC Aperture Table*
*
%ADD010C,0.001*%
%ADD013C,0.01*%
%ADD021R,0.03X0.038*%
%ADD022R,0.06X0.06*%
%ADD023C,0.06*%
%ADD025R,0.038X0.03*%
%ADD035C,0.01575*%
%ADD046R,0.066X0.066*%
%ADD056C,0.02362*%
%ADD057C,0.015*%
%ADD069C,0.012*%
%ADD074C,0.05906*%
%ADD076R,0.06X0.013*%
%ADD077R,0.013X0.06*%
%ADD081C,0.03937*%
%ADD083C,0.02756*%
%ADD098R,0.05X0.07*%
%ADD099R,0.05906X0.05906*%
%ADD100R,0.05512X0.07087*%
%ADD101R,0.03819X0.11142*%
%ADD102R,0.22165X0.23976*%
%ADD103C,0.066*%
%ADD104R,0.07874X0.21654*%
*
*
*
*
G04 PC Circuitry*
G04 Layer Name MAIN.pcb - circuitry*
%LPD*%
*
*
G04 PC Custom Flashes*
G04 Layer Name MAIN.pcb - flashes*
%LPD*%
*
*
G04 PC Circuitry*
G04 Layer Name MAIN.pcb - circuitry*
%LPD*%
*
G54D10*
G54D13*
G01X1058028Y866142D02*
G75*
G03X1058028I-4091J0D01*
G01X1048028D02*
G03X1048028I-4091J0D01*
G01Y946142D02*
G03X1048028I-4091J0D01*
G01X978343Y894252D02*
G03X978343I-4091J0D01*
G01Y904252D02*
G03X978343I-4091J0D01*
G01X979043Y800000D02*
G03X979043I-4043J0D01*
G01X959902Y817638D02*
G03X959902I-4390J0D01*
G01X965980Y958661D02*
G03X965980I-4090J0D01*
G01Y968898D02*
G03X965980I-4090J0D01*
G01X923532Y972047D02*
G03X923532I-4044J0D01*
G01X913689D02*
G03X913689I-4043J0D01*
G01X903846D02*
G03X903846I-4043J0D01*
G01X819398Y832283D02*
G03X819398I-2469J0D01*
G01X803650Y836417D02*
G03X803650I-4044J0D01*
G01Y846260D02*
G03X803650I-4044J0D01*
G01Y856102D02*
G03X803650I-4044J0D01*
G01Y865945D02*
G03X803650I-4044J0D01*
G01X848728Y799606D02*
G03X848728I-4043J0D01*
G01X909902Y817638D02*
G03X909902I-4390J0D01*
G01Y847638D02*
G03X909902I-4390J0D01*
G01X899902Y817638D02*
G03X899902I-4390J0D01*
G01X919902D02*
G03X919902I-4390J0D01*
G01Y847638D02*
G03X919902I-4390J0D01*
G01X929902Y817638D02*
G03X929902I-4390J0D01*
G01X939902D02*
G03X939902I-4390J0D01*
G01X949902D02*
G03X949902I-4390J0D01*
G01X1028028Y946142D02*
G03X1028028I-4091J0D01*
G01X1062886Y788795D02*
Y983646D01*
G03X1062386Y984146I-500J-0*
G01X985384*
G03X985229Y983170I0J-500*
G01X985980Y982134D02*
G03X985229Y983170I-1090J-0D01*
G01X985980Y982134D02*
Y976134D01*
X984890Y975043D02*
G03X985980Y976134I-0J1091D01*
G01X984890Y975043D02*
X978890D01*
X977799Y976134D02*
G03X978890Y975043I1091J-0D01*
G01X977799Y976134D02*
Y982134D01*
X978551Y983170D02*
G03X977799Y982134I339J-1036D01*
G01X978551Y983170D02*
G03X978395Y984146I-156J476D01*
G01X972736*
G03X972644Y983154I0J-500*
G01X974360Y975873D02*
G03X972644Y983154I-2470J3261D01*
G01X974360Y975873D02*
G03X974161Y975474I301J-399D01*
G01Y972557*
G03X974360Y972158I500J0*
G01Y965637D02*
G03Y972158I-2470J3261D01*
G01Y965637D02*
G03X974161Y965238I301J-399D01*
G01Y962321*
G03X974360Y961922I500J-0*
G01Y955401D02*
G03Y961922I-2470J3260D01*
G01Y955401D02*
G03X974161Y955002I301J-399D01*
G01Y949967*
G03X974308Y949613I500J-0*
G01X975361Y948560*
G03X975715Y948413I354J353*
G01X1010278*
G03X1010676Y948612I-0J500*
G01Y943672D02*
G03Y948612I3261J2470D01*
G01Y943672D02*
G03X1010278Y943870I-398J-302D01*
G01X974661*
G03X974161Y943370I0J-500*
G01Y935433*
Y934646*
Y921890*
X973496Y920283D02*
G03X974161Y921890I-1606J1607D01*
G01X973496Y920283D02*
X971898Y918686D01*
G03X972252Y917832I354J-354*
G01X1014841*
G03X1015194Y917979I-0J500*
G01X1018096Y920880*
X1019291Y921376D02*
G03X1018096Y920880I0J-1691D01*
G01X1019291Y921376D02*
X1030274D01*
G03X1030627Y921522I-0J500*
G01X1032100Y922995*
G03X1032246Y923348I-354J353*
G01Y942108*
G03X1031985Y942547I-500J-0*
G01X1035889D02*
G03X1031985I-1952J3595D01*
G01X1035889D02*
G03X1035628Y942108I239J-439D01*
G01Y922441*
X1035132Y921246D02*
G03X1035628Y922441I-1195J1195D01*
G01X1035132Y921246D02*
X1032377Y918490D01*
X1031181Y917994D02*
G03X1032377Y918490I0J1691D01*
G01X1031181Y917994D02*
X1020199D01*
G03X1019845Y917848I-0J-500*
G01X1018321Y916324*
G03X1018674Y915470I353J-354*
G01X1022012*
G03X1022350Y915601I0J500*
G01Y911958D02*
G03Y915601I1666J1822D01*
G01Y911958D02*
G03X1022012Y912089I-338J-369D01*
G01X967805*
G03X967459Y911228I0J-500*
G01X968053Y908565D02*
G03X967459Y911228I-2305J884D01*
G01X968053Y908565D02*
G03X968020Y908386I467J-179D01*
G01Y887762*
G03X968166Y887409I500J0*
G01X968905Y886670*
G03X969258Y886524I353J354*
G01X970593*
G03X970991Y886722I-0J500*
G01Y881782D02*
G03Y886722I3261J2470D01*
G01Y881782D02*
G03X970593Y881980I-398J-302D01*
G01X968520*
G03X968020Y881480I-0J-500*
G01Y874016*
X968019Y873945D02*
G03X968020Y874016I-2271J71D01*
G01X968019Y873945D02*
G03X968872Y873575I499J-16D01*
G01X968883Y873587*
X970079Y874082D02*
G03X968883Y873587I-0J-1691D01*
G01X970079Y874082D02*
X982061D01*
G03X982561Y874582I0J500*
G01Y879661*
G03X982061Y880161I-500J0*
G01X981252*
X980161Y881252D02*
G03X981252Y880161I1091J-0D01*
G01X980161Y881252D02*
Y887252D01*
X981252Y888343D02*
G03X980161Y887252I-0J-1091D01*
G01X981252Y888343D02*
X987252D01*
X988343Y887252D02*
G03X987252Y888343I-1091J-0D01*
G01X988343Y887252D02*
Y881252D01*
X987252Y880161D02*
G03X988343Y881252I-0J1091D01*
G01X987252Y880161D02*
X986443D01*
G03X985943Y879661I-0J-500*
G01Y873572*
X985447Y872377D02*
G03X985943Y873572I-1195J1195D01*
G01X985447Y872377D02*
X984625Y871554D01*
G03X984978Y870701I353J-353*
G01X988071*
X989161Y869610D02*
G03X988071Y870701I-1090J0D01*
G01X989161Y869610D02*
Y866610D01*
X988071Y865520D02*
G03X989161Y866610I-0J1090D01*
G01X988071Y865520D02*
X984271D01*
X983448Y865894D02*
G03X984271Y865520I823J716D01*
G01X983448Y865894D02*
G03X982694I-377J-328D01*
G01X981871Y865520D02*
G03X982694Y865894I-0J1090D01*
G01X981871Y865520D02*
X978071D01*
X977088Y866137D02*
G03X978071Y865520I983J473D01*
G01X977088Y866137D02*
G03X976638Y866420I-450J-217D01*
G01X975330*
G03X974880Y866137I0J-500*
G01X973898Y865520D02*
G03X974880Y866137I-0J1090D01*
G01X973898Y865520D02*
X970098D01*
X969275Y865894D02*
G03X970098Y865520I823J716D01*
G01X969275Y865894D02*
G03X968520I-377J-328D01*
G01X967698Y865520D02*
G03X968520Y865894I-0J1090D01*
G01X967698Y865520D02*
X963898D01*
X962915Y866137D02*
G03X963898Y865520I983J473D01*
G01X962915Y866137D02*
G03X962465Y866420I-450J-217D01*
G01X927373*
G03X927264Y866408I-0J-500*
G01X927028Y866382D02*
G03X927264Y866408I-0J1090D01*
G01X927028Y866382D02*
X925728D01*
X925516Y866403D02*
G03X925728Y866382I212J1069D01*
G01X925516Y866403D02*
G03X924919Y865912I-97J-491D01*
G01Y864687*
G03X925065Y864333I500J-0*
G01X925357Y864042*
G03X925711Y863895I354J353*
G01X951540*
G03X951877Y864026I-0J500*
G01X955209D02*
G03X951877I-1666J-1821D01*
G01X955209D02*
G03X955547Y863895I338J369D01*
G01X986220*
X987416Y863400D02*
G03X986220Y863895I-1196J-1195D01*
G01X987416Y863400D02*
X992535Y858281D01*
G03X993388Y858635I353J354*
G01Y892061*
G03X992888Y892561I-500J0*
G01X988286*
G03X987847Y892300I0J-500*
G01Y896204D02*
G03Y892300I-3595J-1952D01*
G01Y896204D02*
G03X988286Y895943I439J239D01*
G01X994134*
X995329Y895447D02*
G03X994134Y895943I-1195J-1195D01*
G01X995329Y895447D02*
X995487Y895289D01*
G03X996341Y895643I354J354*
G01Y901455*
G03X996194Y901808I-500J-0*
G01X995588Y902415*
G03X995234Y902561I-354J-354*
G01X988286*
G03X987847Y902300I0J-500*
G01Y906204D02*
G03Y902300I-3595J-1952D01*
G01Y906204D02*
G03X988286Y905943I439J239D01*
G01X996142*
X997337Y905447D02*
G03X996142Y905943I-1195J-1195D01*
G01X997337Y905447D02*
X999227Y903558D01*
X999722Y902362D02*
G03X999227Y903558I-1691J0D01*
G01X999722Y902362D02*
Y870563D01*
G03X1000447Y870116I500J-0*
G01X1000937Y870232D02*
G03X1000447Y870116I0J-1090D01*
G01X1000937Y870232D02*
X1006937D01*
X1008028Y869142D02*
G03X1006937Y870232I-1091J-0D01*
G01X1008028Y869142D02*
Y863142D01*
X1006937Y862051D02*
G03X1008028Y863142I0J1091D01*
G01X1006937Y862051D02*
X1006128D01*
G03X1005628Y861551I-0J-500*
G01Y853466*
G03X1005774Y853113I500J0*
G01X1021806Y837081*
G03X1022299Y836954I354J353*
G01X1019542Y834197D02*
G03X1022299Y836954I3883J-1126D01*
G01X1019542Y834197D02*
G03X1019415Y834690I-480J139D01*
G01X1002742Y851364*
X1002246Y852559D02*
G03X1002742Y851364I1691J0D01*
G01X1002246Y852559D02*
Y861551D01*
G03X1001746Y862051I-500J0*
G01X1000937*
X1000447Y862168D02*
G03X1000937Y862051I490J974D01*
G01X1000447Y862168D02*
G03X999722Y861721I-225J-447D01*
G01Y827088*
G03X999869Y826735I500J0*
G01X1022593Y804010*
G03X1023086Y803883I354J354*
G01X1020329Y801126D02*
G03X1023086Y803883I3884J-1126D01*
G01X1020329Y801126D02*
G03X1020203Y801619I-480J140D01*
G01X997623Y824199*
G03X996769Y823845I-354J-354*
G01Y820199*
G03X996916Y819845I500J-0*
G01X1012751Y804010*
G03X1013244Y803883I354J354*
G01X1010487Y801126D02*
G03X1013244Y803883I3883J-1126D01*
G01X1010487Y801126D02*
G03X1010360Y801619I-480J140D01*
G01X994670Y817309*
G03X993817Y816956I-353J-353*
G01Y813309*
G03X993963Y812955I500J-0*
G01X1002908Y804010*
G03X1003401Y803883I354J354*
G01X1000644Y801126D02*
G03X1003401Y803883I3884J-1126D01*
G01X1000644Y801126D02*
G03X1000518Y801619I-480J140D01*
G01X991127Y811010*
G03X990273Y810656I-354J-354*
G01Y807600*
G03X990420Y807247I500J0*
G01X993545Y804121*
G03X993985Y803982I354J354*
G01X990937Y801517D02*
G03X993985Y803982I3748J-1517D01*
G01X990937Y801517D02*
G03X990827Y802058I-464J187D01*
G01X987387Y805497*
Y805498D02*
G03X986533Y805145I-354J-353D01*
G01Y803980*
G03X986792Y803542I500J0*
G01X982893D02*
G03X986792I1950J-3542D01*
G01X982893D02*
G03X983152Y803980I-241J438D01*
G01Y849093*
G03X983005Y849446I-500J-0*
G01X983006D02*
X979958Y852494D01*
G03X979604Y852640I-354J-354*
G01X957421*
G03X957226Y851680I0J-500*
G01X953797D02*
G03X957226I1715J-4042D01*
G01X953797D02*
G03X953602Y852640I-195J460D01*
G01X947421*
G03X947226Y851680I0J-500*
G01X943797D02*
G03X947226I1715J-4042D01*
G01X943797D02*
G03X943602Y852640I-195J460D01*
G01X937421*
G03X937226Y851680I0J-500*
G01X933797D02*
G03X937226I1715J-4042D01*
G01X933797D02*
G03X933602Y852640I-195J460D01*
G01X927421*
G03X927226Y851680I0J-500*
G01X923797D02*
G03X927226I1715J-4042D01*
G01X923797D02*
G03X923602Y852640I-195J460D01*
G01X920079*
X918883Y853135D02*
G03X920079Y852640I1196J1196D01*
G01X918883Y853135D02*
X915734Y856285D01*
X915239Y857480D02*
G03X915734Y856285I1690J0D01*
G01X915239Y857480D02*
Y865912D01*
G03X914641Y866403I-500J0*
G01X914430Y866382D02*
G03X914641Y866403I-0J1090D01*
G01X914430Y866382D02*
X913130D01*
X912495Y866585D02*
G03X913130Y866382I635J887D01*
G01X912495Y866585D02*
G03X911914I-290J-407D01*
G01X911280Y866382D02*
G03X911914Y866585I-0J1090D01*
G01X911280Y866382D02*
X909980D01*
X909768Y866403D02*
G03X909980Y866382I212J1069D01*
G01X909768Y866403D02*
G03X909171Y865912I-97J-491D01*
G01Y858268*
X908676Y857072D02*
G03X909171Y858268I-1196J1196D01*
G01X908676Y857072D02*
X907101Y855497D01*
X905906Y855002D02*
G03X907101Y855498I-0J1691D01*
G01X905906Y855002D02*
X898781D01*
G03X898428Y854856I0J-500*
G01X897349Y853777*
G03X897202Y853423I353J-354*
G01Y852010*
G03X897478Y851563I500J0*
G01X892214Y850537D02*
G03X897478Y851563I3298J-2899D01*
G01X892214Y850537D02*
G03X892336Y850814I-375J330D01*
X892613Y850935I-53J497*
G01X893545Y851563D02*
G03X892613Y850935I1967J-3925D01*
G01X893545Y851563D02*
G03X893821Y852010I-224J447D01*
G01Y852349*
G03X892968Y852703I-500J0*
G01X891929Y851664*
G03X891786Y851364I354J-353*
X891485Y851221I53J-497*
G01X889799Y849534*
G03X889678Y849023I354J-353*
G01X886897Y851804D02*
G03X889678Y849023I-1385J-4166D01*
G01X886897Y851804D02*
G03X887408Y851925I158J475D01*
G01X890289Y854806*
G03X890435Y855159I-354J353*
G01Y857480*
X890931Y858676D02*
G03X890435Y857480I1195J-1196D01*
G01X890931Y858676D02*
X893293Y861038D01*
X894488Y861533D02*
G03X893293Y861038I0J-1690D01*
G01X894488Y861533D02*
X902140D01*
G03X902640Y862033I0J500*
G01Y867077*
G03X902624Y867201I-500J-0*
G01X902590Y867472D02*
G03X902624Y867201I1091J0D01*
G01X902590Y867472D02*
Y873472D01*
X903681Y874563D02*
G03X902590Y873472I-0J-1091D01*
G01X903681Y874563D02*
X904981D01*
X905615Y874360D02*
G03X904981Y874563I-634J-888D01*
G01X905615Y874360D02*
G03X906196I291J407D01*
G01X906830Y874563D02*
G03X906196Y874360I0J-1091D01*
G01X906830Y874563D02*
X908130D01*
X908764Y874360D02*
G03X908130Y874563I-634J-888D01*
G01X908764Y874360D02*
G03X909346I291J407D01*
G01X909980Y874563D02*
G03X909346Y874360I-0J-1091D01*
G01X909980Y874563D02*
X911280D01*
X911914Y874360D02*
G03X911280Y874563I-634J-888D01*
G01X911914Y874360D02*
G03X912495I291J407D01*
G01X913130Y874563D02*
G03X912495Y874360I-0J-1091D01*
G01X913130Y874563D02*
X914430D01*
X915064Y874360D02*
G03X914430Y874563I-634J-888D01*
G01X915064Y874360D02*
G03X915645I290J407D01*
G01X916279Y874563D02*
G03X915645Y874360I0J-1091D01*
G01X916279Y874563D02*
X917579D01*
X918213Y874360D02*
G03X917579Y874563I-634J-888D01*
G01X918213Y874360D02*
G03X918795I291J407D01*
G01X919429Y874563D02*
G03X918795Y874360I-0J-1091D01*
G01X919429Y874563D02*
X920729D01*
X921363Y874360D02*
G03X920729Y874563I-634J-888D01*
G01X921363Y874360D02*
G03X921944I291J407D01*
G01X922578Y874563D02*
G03X921944Y874360I0J-1091D01*
G01X922578Y874563D02*
X923878D01*
X924512Y874360D02*
G03X923878Y874563I-634J-888D01*
G01X924512Y874360D02*
G03X925094I291J407D01*
G01X925728Y874563D02*
G03X925094Y874360I-0J-1091D01*
G01X925728Y874563D02*
X927028D01*
X928119Y873472D02*
G03X927028Y874563I-1091J0D01*
G01X928119Y873472D02*
Y870301D01*
G03X928619Y869801I500J-0*
G01X962465*
G03X962915Y870084I-0J500*
G01X963736Y870689D02*
G03X962915Y870084I162J-1079D01*
G01X963736Y870689D02*
G03X963947Y871594I-74J494D01*
G01X963377Y875100D02*
G03X963947Y871594I1977J-1478D01*
G01X963377Y875100D02*
G03X963476Y875399I-401J299D01*
G01Y877543*
G03X962979Y878043I-500J0*
G01X961825Y878366D02*
G03X962979Y878043I1167J1949D01*
G01X961825Y878366D02*
G03X961568Y878437I-257J-429D01*
G01X960347*
G03X959864Y877807I-0J-500*
G01X955814Y875344D02*
G03X959864Y877807I1666J1821D01*
G01X955814Y875344D02*
G03X955477Y875475I-337J-369D01*
G01X936467*
G03X936342Y875459I-0J-500*
G01X936071Y875425D02*
G03X936342Y875459I-0J1090D01*
G01X936071Y875425D02*
X930071D01*
X928980Y876515D02*
G03X930071Y875425I1091J0D01*
G01X928980Y876515D02*
Y877815D01*
X929184Y878449D02*
G03X928980Y877815I887J-634D01*
G01X929184Y878449D02*
G03Y879031I-407J291D01*
G01X928980Y879665D02*
G03X929184Y879031I1091J-0D01*
G01X928980Y879665D02*
Y880965D01*
X929184Y881599D02*
G03X928980Y880965I887J-634D01*
G01X929184Y881599D02*
G03Y882180I-407J291D01*
G01X928980Y882815D02*
G03X929184Y882180I1091J-0D01*
G01X928980Y882815D02*
Y884115D01*
X929184Y884749D02*
G03X928980Y884115I887J-634D01*
G01X929184Y884749D02*
G03Y885330I-407J290D01*
G01X928980Y885964D02*
G03X929184Y885330I1091J0D01*
G01X928980Y885964D02*
Y887264D01*
X929184Y887898D02*
G03X928980Y887264I887J-634D01*
G01X929184Y887898D02*
G03Y888480I-407J291D01*
G01X928980Y889114D02*
G03X929184Y888480I1091J-0D01*
G01X928980Y889114D02*
Y890414D01*
X929184Y891048D02*
G03X928980Y890414I887J-634D01*
G01X929184Y891048D02*
G03Y891629I-407J291D01*
G01X928980Y892263D02*
G03X929184Y891629I1091J0D01*
G01X928980Y892263D02*
Y893563D01*
X929184Y894197D02*
G03X928980Y893563I887J-634D01*
G01X929184Y894197D02*
G03Y894779I-407J291D01*
G01X928980Y895413D02*
G03X929184Y894779I1091J-0D01*
G01X928980Y895413D02*
Y896713D01*
X929184Y897347D02*
G03X928980Y896713I887J-634D01*
G01X929184Y897347D02*
G03Y897929I-407J291D01*
G01X928980Y898563D02*
G03X929184Y897929I1091J-0D01*
G01X928980Y898563D02*
Y899863D01*
X930071Y900953D02*
G03X928980Y899863I-0J-1090D01*
G01X930071Y900953D02*
X936071D01*
X936342Y900919D02*
G03X936071Y900953I-271J-1056D01*
G01X936342Y900919D02*
G03X936467Y900903I125J484D01*
G01X939644*
G03X939997Y901050I-0J500*
G01X942270Y903322*
G03X942416Y903653I-354J354*
G01X946606Y905310D02*
G03X942416Y903653I-1724J-1767D01*
G01X946606Y905310D02*
G03X947402Y905442I350J357D01*
G01X951428Y902665D02*
G03X947402Y905442I-1822J1666D01*
G01X951428Y902665D02*
G03X951297Y902327I369J-338D01*
G01Y900000*
X951294Y899906D02*
G03X951297Y900000I-1688J94D01*
G01X951294Y899906D02*
G03X951872Y899384I499J-28D01*
G01X952043Y899398D02*
G03X951872Y899384I0J-1091D01*
G01X952043Y899398D02*
X955043D01*
X956134Y898307D02*
G03X955043Y899398I-1091J0D01*
G01X956134Y898307D02*
Y894507D01*
X955759Y893684D02*
G03X956134Y894507I-716J823D01*
G01X955759Y893684D02*
G03Y892930I328J-377D01*
G01X956134Y892107D02*
G03X955759Y892930I-1091J0D01*
G01X956134Y892107D02*
Y888307D01*
X955130Y887220D02*
G03X956134Y888307I-87J1087D01*
G01X955130Y887220D02*
G03X954799Y887056I40J-498D01*
G01X954739Y886994D02*
G03X954798Y887056I-1196J1195D01*
G01X954739Y886994D02*
X953164Y885419D01*
X951969Y884924D02*
G03X953164Y885419I-0J1690D01*
G01X951969Y884924D02*
X937631D01*
G03X937141Y884326I0J-500*
G01X937161Y884115D02*
G03X937141Y884326I-1090J-0D01*
G01X937161Y884115D02*
Y882815D01*
X937158Y882731D02*
G03X937161Y882815I-1087J84D01*
G01X937158Y882731D02*
G03X937657Y882193I499J-38D01*
G01X961450*
G03X961804Y882339I0J500*
G01X963330Y883865*
G03X963476Y884219I-354J354*
G01Y886614*
Y908386*
G03X963443Y908565I-500J-0*
G01X964037Y911228D02*
G03X963443Y908565I1711J-1779D01*
G01X964037Y911228D02*
G03X963691Y912089I-346J361D01*
G01X943587*
G03X943142Y911361I0J-500*
G01X941055Y907770D02*
G03X943142Y911361I-110J2466D01*
G01X941055Y907770D02*
G03X940724Y907624I22J-499D01*
G01X937810Y904710*
X936614Y904215D02*
G03X937810Y904710I0J1691D01*
G01X936614Y904215D02*
X928619D01*
G03X928119Y903715I-0J-500*
G01Y902906*
X927028Y901815D02*
G03X928119Y902906I-0J1091D01*
G01X927028Y901815D02*
X925728D01*
X925094Y902018D02*
G03X925728Y901815I634J888D01*
G01X925094Y902018D02*
G03X924512I-291J-407D01*
G01X923878Y901815D02*
G03X924512Y902018I0J1091D01*
G01X923878Y901815D02*
X922578D01*
X921944Y902018D02*
G03X922578Y901815I634J888D01*
G01X921944Y902018D02*
G03X921363I-290J-407D01*
G01X920729Y901815D02*
G03X921363Y902018I-0J1091D01*
G01X920729Y901815D02*
X919429D01*
X918795Y902018D02*
G03X919429Y901815I634J888D01*
G01X918795Y902018D02*
G03X918213I-291J-407D01*
G01X917579Y901815D02*
G03X918213Y902018I0J1091D01*
G01X917579Y901815D02*
X916279D01*
X915645Y902018D02*
G03X916279Y901815I634J888D01*
G01X915645Y902018D02*
G03X915064I-291J-407D01*
G01X914430Y901815D02*
G03X915064Y902018I-0J1091D01*
G01X914430Y901815D02*
X913130D01*
X912495Y902018D02*
G03X913130Y901815I635J888D01*
G01X912495Y902018D02*
G03X911914I-290J-407D01*
G01X911280Y901815D02*
G03X911914Y902018I-0J1091D01*
G01X911280Y901815D02*
X909980D01*
X909346Y902018D02*
G03X909980Y901815I634J888D01*
G01X909346Y902018D02*
G03X908764I-291J-407D01*
G01X908130Y901815D02*
G03X908764Y902018I0J1091D01*
G01X908130Y901815D02*
X906830D01*
X906196Y902018D02*
G03X906830Y901815I634J888D01*
G01X906196Y902018D02*
G03X905615I-290J-407D01*
G01X904981Y901815D02*
G03X905615Y902018I-0J1091D01*
G01X904981Y901815D02*
X903681D01*
X902590Y902906D02*
G03X903681Y901815I1091J-0D01*
G01X902590Y902906D02*
Y906077D01*
G03X902090Y906577I-500J0*
G01X894523*
G03X894186Y906446I0J-500*
G01X891722Y905932D02*
G03X894186Y906446I798J2336D01*
G01X891722Y905932D02*
G03X891061Y905458I-161J-474D01*
G01Y901403*
G03X891561Y900903I500J0*
G01X894242*
G03X894367Y900919I0J500*
G01X894638Y900953D02*
G03X894367Y900919I-0J-1090D01*
G01X894638Y900953D02*
X900638D01*
X901728Y899863D02*
G03X900638Y900953I-1090J-0D01*
G01X901728Y899863D02*
Y898563D01*
X901525Y897929D02*
G03X901728Y898563I-887J634D01*
G01X901525Y897929D02*
G03Y897347I407J-291D01*
G01X901728Y896713D02*
G03X901525Y897347I-1090J-0D01*
G01X901728Y896713D02*
Y895413D01*
X901525Y894779D02*
G03X901728Y895413I-887J634D01*
G01X901525Y894779D02*
G03Y894197I407J-291D01*
G01X901728Y893563D02*
G03X901525Y894197I-1090J0D01*
G01X901728Y893563D02*
Y892263D01*
X901525Y891629D02*
G03X901728Y892263I-887J634D01*
G01X901525Y891629D02*
G03Y891048I407J-290D01*
G01X901728Y890414D02*
G03X901525Y891048I-1090J-0D01*
G01X901728Y890414D02*
Y889114D01*
X901525Y888480D02*
G03X901728Y889114I-887J634D01*
G01X901525Y888480D02*
G03Y887898I407J-291D01*
G01X901728Y887264D02*
G03X901525Y887898I-1090J0D01*
G01X901728Y887264D02*
Y885964D01*
X901525Y885330D02*
G03X901728Y885964I-887J634D01*
G01X901525Y885330D02*
G03Y884749I407J-291D01*
G01X901728Y884115D02*
G03X901525Y884749I-1090J-0D01*
G01X901728Y884115D02*
Y882815D01*
X901525Y882180D02*
G03X901728Y882815I-887J635D01*
G01X901525Y882180D02*
G03Y881599I407J-290D01*
G01X901728Y880965D02*
G03X901525Y881599I-1090J-0D01*
G01X901728Y880965D02*
Y879665D01*
X901525Y879031D02*
G03X901728Y879665I-887J634D01*
G01X901525Y879031D02*
G03Y878449I407J-291D01*
G01X901728Y877815D02*
G03X901525Y878449I-1090J0D01*
G01X901728Y877815D02*
Y876515D01*
X900638Y875425D02*
G03X901728Y876515I-0J1090D01*
G01X900638Y875425D02*
X894638D01*
X894367Y875459D02*
G03X894638Y875425I271J1056D01*
G01X894367Y875459D02*
G03X894242Y875475I-125J-484D01*
G01X893167*
G03X892727Y875211I0J-500*
G01X888273Y875428D02*
G03X892727Y875211I2278J950D01*
G01X888273Y875428D02*
G03X887311Y875236I-462J-192D01*
G01Y859055*
X886646Y857449D02*
G03X887311Y859055I-1607J1606D01*
G01X886646Y857449D02*
X883890Y854693D01*
X882283Y854028D02*
G03X883890Y854693I0J2271D01*
G01X882283Y854028D02*
X868471D01*
G03X868117Y853881I-0J-500*
G01X867930Y853694*
G03X867783Y853340I353J-354*
G01Y851667*
G03X868000Y851255I500J0*
G01X863024D02*
G03X868000I2488J-3617D01*
G01X863024D02*
G03X863240Y851667I-284J412D01*
G01Y853528*
G03X862740Y854028I-500J-0*
G01X857890*
G03X857390Y853528I-0J-500*
G01Y848425*
Y837795*
Y811778*
G03X857536Y811424I500J-0*
G01X858669Y810292*
G03X859022Y810146I353J354*
G01X874409*
X876016Y809480D02*
G03X874409Y810146I-1607J-1606D01*
G01X876016Y809480D02*
X877197Y808299D01*
X877862Y806693D02*
G03X877197Y808299I-2271J-0D01*
G01X877862Y806693D02*
Y802468D01*
G03X878104Y802040I500J-0*
G01X878363Y801822D02*
G03X878104Y802040I-823J-716D01*
G01X878363Y801822D02*
G03X879117I377J328D01*
G01X879940Y802197D02*
G03X879117Y801822I0J-1091D01*
G01X879940Y802197D02*
X883740D01*
X884831Y801106D02*
G03X883740Y802197I-1091J0D01*
G01X884831Y801106D02*
Y798106D01*
X883740Y797016D02*
G03X884831Y798106I0J1090D01*
G01X883740Y797016D02*
X879940D01*
X879117Y797390D02*
G03X879940Y797016I823J716D01*
G01X879117Y797390D02*
G03X878363I-377J-328D01*
G01X877540Y797016D02*
G03X878363Y797390I0J1090D01*
G01X877540Y797016D02*
X873740D01*
X872650Y798106D02*
G03X873740Y797016I1090J0D01*
G01X872650Y798106D02*
Y801106D01*
X873108Y801995D02*
G03X872650Y801106I632J-889D01*
G01X873108Y801995D02*
G03X873319Y802403I-289J408D01*
G01Y805102*
G03X872819Y805602I-500J0*
G01X857874*
X856927Y805809D02*
G03X857874Y805602I947J2065D01*
G01X856927Y805809D02*
G03X856218Y805355I-209J-454D01*
G01Y803587*
G03X856477Y803149I500J-0*
G01X852578D02*
G03X856477I1950J-3543D01*
G01X852578D02*
G03X852837Y803587I-241J438D01*
G01Y804604*
G03X852691Y804958I-500J0*
G01X850773Y806875*
X850278Y808071D02*
G03X850773Y806875I1691J-0D01*
G01X850278Y808071D02*
Y826652D01*
G03X850131Y827005I-500J-0*
G01X849840Y827297*
G03X849486Y827443I-354J-354*
G01X840455*
G03X839967Y827050I0J-500*
G01X838902Y826193D02*
G03X839967Y827050I-0J1090D01*
G01X838902Y826193D02*
X835902D01*
X834811Y827283D02*
G03X835902Y826193I1091J0D01*
G01X834811Y827283D02*
Y831083D01*
X835186Y831906D02*
G03X834811Y831083I716J-823D01*
G01X835186Y831906D02*
G03Y832661I-328J377D01*
G01X834811Y833483D02*
G03X835186Y832661I1091J0D01*
G01X834811Y833483D02*
Y837283D01*
X835902Y838374D02*
G03X834811Y837283I-0J-1091D01*
G01X835902Y838374D02*
X838902D01*
X839791Y837915D02*
G03X838902Y838374I-889J-632D01*
G01X839791Y837915D02*
G03X840198Y837705I407J290D01*
G01X851608*
G03X851961Y837851I-0J500*
G01X852700Y838590*
G03X852846Y838943I-354J353*
G01Y842530*
G03X852278Y843025I-500J-0*
G01X851969Y843004D02*
G03X852278Y843025I-0J2272D01*
G01X851969Y843004D02*
X834613D01*
G03X834259Y842857I-0J-500*
G01X832733Y841331*
G03X832587Y840978I354J-353*
G01Y825866*
G03X832620Y825687I500J0*
G01X828010D02*
G03X832620I2305J-884D01*
G01X828010D02*
G03X828043Y825866I-467J179D01*
G01Y842126*
X828709Y843732D02*
G03X828043Y842126I1606J-1606D01*
G01X828709Y843732D02*
X831858Y846882D01*
X833465Y847547D02*
G03X831858Y846882I-0J-2271D01*
G01X833465Y847547D02*
X850820D01*
G03X851174Y847694I0J500*
G01X852700Y849220*
G03X852846Y849573I-354J353*
G01Y854724*
X853512Y856331D02*
G03X852846Y854724I1606J-1607D01*
G01X853512Y856331D02*
X855087Y857906D01*
X856693Y858571D02*
G03X855087Y857906I-0J-2272D01*
G01X856693Y858571D02*
X867323D01*
X881135*
G03X881489Y858717I0J500*
G01X882621Y859850*
G03X882768Y860203I-353J353*
G01Y887008*
Y890092*
G03X882268Y890592I-500J0*
G01X881964*
G03X881546Y890366I0J-500*
G01X881350Y890141D02*
G03X881546Y890366I-716J823D01*
G01X881350Y890141D02*
G03Y889387I328J-377D01*
G01X881724Y888564D02*
G03X881350Y889387I-1090J-0D01*
G01X881724Y888564D02*
Y884764D01*
X880634Y883673D02*
G03X881724Y884764I-0J1091D01*
G01X880634Y883673D02*
X877634D01*
X876543Y884764D02*
G03X877634Y883673I1091J-0D01*
G01X876543Y884764D02*
Y888564D01*
X876918Y889387D02*
G03X876543Y888564I716J-823D01*
G01X876918Y889387D02*
G03Y890141I-328J377D01*
G01X876543Y890964D02*
G03X876918Y890141I1091J-0D01*
G01X876543Y890964D02*
Y894764D01*
X877634Y895854D02*
G03X876543Y894764I-0J-1090D01*
G01X877634Y895854D02*
X880634D01*
X881546Y895361D02*
G03X880634Y895854I-912J-597D01*
G01X881546Y895361D02*
G03X881964Y895135I418J274D01*
G01X882268*
G03X882768Y895635I-0J500*
G01Y916033*
G03X882736Y916208I-500J-0*
G01X882406Y917089*
G03X881937Y917413I-469J-176*
G01X861467*
X859861Y918079D02*
G03X861467Y917413I1606J1606D01*
G01X859861Y918079D02*
X858680Y919260D01*
X858014Y920866D02*
G03X858680Y919260I2272J0D01*
G01X858014Y920866D02*
Y923548D01*
X858014D02*
G03X857788Y923966I-500J-0D01*
G01X857295Y924878D02*
G03X857788Y923966I1091J-0D01*
G01X857295Y924878D02*
Y927878D01*
X857788Y928790D02*
G03X857295Y927878I598J-912D01*
G01X857788Y928790D02*
G03X858014Y929208I-274J418D01*
G01Y933039*
G03X857757Y933476I-500J0*
G01X857197Y934429D02*
G03X857757Y933476I1091J0D01*
G01X857197Y934429D02*
Y945571D01*
X858288Y946662D02*
G03X857197Y945571I-0J-1091D01*
G01X858288Y946662D02*
X862107D01*
X863197Y945571D02*
G03X862107Y946662I-1090J0D01*
G01X863197Y945571D02*
Y941552D01*
G03X863697Y941052I500J-0*
G01X868744*
G03X869244Y941552I0J500*
G01Y942382*
X870335Y943472D02*
G03X869244Y942382I-0J-1090D01*
G01X870335Y943472D02*
X875335D01*
X876425Y942382D02*
G03X875335Y943472I-1090J-0D01*
G01X876425Y942382D02*
Y941654D01*
G03X876925Y941154I500J-0*
G01X880299*
G03X880799Y941654I0J500*
G01Y943651*
G03X880699Y943951I-500J-0*
G01X880480Y944606D02*
G03X880699Y943951I1091J0D01*
G01X880480Y944606D02*
Y948406D01*
X880855Y949229D02*
G03X880480Y948406I716J-823D01*
G01X880855Y949229D02*
G03Y949984I-328J377D01*
G01X880480Y950806D02*
G03X880855Y949984I1091J0D01*
G01X880480Y950806D02*
Y954606D01*
X881571Y955697D02*
G03X880480Y954606I-0J-1091D01*
G01X881571Y955697D02*
X884571D01*
X885661Y954606D02*
G03X884571Y955697I-1090J0D01*
G01X885661Y954606D02*
Y950806D01*
X885287Y949984D02*
G03X885661Y950806I-716J822D01*
G01X885287Y949984D02*
G03Y949229I328J-378D01*
G01X885661Y948406D02*
G03X885287Y949229I-1090J0D01*
G01X885661Y948406D02*
Y944606D01*
X885443Y943951D02*
G03X885661Y944606I-872J655D01*
G01X885443Y943951D02*
G03X885343Y943651I400J-300D01*
G01Y940457*
X884677Y938850D02*
G03X885343Y940457I-1606J1607D01*
G01X884677Y938850D02*
X883102Y937276D01*
X881496Y936610D02*
G03X883102Y937276I0J2272D01*
G01X881496Y936610D02*
X876925D01*
G03X876425Y936110I0J-500*
G01Y935382*
X875335Y934291D02*
G03X876425Y935382I-0J1091D01*
G01X875335Y934291D02*
X870335D01*
X869244Y935382D02*
G03X870335Y934291I1091J-0D01*
G01X869244Y935382D02*
Y936008D01*
G03X868744Y936508I-500J0*
G01X863697*
G03X863197Y936008I0J-500*
G01Y934429*
X862759Y933555D02*
G03X863197Y934429I-652J874D01*
G01X862759Y933555D02*
G03X862558Y933154I299J-401D01*
G01X862558D02*
Y929208D01*
X862558D02*
G03X862783Y928790I500J0D01*
G01X863009Y928594D02*
G03X862783Y928790I-823J-716D01*
G01X863009Y928594D02*
G03X863763I377J328D01*
G01X864586Y928969D02*
G03X863763Y928594I-0J-1091D01*
G01X864586Y928969D02*
X868386D01*
X869368Y928351D02*
G03X868386Y928969I-982J-473D01*
G01X869368Y928351D02*
G03X869819Y928069I451J218D01*
G01X871520*
G03X871970Y928351I-0J500*
G01X872953Y928969D02*
G03X871970Y928351I-0J-1091D01*
G01X872953Y928969D02*
X876753D01*
X877576Y928594D02*
G03X876753Y928969I-823J-716D01*
G01X877576Y928594D02*
G03X878330I377J328D01*
G01X879153Y928969D02*
G03X878330Y928594I-0J-1091D01*
G01X879153Y928969D02*
X882953D01*
X884043Y927878D02*
G03X882953Y928969I-1090J-0D01*
G01X884043Y927878D02*
Y924878D01*
X882953Y923787D02*
G03X884043Y924878I-0J1091D01*
G01X882953Y923787D02*
X879153D01*
X878330Y924162D02*
G03X879153Y923787I823J716D01*
G01X878330Y924162D02*
G03X877576I-377J-328D01*
G01X876753Y923787D02*
G03X877576Y924162I-0J1091D01*
G01X876753Y923787D02*
X872953D01*
X871970Y924404D02*
G03X872953Y923787I983J474D01*
G01X871970Y924404D02*
G03X871520Y924687I-450J-217D01*
G01X869819*
G03X869368Y924404I-0J-500*
G01X868386Y923787D02*
G03X869368Y924404I-0J1091D01*
G01X868386Y923787D02*
X864586D01*
X863763Y924162D02*
G03X864586Y923787I823J716D01*
G01X863763Y924162D02*
G03X863009I-377J-328D01*
G01X862783Y923966D02*
G03X863009Y924162I-597J912D01*
G01X862783Y923966D02*
G03X862558Y923548I275J-418D01*
G01X862558D02*
Y922457D01*
X862558D02*
G03X863058Y921957I500J-0D01*
G01X863058D02*
X883858D01*
X921638*
G03X922138Y922457I-0J500*
G01Y929528*
X923228Y930618D02*
G03X922138Y929528I0J-1090D01*
G01X923228Y930618D02*
X928740D01*
X929831Y929528D02*
G03X928740Y930618I-1091J-0D01*
G01X929831Y929528D02*
Y922457D01*
G03X930331Y921957I500J-0*
G01X933449*
G03X933949Y922457I-0J500*
G01Y929528*
X935039Y930618D02*
G03X933949Y929528I0J-1090D01*
G01X935039Y930618D02*
X935605D01*
G03X936105Y931118I-0J500*
G01Y931274*
G03X935605Y931774I-500J-0*
G01X915783*
G03X915445Y931643I-0J-500*
G01Y935286D02*
G03Y931643I-1665J-1821D01*
G01Y935286D02*
G03X915783Y935155I338J369D01*
G01X936614*
X937810Y934660D02*
G03X936614Y935155I-1196J-1195D01*
G01X937810Y934660D02*
X938991Y933479D01*
X939486Y932283D02*
G03X938991Y933479I-1691J0D01*
G01X939486Y932283D02*
Y931118D01*
G03X939986Y930618I500J0*
G01X940551*
X941642Y929528D02*
G03X940551Y930618I-1091J-0D01*
G01X941642Y929528D02*
Y928224D01*
G03X942142Y927724I500J0*
G01X946149*
G03X946640Y928133I-0J500*
G01X946997Y928757D02*
G03X946640Y928133I716J-823D01*
G01X946997Y928757D02*
G03Y929511I-328J377D01*
G01X946622Y930334D02*
G03X946997Y929511I1091J-0D01*
G01X946622Y930334D02*
Y934134D01*
X946841Y934789D02*
G03X946622Y934134I872J-655D01*
G01X946841Y934789D02*
G03X946941Y935089I-400J300D01*
G01Y968537*
G03X946794Y968891I-500J-0*
G01X946056Y969629*
G03X945702Y969776I-354J-353*
G01X933874*
G03X933374Y969276I0J-500*
G01Y969094*
X932283Y968004D02*
G03X933374Y969094I0J1090D01*
G01X932283Y968004D02*
X926378D01*
X925287Y969094D02*
G03X926378Y968004I1091J0D01*
G01X925287Y969094D02*
Y975000D01*
X926378Y976091D02*
G03X925287Y975000I-0J-1091D01*
G01X926378Y976091D02*
X932283D01*
X933374Y975000D02*
G03X932283Y976091I-1091J0D01*
G01X933374Y975000D02*
Y974819D01*
G03X933874Y974319I500J-0*
G01X946850*
X948457Y973654D02*
G03X946850Y974319I-1607J-1607D01*
G01X948457Y973654D02*
X950819Y971291D01*
X951484Y969685D02*
G03X950819Y971291I-2271J0D01*
G01X951484Y969685D02*
Y935089D01*
G03X951585Y934789I500J0*
G01X951602Y934766D02*
G03X951585Y934789I-889J-632D01*
G01X951602Y934766D02*
G03X952009Y934555I407J289D01*
G01X968379*
G03X968733Y934702I0J500*
G01X969472Y935440*
G03X969618Y935794I-354J354*
G01Y948819*
Y955002*
G03X969420Y955401I-500J0*
G01Y961922D02*
G03Y955401I2470J-3261D01*
G01Y961922D02*
G03X969618Y962321I-302J399D01*
G01Y965238*
G03X969420Y965637I-500J0*
G01Y972158D02*
G03Y965637I2470J-3260D01*
G01Y972158D02*
G03X969618Y972557I-302J399D01*
G01Y975474*
G03X969420Y975873I-500J0*
G01X971135Y983154D02*
G03X969420Y975873I755J-4020D01*
G01X971135Y983154D02*
G03X971043Y984146I-92J492D01*
G01X962736*
G03X962644Y983154I0J-500*
G01X961135D02*
G03X962644I755J-4020D01*
G01X961135D02*
G03X961043Y984146I-92J492D01*
G01X788795*
G03X788295Y983646I0J-500*
G01Y788795*
G03X788795Y788295I500J0*
G01X1062386*
G03X1062886Y788795I-0J500*
G01X951327Y892930D02*
G03Y893684I-328J377D01*
G01X950953Y894507D02*
G03X951327Y893684I1090J0D01*
G01X950953Y894507D02*
Y897748D01*
X950953D02*
G03X950099Y898102I-500J0D01*
G01X946865Y894868*
X945669Y894372D02*
G03X946865Y894868I0J1691D01*
G01X945669Y894372D02*
X937631D01*
G03X937141Y893775I0J-500*
G01X937161Y893563D02*
G03X937141Y893775I-1090J0D01*
G01X937161Y893563D02*
Y892263D01*
X936958Y891629D02*
G03X937161Y892263I-887J634D01*
G01X936958Y891629D02*
G03Y891048I407J-290D01*
G01X937161Y890414D02*
G03X936958Y891048I-1090J-0D01*
G01X937161Y890414D02*
Y889114D01*
X937141Y888902D02*
G03X937161Y889114I-1070J212D01*
G01X937141Y888902D02*
G03X937631Y888305I490J-97D01*
G01X950453*
G03X950953Y888805I-0J500*
G01Y892107*
X951327Y892930D02*
G03X950953Y892107I716J-823D01*
G01X893568Y893775D02*
G03X893078Y894372I-490J97D01*
G01X890980*
G03X890642Y894241I-0J-500*
G01X888007Y893793D02*
G03X890642Y894241I969J2270D01*
G01X888007Y893793D02*
G03X887311Y893333I-196J-460D01*
G01Y892822*
G03X887534Y892406I500J-0*
G01X888554Y891726*
G03X888831Y891642I277J416*
G01X893052*
G03X893550Y892180I-0J500*
G01X893547Y892263D02*
G03X893550Y892180I1091J0D01*
G01X893547Y892263D02*
Y893563D01*
X893568Y893775D02*
G03X893547Y893563I1070J-212D01*
G01X1056996Y836024D02*
Y830118D01*
X1055906Y829028D02*
G03X1056996Y830118I-0J1090D01*
G01X1055906Y829028D02*
X1050000D01*
X1048909Y830118D02*
G03X1050000Y829028I1091J0D01*
G01X1048909Y830118D02*
Y834516D01*
G03X1048763Y834870I-500J0*
G01X1032742Y850891*
X1032246Y852087D02*
G03X1032742Y850891I1691J-0D01*
G01X1032246Y852087D02*
Y862108D01*
G03X1031985Y862547I-500J-0*
G01X1035889D02*
G03X1031985I-1952J3595D01*
G01X1035889D02*
G03X1035628Y862108I239J-439D01*
G01Y852994*
G03X1035774Y852640I500J-0*
G01X1051154Y837261*
G03X1051507Y837114I353J353*
G01X1055906*
X1056996Y836024D02*
G03X1055906Y837114I-1090J-0D01*
G01X1058028Y866142D02*
G03X1058028I-4091J0D01*
G01X1048028D02*
G03X1048028I-4091J0D01*
G01Y946142D02*
G03X1048028I-4091J0D01*
G01X978343Y894252D02*
G03X978343I-4091J0D01*
G01Y904252D02*
G03X978343I-4091J0D01*
G01X979043Y800000D02*
G03X979043I-4043J0D01*
G01X969201Y802953D02*
Y797047D01*
X968110Y795957D02*
G03X969201Y797047I0J1090D01*
G01X968110Y795957D02*
X962205D01*
X961114Y797047D02*
G03X962205Y795957I1091J0D01*
G01X961114Y797047D02*
Y802953D01*
X962205Y804043D02*
G03X961114Y802953I-0J-1090D01*
G01X962205Y804043D02*
X968110D01*
X969201Y802953D02*
G03X968110Y804043I-1091J-0D01*
G01X959902Y817638D02*
G03X959902I-4390J0D01*
G01X965980Y958661D02*
G03X965980I-4090J0D01*
G01Y968898D02*
G03X965980I-4090J0D01*
G01X923532Y972047D02*
G03X923532I-4044J0D01*
G01X913689D02*
G03X913689I-4043J0D01*
G01X903846D02*
G03X903846I-4043J0D01*
G01X876425Y954382D02*
Y947382D01*
X875335Y946291D02*
G03X876425Y947382I-0J1091D01*
G01X875335Y946291D02*
X870335D01*
X869244Y947382D02*
G03X870335Y946291I1091J-0D01*
G01X869244Y947382D02*
Y954382D01*
X870335Y955472D02*
G03X869244Y954382I-0J-1090D01*
G01X870335Y955472D02*
X875335D01*
X876425Y954382D02*
G03X875335Y955472I-1090J-0D01*
G01X819398Y832283D02*
G03X819398I-2469J0D01*
G01X845191Y939548D02*
G03X845173Y940555I-3026J452D01*
G01X845191Y939548D02*
G03X845185Y939474I494J-74D01*
G01Y936811*
X845168Y936488D02*
G03X845185Y936811I-3042J323D01*
G01X845168Y936488D02*
G03X845165Y936435I497J-53D01*
G01Y934429*
X844075Y933339D02*
G03X845165Y934429I-0J1090D01*
G01X844075Y933339D02*
X843153D01*
G03X842843Y933231I-0J-500*
G01X840945Y932571D02*
G03X842843Y933231I-0J3059D01*
G01X840945Y932571D02*
X825197D01*
X816535*
X815354*
X813402*
G03X812902Y932071I-0J-500*
G01Y905906*
Y902953*
Y821553*
G03X813048Y821199I500J-0*
G01X813325Y820922*
G03X813679Y820776I354J354*
G01X832283*
X834447Y819880D02*
G03X832283Y820776I-2164J-2163D01*
G01X834447Y819880D02*
X837006Y817321D01*
X837902Y815157D02*
G03X837006Y817321I-3059J0D01*
G01X837902Y815157D02*
Y804030D01*
G03X838211Y803567I500J-0*
G01X838886Y802559D02*
G03X838211Y803567I-1091J0D01*
G01X838886Y802559D02*
Y796654D01*
X837795Y795563D02*
G03X838886Y796654I0J1091D01*
G01X837795Y795563D02*
X831890D01*
X830799Y796654D02*
G03X831890Y795563I1091J-0D01*
G01X830799Y796654D02*
Y802559D01*
X831474Y803567D02*
G03X830799Y802559I416J-1008D01*
G01X831474Y803567D02*
G03X831783Y804030I-191J463D01*
G01Y813683*
G03X831637Y814037I-500J0*
G01X831163Y814511*
G03X830809Y814657I-354J-354*
G01X812205*
X810042Y815553D02*
G03X812205Y814657I2163J2164D01*
G01X810042Y815553D02*
X807679Y817916D01*
X806783Y820079D02*
G03X807679Y817916I3060J-0D01*
G01X806783Y820079D02*
Y823661D01*
G03X805822Y823854I-500J0*
G01X802659Y822498D02*
G03X805822Y823854I884J2305D01*
G01X802659Y822498D02*
G03X802480Y822531I-179J-467D01*
G01X793701*
X792094Y823197D02*
G03X793701Y822531I1607J1606D01*
G01X792094Y823197D02*
X790520Y824772D01*
X789854Y826378D02*
G03X790520Y824772I2272J-0D01*
G01X789854Y826378D02*
Y873031D01*
X790520Y874638D02*
G03X789854Y873031I1606J-1607D01*
G01X790520Y874638D02*
X793276Y877394D01*
X794882Y878059D02*
G03X793276Y877394I-0J-2272D01*
G01X794882Y878059D02*
X795063D01*
G03X795563Y878559I-0J500*
G01Y878740*
X796654Y879831D02*
G03X795563Y878740I-0J-1091D01*
G01X796654Y879831D02*
X802559D01*
X803650Y878740D02*
G03X802559Y879831I-1091J0D01*
G01X803650Y878740D02*
Y872835D01*
X802559Y871744D02*
G03X803650Y872835I0J1091D01*
G01X802559Y871744D02*
X796654D01*
X795658Y872390D02*
G03X796654Y871744I996J445D01*
G01X795658Y872390D02*
G03X794847Y872540I-457J-203D01*
G01X794544Y872237*
G03X794398Y871883I354J-354*
G01Y827575*
G03X794898Y827075I500J-0*
G01X802480*
G03X802659Y827108I0J500*
G01X805822Y825753D02*
G03X802659Y827108I-2279J-950D01*
G01X805822Y825753D02*
G03X806783Y825945I461J192D01*
G01Y898213*
G03X806283Y898713I-500J-0*
G01X802430*
G03X802119Y898604I0J-500*
G01Y904939D02*
G03Y898604I-2513J-3167D01*
G01Y904939D02*
G03X802430Y904831I311J392D01*
G01X806283*
G03X806783Y905331I0J500*
G01Y905906*
Y932071*
G03X806283Y932571I-500J-0*
G01X802430*
G03X802119Y932463I0J-500*
G01Y938797D02*
G03Y932463I-2513J-3167D01*
G01Y938797D02*
G03X802430Y938689I311J392D01*
G01X807874*
X815061*
G03X815415Y938835I0J500*
G01X815692Y939113*
G03X815839Y939466I-353J353*
G01Y946113*
X816241Y947630D02*
G03X815839Y946113I2657J-1517D01*
G01X816241Y947630D02*
G03X816307Y947878I-434J248D01*
G01Y948013*
X816682Y948835D02*
G03X816307Y948013I716J-822D01*
G01X816682Y948835D02*
G03Y949590I-328J378D01*
G01X816307Y950413D02*
G03X816682Y949590I1091J-0D01*
G01X816307Y950413D02*
Y954213D01*
X817398Y955303D02*
G03X816307Y954213I-0J-1090D01*
G01X817398Y955303D02*
X820398D01*
X821488Y954213D02*
G03X820398Y955303I-1090J-0D01*
G01X821488Y954213D02*
Y950413D01*
X821113Y949590D02*
G03X821488Y950413I-715J823D01*
G01X821113Y949590D02*
G03Y948835I329J-377D01*
G01X821488Y948013D02*
G03X821113Y948835I-1090J-0D01*
G01X821488Y948013D02*
Y947878D01*
G03X821554Y947630I500J-0*
G01X821957Y946113D02*
G03X821554Y947630I-3059J-0D01*
G01X821957Y946113D02*
Y939189D01*
G03X822457Y938689I500J-0*
G01X825043*
G03X825543Y939189I0J500*
G01Y942382*
X826634Y943472D02*
G03X825543Y942382I-0J-1090D01*
G01X826634Y943472D02*
X831634D01*
X832724Y942382D02*
G03X831634Y943472I-1090J-0D01*
G01X832724Y942382D02*
Y939189D01*
G03X833224Y938689I500J-0*
G01X838567*
G03X839067Y939189I-0J500*
G01Y939961*
X839151Y940674D02*
G03X839067Y939961I2975J-713D01*
G01X839151Y940674D02*
G03X839165Y940791I-486J117D01*
G01Y945571*
X840256Y946662D02*
G03X839165Y945571I-0J-1091D01*
G01X840256Y946662D02*
X844075D01*
X845165Y945571D02*
G03X844075Y946662I-1090J0D01*
G01X845165Y945571D02*
Y940646D01*
G03X845173Y940555I500J-0*
G01X863354Y978169D02*
Y954193D01*
X862264Y953103D02*
G03X863354Y954193I-0J1090D01*
G01X862264Y953103D02*
X840099D01*
X839008Y954193D02*
G03X840099Y953103I1091J0D01*
G01X839008Y954193D02*
Y978169D01*
X840099Y979260D02*
G03X839008Y978169I-0J-1091D01*
G01X840099Y979260D02*
X862264D01*
X863354Y978169D02*
G03X862264Y979260I-1090J0D01*
G01X832724Y954382D02*
Y947382D01*
X831634Y946291D02*
G03X832724Y947382I-0J1091D01*
G01X831634Y946291D02*
X826634D01*
X825543Y947382D02*
G03X826634Y946291I1091J-0D01*
G01X825543Y947382D02*
Y954382D01*
X826634Y955472D02*
G03X825543Y954382I-0J-1090D01*
G01X826634Y955472D02*
X831634D01*
X832724Y954382D02*
G03X831634Y955472I-1090J-0D01*
G01X803650Y948425D02*
Y942520D01*
X802559Y941429D02*
G03X803650Y942520I0J1091D01*
G01X802559Y941429D02*
X796654D01*
X795563Y942520D02*
G03X796654Y941429I1091J-0D01*
G01X795563Y942520D02*
Y948425D01*
X796654Y949516D02*
G03X795563Y948425I-0J-1091D01*
G01X796654Y949516D02*
X802559D01*
X803650Y948425D02*
G03X802559Y949516I-1091J0D01*
G01X803650Y836417D02*
G03X803650I-4044J0D01*
G01Y846260D02*
G03X803650I-4044J0D01*
G01Y856102D02*
G03X803650I-4044J0D01*
G01Y865945D02*
G03X803650I-4044J0D01*
G01Y914567D02*
Y908661D01*
X802559Y907571D02*
G03X803650Y908661I0J1090D01*
G01X802559Y907571D02*
X796654D01*
X795563Y908661D02*
G03X796654Y907571I1091J0D01*
G01X795563Y908661D02*
Y914567D01*
X796654Y915658D02*
G03X795563Y914567I-0J-1091D01*
G01X796654Y915658D02*
X802559D01*
X803650Y914567D02*
G03X802559Y915658I-1091J-0D01*
G01X848728Y799606D02*
G03X848728I-4043J0D01*
G01X870428Y877991D02*
G03X873081Y881981I832J2324D01*
G01X870428Y877991D02*
G03X869765Y877593I-168J-471D01*
G01X865657Y876131D02*
G03X869765Y877593I1666J1822D01*
G01X865657Y876131D02*
G03X865319Y876262I-338J-369D01*
G01X864096*
G03X863602Y875838I-0J-500*
G01X863239Y875180D02*
G03X863602Y875838I-715J823D01*
G01X863239Y875180D02*
G03Y874426I329J-377D01*
G01X863614Y873603D02*
G03X863239Y874426I-1090J0D01*
G01X863614Y873603D02*
Y869803D01*
X862524Y868713D02*
G03X863614Y869803I-0J1090D01*
G01X862524Y868713D02*
X859524D01*
X858433Y869803D02*
G03X859524Y868713I1091J0D01*
G01X858433Y869803D02*
Y873603D01*
X858808Y874426D02*
G03X858433Y873603I716J-823D01*
G01X858808Y874426D02*
G03Y875180I-328J377D01*
G01X858446Y875838D02*
G03X858808Y875180I1078J165D01*
G01X858446Y875838D02*
G03X857951Y876262I-495J-76D01*
G01X846970*
G03X846617Y876116I0J-500*
G01X846067Y875566*
G03X846421Y874713I354J-353*
G01X847638*
X848728Y873622D02*
G03X847638Y874713I-1090J0D01*
G01X848728Y873622D02*
Y851968D01*
X847638Y850877D02*
G03X848728Y851968I-0J1091D01*
G01X847638Y850877D02*
X839764D01*
X838673Y851968D02*
G03X839764Y850877I1091J0D01*
G01X838673Y851968D02*
Y873622D01*
X839764Y874713D02*
G03X838673Y873622I-0J-1091D01*
G01X839764Y874713D02*
X841510D01*
G03X842010Y875213I0J500*
G01Y875591*
X842505Y876786D02*
G03X842010Y875591I1196J-1195D01*
G01X842505Y876786D02*
X844868Y879148D01*
X846063Y879643D02*
G03X844868Y879148I-0J-1690D01*
G01X846063Y879643D02*
X857970D01*
G03X858458Y880036I-0J500*
G01X859524Y880894D02*
G03X858458Y880036I-0J-1091D01*
G01X859524Y880894D02*
X862524D01*
X863589Y880036D02*
G03X862524Y880894I-1065J-233D01*
G01X863589Y880036D02*
G03X864077Y879643I488J107D01*
G01X865319*
G03X865657Y879774I0J500*
G01X868155Y880277D02*
G03X865657Y879774I-832J-2324D01*
G01X868155Y880277D02*
G03X868818Y880675I168J471D01*
G01X869438Y881981D02*
G03X868818Y880675I1822J-1666D01*
G01X869438Y881981D02*
G03X869569Y882318I-369J337D01*
G01Y882951*
G03X869423Y883304I-500J-0*
G01X868738Y883990*
G03X868384Y884136I-354J-354*
G01X864077*
G03X863589Y883743I0J-500*
G01X862524Y882886D02*
G03X863589Y883743I-0J1090D01*
G01X862524Y882886D02*
X859524D01*
X858451Y883777D02*
G03X859524Y882886I1073J199D01*
G01X858451Y883777D02*
G03X857960Y884186I-491J-91D01*
G01X845669*
X844474Y884681D02*
G03X845669Y884186I1195J1195D01*
G01X844474Y884681D02*
X842505Y886649D01*
X842011Y887794D02*
G03X842505Y886649I1690J51D01*
G01X842011Y887794D02*
G03X841511Y888279I-500J-15D01*
G01X839764*
X838673Y889370D02*
G03X839764Y888279I1091J0D01*
G01X838673Y889370D02*
Y911024D01*
X839764Y912115D02*
G03X838673Y911024I-0J-1091D01*
G01X839764Y912115D02*
X847638D01*
X848728Y911024D02*
G03X847638Y912115I-1090J0D01*
G01X848728Y911024D02*
Y889370D01*
X848263Y888477D02*
G03X848728Y889370I-625J893D01*
G01X848263Y888477D02*
G03X848550Y887567I287J-410D01*
G01X857960*
G03X858451Y887976I-0J500*
G01X858808Y888599D02*
G03X858451Y887976I716J-823D01*
G01X858808Y888599D02*
G03Y889354I-328J377D01*
G01X858433Y890176D02*
G03X858808Y889354I1091J0D01*
G01X858433Y890176D02*
Y893976D01*
X859524Y895067D02*
G03X858433Y893976I-0J-1091D01*
G01X859524Y895067D02*
X862524D01*
X863614Y893976D02*
G03X862524Y895067I-1090J0D01*
G01X863614Y893976D02*
Y890176D01*
X863239Y889354D02*
G03X863614Y890176I-715J822D01*
G01X863239Y889354D02*
G03Y888599I329J-378D01*
G01X863602Y887942D02*
G03X863239Y888599I-1078J-166D01*
G01X863602Y887942D02*
G03X864096Y887517I494J75D01*
G01X869291*
X870487Y887022D02*
G03X869291Y887517I-1196J-1195D01*
G01X870487Y887022D02*
X872455Y885054D01*
X872950Y883858D02*
G03X872455Y885054I-1690J0D01*
G01X872950Y883858D02*
Y882318D01*
G03X873081Y881981I500J0*
G01X881586Y815671D02*
G03Y819604I3926J1967D01*
G01Y815671D02*
G03X881139Y815947I-447J-224D01*
G01X879884*
G03X879437Y815671I0J-500*
G01X872214Y820537D02*
G03X879437Y815671I3298J-2899D01*
G01X872214Y820537D02*
G03X872336Y820814I-375J330D01*
X872613Y820935I-53J497*
G01X879437Y819604D02*
G03X872613Y820935I-3925J-1966D01*
G01X879437Y819604D02*
G03X879884Y819328I447J224D01*
G01X881139*
G03X881586Y819604I0J500*
G01X877478Y843712D02*
G03X873545I-1966J3926D01*
G01X877478D02*
G03X877202Y843265I224J-447D01*
G01Y827638*
X876707Y826442D02*
G03X877202Y827638I-1195J1196D01*
G01X876707Y826442D02*
X871929Y821664D01*
G03X871786Y821364I354J-353*
X871485Y821221I53J-497*
G01X870049Y819784*
G03X869902Y819430I353J-354*
G01Y814338*
X868812Y813247D02*
G03X869902Y814338I-0J1091D01*
G01X868812Y813247D02*
X862212D01*
X861121Y814338D02*
G03X862212Y813247I1091J-0D01*
G01X861121Y814338D02*
Y820938D01*
X862212Y822028D02*
G03X861121Y820938I-0J-1090D01*
G01X862212Y822028D02*
X867304D01*
G03X867658Y822175I0J500*
G01X873675Y828192*
G03X873821Y828545I-354J353*
G01Y843265*
G03X873545Y843712I-500J0*
G01X909902Y817638D02*
G03X909902I-4390J0D01*
G01Y847638D02*
G03X909902I-4390J0D01*
G01X899902Y817638D02*
G03X899902I-4390J0D01*
G01X919902D02*
G03X919902I-4390J0D01*
G01Y847638D02*
G03X919902I-4390J0D01*
G01X929902Y817638D02*
G03X929902I-4390J0D01*
G01X939902D02*
G03X939902I-4390J0D01*
G01X941642Y953150D02*
Y946063D01*
X940551Y944972D02*
G03X941642Y946063I0J1091D01*
G01X940551Y944972D02*
X935039D01*
X933949Y946063D02*
G03X935039Y944972I1090J-0D01*
G01X933949Y946063D02*
Y953150D01*
X935039Y954240D02*
G03X933949Y953150I0J-1090D01*
G01X935039Y954240D02*
X940551D01*
X941642Y953150D02*
G03X940551Y954240I-1091J-0D01*
G01X929831Y953150D02*
Y946063D01*
X928740Y944972D02*
G03X929831Y946063I0J1091D01*
G01X928740Y944972D02*
X923228D01*
X922138Y946063D02*
G03X923228Y944972I1090J-0D01*
G01X922138Y946063D02*
Y953150D01*
X923228Y954240D02*
G03X922138Y953150I0J-1090D01*
G01X923228Y954240D02*
X928740D01*
X929831Y953150D02*
G03X928740Y954240I-1091J-0D01*
G01X949902Y817638D02*
G03X949902I-4390J0D01*
G01X1028028Y946142D02*
G03X1028028I-4091J0D01*
G01X985980Y961661D02*
Y955661D01*
X984890Y954571D02*
G03X985980Y955661I-0J1090D01*
G01X984890Y954571D02*
X978890D01*
X977799Y955661D02*
G03X978890Y954571I1091J0D01*
G01X977799Y955661D02*
Y961661D01*
X978890Y962752D02*
G03X977799Y961661I-0J-1091D01*
G01X978890Y962752D02*
X984890D01*
X985980Y961661D02*
G03X984890Y962752I-1090J0D01*
G01X985980Y971898D02*
Y965898D01*
X984890Y964807D02*
G03X985980Y965898I-0J1091D01*
G01X984890Y964807D02*
X978890D01*
X977799Y965898D02*
G03X978890Y964807I1091J-0D01*
G01X977799Y965898D02*
Y971898D01*
X978890Y972988D02*
G03X977799Y971898I-0J-1090D01*
G01X978890Y972988D02*
X984890D01*
X985980Y971898D02*
G03X984890Y972988I-1090J-0D01*
G01X1029384Y834197D02*
G03X1032141Y836954I3884J-1126D01*
G01X1029384Y834197D02*
G03X1029258Y834690I-480J139D01*
G01X1012742Y851206*
X1012246Y852402D02*
G03X1012742Y851206I1691J-0D01*
G01X1012246Y852402D02*
Y862108D01*
G03X1011985Y862547I-500J-0*
G01X1015889D02*
G03X1011985I-1952J3595D01*
G01X1015889D02*
G03X1015628Y862108I239J-439D01*
G01Y853309*
G03X1015774Y852955I500J-0*
G01X1031649Y837081*
G03X1032141Y836954I353J353*
G01X1039227Y834197D02*
G03X1041984Y836954I3883J-1126D01*
G01X1039227Y834197D02*
G03X1039100Y834690I-480J139D01*
G01X1022742Y851049*
X1022246Y852244D02*
G03X1022742Y851049I1691J0D01*
G01X1022246Y852244D02*
Y862108D01*
G03X1021985Y862547I-500J-0*
G01X1025889D02*
G03X1021985I-1952J3595D01*
G01X1025889D02*
G03X1025628Y862108I239J-439D01*
G01Y853151*
G03X1025774Y852798I500J0*
G01X1041491Y837081*
G03X1041984Y836954I354J353*
G01X887385Y893594D02*
X893548D01*
X887328Y892694D02*
X893547D01*
X888452Y891794D02*
X893411D01*
X937161Y893594D02*
X951409D01*
X937161Y892694D02*
X951124D01*
X946299Y894494D02*
X950953D01*
X949191Y897194D02*
X950953D01*
X948291Y896294D02*
X950953D01*
X947391Y895394D02*
X950953D01*
X937055Y891794D02*
X950953D01*
X937050Y890894D02*
X950953D01*
X937161Y889994D02*
X950953D01*
X937161Y889094D02*
X950953D01*
X950091Y898094D02*
X950814D01*
X984887Y983594D02*
X1062886D01*
X985826Y982694D02*
X1062886D01*
X985980Y981794D02*
X1062886D01*
X985980Y980894D02*
X1062886D01*
X985980Y979994D02*
X1062886D01*
X985980Y979094D02*
X1062886D01*
X985980Y978194D02*
X1062886D01*
X985980Y977294D02*
X1062886D01*
X985980Y976394D02*
X1062886D01*
X985773Y975494D02*
X1062886D01*
X974161Y974594D02*
X1062886D01*
X974161Y973694D02*
X1062886D01*
X985511Y972794D02*
X1062886D01*
X985980Y971894D02*
X1062886D01*
X985980Y970994D02*
X1062886D01*
X985980Y970094D02*
X1062886D01*
X985980Y969194D02*
X1062886D01*
X985980Y968294D02*
X1062886D01*
X985980Y967394D02*
X1062886D01*
X985980Y966494D02*
X1062886D01*
X985937Y965594D02*
X1062886D01*
X974161Y964694D02*
X1062886D01*
X974161Y963794D02*
X1062886D01*
X974161Y962894D02*
X1062886D01*
X985928Y961994D02*
X1062886D01*
X985980Y961094D02*
X1062886D01*
X985980Y960194D02*
X1062886D01*
X985980Y959294D02*
X1062886D01*
X985980Y958394D02*
X1062886D01*
X985980Y957494D02*
X1062886D01*
X985980Y956594D02*
X1062886D01*
X985980Y955694D02*
X1062886D01*
X985551Y954794D02*
X1062886D01*
X974161Y953894D02*
X1062886D01*
X974161Y952994D02*
X1062886D01*
X974161Y952094D02*
X1062886D01*
X974161Y951194D02*
X1062886D01*
X974161Y950294D02*
X1062886D01*
X1046418Y949394D02*
X1062886D01*
X1047284Y948494D02*
X1062886D01*
X1047761Y947594D02*
X1062886D01*
X1047990Y946694D02*
X1062886D01*
X1048013Y945794D02*
X1062886D01*
X1047833Y944894D02*
X1062886D01*
X1047418Y943994D02*
X1062886D01*
X1046665Y943094D02*
X1062886D01*
X1045008Y942194D02*
X1062886D01*
X1035628Y941294D02*
X1062886D01*
X1035628Y940394D02*
X1062886D01*
X1035628Y939494D02*
X1062886D01*
X1035628Y938594D02*
X1062886D01*
X1035628Y937694D02*
X1062886D01*
X1035628Y936794D02*
X1062886D01*
X1035628Y935894D02*
X1062886D01*
X1035628Y934994D02*
X1062886D01*
X1035628Y934094D02*
X1062886D01*
X1035628Y933194D02*
X1062886D01*
X1035628Y932294D02*
X1062886D01*
X1035628Y931394D02*
X1062886D01*
X1035628Y930494D02*
X1062886D01*
X1035628Y929594D02*
X1062886D01*
X1035628Y928694D02*
X1062886D01*
X1035628Y927794D02*
X1062886D01*
X1035628Y926894D02*
X1062886D01*
X1035628Y925994D02*
X1062886D01*
X1035628Y925094D02*
X1062886D01*
X1035628Y924194D02*
X1062886D01*
X1035628Y923294D02*
X1062886D01*
X1035627Y922394D02*
X1062886D01*
X1035337Y921494D02*
X1062886D01*
X1034481Y920594D02*
X1062886D01*
X1033581Y919694D02*
X1062886D01*
X1032681Y918794D02*
X1062886D01*
X1019898Y917894D02*
X1062886D01*
X1018991Y916994D02*
X1062886D01*
X1024874Y916094D02*
X1062886D01*
X1026039Y915194D02*
X1062886D01*
X1026430Y914294D02*
X1062886D01*
X1026454Y913394D02*
X1062886D01*
X1026123Y912494D02*
X1062886D01*
X1025163Y911594D02*
X1062886D01*
X967880Y910694D02*
X1062886D01*
X968192Y909794D02*
X1062886D01*
X968153Y908894D02*
X1062886D01*
X985904Y907994D02*
X1062886D01*
X987194Y907094D02*
X1062886D01*
X987852Y906194D02*
X1062886D01*
X997491Y905294D02*
X1062886D01*
X998391Y904394D02*
X1062886D01*
X999287Y903494D02*
X1062886D01*
X999706Y902594D02*
X1062886D01*
X999722Y901694D02*
X1062886D01*
X999722Y900794D02*
X1062886D01*
X999722Y899894D02*
X1062886D01*
X999722Y898994D02*
X1062886D01*
X999722Y898094D02*
X1062886D01*
X999722Y897194D02*
X1062886D01*
X999722Y896294D02*
X1062886D01*
X999722Y895394D02*
X1062886D01*
X999722Y894494D02*
X1062886D01*
X999722Y893594D02*
X1062886D01*
X999722Y892694D02*
X1062886D01*
X999722Y891794D02*
X1062886D01*
X999722Y890894D02*
X1062886D01*
X999722Y889994D02*
X1062886D01*
X999722Y889094D02*
X1062886D01*
X999722Y888194D02*
X1062886D01*
X999722Y887294D02*
X1062886D01*
X999722Y886394D02*
X1062886D01*
X999722Y885494D02*
X1062886D01*
X999722Y884594D02*
X1062886D01*
X999722Y883694D02*
X1062886D01*
X999722Y882794D02*
X1062886D01*
X999722Y881894D02*
X1062886D01*
X999722Y880994D02*
X1062886D01*
X999722Y880094D02*
X1062886D01*
X999722Y879194D02*
X1062886D01*
X999722Y878294D02*
X1062886D01*
X999722Y877394D02*
X1062886D01*
X999722Y876494D02*
X1062886D01*
X999722Y875594D02*
X1062886D01*
X999722Y874694D02*
X1062886D01*
X999722Y873794D02*
X1062886D01*
X999722Y872894D02*
X1062886D01*
X999722Y871994D02*
X1062886D01*
X999722Y871094D02*
X1062886D01*
X1054496Y870194D02*
X1062886D01*
X1056544Y869294D02*
X1062886D01*
X1057352Y868394D02*
X1062886D01*
X1057798Y867494D02*
X1062886D01*
X1058003Y866594D02*
X1062886D01*
X1058003Y865694D02*
X1062886D01*
X1057799Y864794D02*
X1062886D01*
X1057355Y863894D02*
X1062886D01*
X1056549Y862994D02*
X1062886D01*
X1054527Y862094D02*
X1062886D01*
X1035628Y861194D02*
X1062886D01*
X1035628Y860294D02*
X1062886D01*
X1035628Y859394D02*
X1062886D01*
X1035628Y858494D02*
X1062886D01*
X1035628Y857594D02*
X1062886D01*
X1035628Y856694D02*
X1062886D01*
X1035628Y855794D02*
X1062886D01*
X1035628Y854894D02*
X1062886D01*
X1035628Y853994D02*
X1062886D01*
X1035628Y853094D02*
X1062886D01*
X1036220Y852194D02*
X1062886D01*
X1037120Y851294D02*
X1062886D01*
X1038020Y850394D02*
X1062886D01*
X1038920Y849494D02*
X1062886D01*
X1039820Y848594D02*
X1062886D01*
X1040720Y847694D02*
X1062886D01*
X1041620Y846794D02*
X1062886D01*
X1042520Y845894D02*
X1062886D01*
X1043420Y844994D02*
X1062886D01*
X1044320Y844094D02*
X1062886D01*
X1045220Y843194D02*
X1062886D01*
X1046120Y842294D02*
X1062886D01*
X1047020Y841394D02*
X1062886D01*
X1047920Y840494D02*
X1062886D01*
X1048820Y839594D02*
X1062886D01*
X1049720Y838694D02*
X1062886D01*
X1050620Y837794D02*
X1062886D01*
X1056563Y836894D02*
X1062886D01*
X1056996Y835994D02*
X1062886D01*
X1056996Y835094D02*
X1062886D01*
X1056996Y834194D02*
X1062886D01*
X1056996Y833294D02*
X1062886D01*
X1056996Y832394D02*
X1062886D01*
X1056996Y831494D02*
X1062886D01*
X1056996Y830594D02*
X1062886D01*
X1056910Y829694D02*
X1062886D01*
X999722Y828794D02*
X1062886D01*
X999722Y827894D02*
X1062886D01*
X999731Y826994D02*
X1062886D01*
X1000509Y826094D02*
X1062886D01*
X1001409Y825194D02*
X1062886D01*
X1002309Y824294D02*
X1062886D01*
X1003209Y823394D02*
X1062886D01*
X1004109Y822494D02*
X1062886D01*
X1005009Y821594D02*
X1062886D01*
X1005909Y820694D02*
X1062886D01*
X1006809Y819794D02*
X1062886D01*
X1007709Y818894D02*
X1062886D01*
X1008609Y817994D02*
X1062886D01*
X1009509Y817094D02*
X1062886D01*
X1010409Y816194D02*
X1062886D01*
X1011309Y815294D02*
X1062886D01*
X1012209Y814394D02*
X1062886D01*
X1013109Y813494D02*
X1062886D01*
X1014009Y812594D02*
X1062886D01*
X1014909Y811694D02*
X1062886D01*
X1015809Y810794D02*
X1062886D01*
X1016709Y809894D02*
X1062886D01*
X1017609Y808994D02*
X1062886D01*
X1018509Y808094D02*
X1062886D01*
X1019409Y807194D02*
X1062886D01*
X1020309Y806294D02*
X1062886D01*
X1021209Y805394D02*
X1062886D01*
X1022109Y804494D02*
X1062886D01*
X1026065Y803594D02*
X1062886D01*
X1027228Y802694D02*
X1062886D01*
X1027836Y801794D02*
X1062886D01*
X1028156Y800894D02*
X1062886D01*
X1028256Y799994D02*
X1062886D01*
X1028153Y799094D02*
X1062886D01*
X1027830Y798194D02*
X1062886D01*
X1027217Y797294D02*
X1062886D01*
X1026042Y796394D02*
X1062886D01*
X788295Y795494D02*
X1062886D01*
X788295Y794594D02*
X1062886D01*
X788295Y793694D02*
X1062886D01*
X788295Y792794D02*
X1062886D01*
X788295Y791894D02*
X1062886D01*
X788295Y790994D02*
X1062886D01*
X788295Y790094D02*
X1062886D01*
X788295Y789194D02*
X1062886D01*
X1044496Y870194D02*
X1053378D01*
X1044527Y862094D02*
X1053347D01*
X1046544Y869294D02*
X1051330D01*
X1046549Y862994D02*
X1051325D01*
X1047352Y868394D02*
X1050522D01*
X1047355Y863894D02*
X1050519D01*
X1047798Y867494D02*
X1050076D01*
X1047799Y864794D02*
X1050075D01*
X1048003Y866594D02*
X1049872D01*
X1048003Y865694D02*
X1049871D01*
X1045334Y829694D02*
X1048995D01*
X1046994Y834194D02*
X1048909D01*
X1047147Y833294D02*
X1048909D01*
X1047097Y832394D02*
X1048909D01*
X1046833Y831494D02*
X1048909D01*
X1046306Y830594D02*
X1048909D01*
X1046611Y835094D02*
X1048539D01*
X1045904Y835994D02*
X1047639D01*
X1044426Y836894D02*
X1046739D01*
X1040778Y837794D02*
X1045839D01*
X1039878Y838694D02*
X1044939D01*
X1038978Y839594D02*
X1044039D01*
X1034496Y870194D02*
X1043378D01*
X1035628Y862094D02*
X1043347D01*
X1038078Y840494D02*
X1043139D01*
X1035635Y942194D02*
X1042866D01*
X1037178Y841394D02*
X1042239D01*
X1036418Y949394D02*
X1041456D01*
X1036278Y842294D02*
X1041339D01*
X1036544Y869294D02*
X1041330D01*
X1036549Y862994D02*
X1041325D01*
X1036665Y943094D02*
X1041209D01*
X1035491Y829694D02*
X1040886D01*
X1037284Y948494D02*
X1040590D01*
X1037352Y868394D02*
X1040522D01*
X1037355Y863894D02*
X1040519D01*
X1037418Y943994D02*
X1040456D01*
X1035378Y843194D02*
X1040439D01*
X1037761Y947594D02*
X1040113D01*
X1037798Y867494D02*
X1040076D01*
X1037799Y864794D02*
X1040075D01*
X1037833Y944894D02*
X1040041D01*
X1036464Y830594D02*
X1039914D01*
X1037990Y946694D02*
X1039884D01*
X1038003Y866594D02*
X1039872D01*
X1038003Y865694D02*
X1039871D01*
X1038013Y945794D02*
X1039861D01*
X1034478Y844094D02*
X1039539D01*
X1036991Y831494D02*
X1039387D01*
X1037152Y834194D02*
X1039226D01*
X1037254Y832394D02*
X1039124D01*
X1037305Y833294D02*
X1039073D01*
X1036769Y835094D02*
X1038696D01*
X1033578Y844994D02*
X1038639D01*
X1036061Y835994D02*
X1037796D01*
X1032678Y845894D02*
X1037739D01*
X1034584Y836894D02*
X1036896D01*
X1031778Y846794D02*
X1036839D01*
X1030935Y837794D02*
X1035996D01*
X1030878Y847694D02*
X1035939D01*
X1030035Y838694D02*
X1035096D01*
X1029978Y848594D02*
X1035039D01*
X1029135Y839594D02*
X1034196D01*
X1029078Y849494D02*
X1034139D01*
X1024496Y870194D02*
X1033378D01*
X1028235Y840494D02*
X1033296D01*
X1028178Y850394D02*
X1033239D01*
X1027278Y851294D02*
X1032444D01*
X1027335Y841394D02*
X1032396D01*
X974161Y941294D02*
X1032246D01*
X974161Y940394D02*
X1032246D01*
X974161Y939494D02*
X1032246D01*
X974161Y938594D02*
X1032246D01*
X974161Y937694D02*
X1032246D01*
X974161Y936794D02*
X1032246D01*
X974161Y935894D02*
X1032246D01*
X974161Y934994D02*
X1032246D01*
X974161Y934094D02*
X1032246D01*
X974161Y933194D02*
X1032246D01*
X974161Y932294D02*
X1032246D01*
X974161Y931394D02*
X1032246D01*
X974161Y930494D02*
X1032246D01*
X974161Y929594D02*
X1032246D01*
X974161Y928694D02*
X1032246D01*
X974161Y927794D02*
X1032246D01*
X974161Y926894D02*
X1032246D01*
X974161Y925994D02*
X1032246D01*
X974161Y925094D02*
X1032246D01*
X974161Y924194D02*
X1032246D01*
X1025628Y862094D02*
X1032246D01*
X1025628Y861194D02*
X1032246D01*
X1025628Y860294D02*
X1032246D01*
X1025628Y859394D02*
X1032246D01*
X1025628Y858494D02*
X1032246D01*
X1025628Y857594D02*
X1032246D01*
X1025628Y856694D02*
X1032246D01*
X1025628Y855794D02*
X1032246D01*
X1025628Y854894D02*
X1032246D01*
X1025628Y853994D02*
X1032246D01*
X1025631Y853094D02*
X1032246D01*
X1026378Y852194D02*
X1032246D01*
X974161Y923294D02*
X1032243D01*
X1025008Y942194D02*
X1032239D01*
X974161Y922394D02*
X1031499D01*
X1026435Y842294D02*
X1031496D01*
X1026418Y949394D02*
X1031456D01*
X1026544Y869294D02*
X1031330D01*
X1026549Y862994D02*
X1031325D01*
X1026665Y943094D02*
X1031209D01*
X1025649Y829694D02*
X1031044D01*
X974127Y921494D02*
X1030597D01*
X1025535Y843194D02*
X1030596D01*
X1027284Y948494D02*
X1030590D01*
X1027352Y868394D02*
X1030522D01*
X1027355Y863894D02*
X1030519D01*
X1027418Y943994D02*
X1030456D01*
X1027761Y947594D02*
X1030113D01*
X1027798Y867494D02*
X1030076D01*
X1027799Y864794D02*
X1030075D01*
X1026621Y830594D02*
X1030072D01*
X1027833Y944894D02*
X1030041D01*
X1027990Y946694D02*
X1029884D01*
X1028003Y866594D02*
X1029872D01*
X1028003Y865694D02*
X1029871D01*
X1028013Y945794D02*
X1029861D01*
X1024635Y844094D02*
X1029696D01*
X1027148Y831494D02*
X1029545D01*
X1027309Y834194D02*
X1029383D01*
X1027411Y832394D02*
X1029281D01*
X1027462Y833294D02*
X1029231D01*
X1026926Y835094D02*
X1028854D01*
X1023735Y844994D02*
X1028796D01*
X1026219Y835994D02*
X1027954D01*
X1022835Y845894D02*
X1027896D01*
X1024741Y836894D02*
X1027054D01*
X1021935Y846794D02*
X1026996D01*
X1021093Y837794D02*
X1026154D01*
X1021035Y847694D02*
X1026096D01*
X1020193Y838694D02*
X1025254D01*
X1020135Y848594D02*
X1025196D01*
X1019293Y839594D02*
X1024354D01*
X1019235Y849494D02*
X1024296D01*
X1018393Y840494D02*
X1023454D01*
X1018335Y850394D02*
X1023396D01*
X1014496Y870194D02*
X1023378D01*
X1018190Y916094D02*
X1023157D01*
X967305Y911594D02*
X1022868D01*
X1015008Y942194D02*
X1022866D01*
X1017493Y841394D02*
X1022554D01*
X1017435Y851294D02*
X1022539D01*
X1016199Y796394D02*
X1022384D01*
X1016535Y852194D02*
X1022247D01*
X1015628Y862094D02*
X1022246D01*
X1015628Y861194D02*
X1022246D01*
X1015628Y860294D02*
X1022246D01*
X1015628Y859394D02*
X1022246D01*
X1015628Y858494D02*
X1022246D01*
X1015628Y857594D02*
X1022246D01*
X1015628Y856694D02*
X1022246D01*
X1015628Y855794D02*
X1022246D01*
X1015628Y854894D02*
X1022246D01*
X1015628Y853994D02*
X1022246D01*
X1015676Y853094D02*
X1022246D01*
X1016593Y842294D02*
X1021654D01*
X1016418Y949394D02*
X1021456D01*
X1016544Y869294D02*
X1021330D01*
X1016549Y862994D02*
X1021325D01*
X1016665Y943094D02*
X1021209D01*
X1017374Y797294D02*
X1021208D01*
X999722Y829694D02*
X1021201D01*
X1015693Y843194D02*
X1020754D01*
X1017988Y798194D02*
X1020595D01*
X1017284Y948494D02*
X1020590D01*
X1017352Y868394D02*
X1020522D01*
X1017355Y863894D02*
X1020519D01*
X1017418Y943994D02*
X1020456D01*
X1018311Y799094D02*
X1020272D01*
X1018313Y800894D02*
X1020269D01*
X999722Y830594D02*
X1020229D01*
X1018413Y799994D02*
X1020169D01*
X1017761Y947594D02*
X1020113D01*
X1017798Y867494D02*
X1020076D01*
X1017799Y864794D02*
X1020075D01*
X1017833Y944894D02*
X1020041D01*
X1017994Y801794D02*
X1020028D01*
X1017990Y946694D02*
X1019884D01*
X1018003Y866594D02*
X1019872D01*
X1018003Y865694D02*
X1019871D01*
X1018013Y945794D02*
X1019861D01*
X1014793Y844094D02*
X1019854D01*
X999722Y831494D02*
X1019702D01*
X999722Y834194D02*
X1019541D01*
X999722Y832394D02*
X1019439D01*
X999722Y833294D02*
X1019388D01*
X1017385Y802694D02*
X1019128D01*
X999722Y835094D02*
X1019011D01*
X1013893Y844994D02*
X1018954D01*
X1016223Y803594D02*
X1018228D01*
X999722Y835994D02*
X1018111D01*
X1012993Y845894D02*
X1018054D01*
X973756Y920594D02*
X1017809D01*
X1012267Y804494D02*
X1017328D01*
X999722Y836894D02*
X1017211D01*
X1012093Y846794D02*
X1017154D01*
X972907Y919694D02*
X1016909D01*
X1011367Y805394D02*
X1016428D01*
X999722Y837794D02*
X1016311D01*
X1011193Y847694D02*
X1016254D01*
X972007Y918794D02*
X1016009D01*
X1010467Y806294D02*
X1015528D01*
X999722Y838694D02*
X1015411D01*
X1010293Y848594D02*
X1015354D01*
X972012Y917894D02*
X1015081D01*
X1009567Y807194D02*
X1014628D01*
X999722Y839594D02*
X1014511D01*
X1009393Y849494D02*
X1014454D01*
X1008667Y808094D02*
X1013728D01*
X999722Y840494D02*
X1013611D01*
X1008493Y850394D02*
X1013554D01*
X1007224Y870194D02*
X1013378D01*
X974161Y942194D02*
X1012866D01*
X1007767Y808994D02*
X1012828D01*
X999722Y841394D02*
X1012711D01*
X1007593Y851294D02*
X1012660D01*
X1006356Y796394D02*
X1012541D01*
X1006693Y852194D02*
X1012259D01*
X1007240Y862094D02*
X1012246D01*
X1005628Y861194D02*
X1012246D01*
X1005628Y860294D02*
X1012246D01*
X1005628Y859394D02*
X1012246D01*
X1005628Y858494D02*
X1012246D01*
X1005628Y857594D02*
X1012246D01*
X1005628Y856694D02*
X1012246D01*
X1005628Y855794D02*
X1012246D01*
X1005628Y854894D02*
X1012246D01*
X1005628Y853994D02*
X1012246D01*
X1005793Y853094D02*
X1012246D01*
X1006867Y809894D02*
X1011928D01*
X999722Y842294D02*
X1011811D01*
X974527Y949394D02*
X1011456D01*
X1007532Y797294D02*
X1011366D01*
X1008017Y869294D02*
X1011330D01*
X1008018Y862994D02*
X1011325D01*
X974161Y943094D02*
X1011209D01*
X1005967Y810794D02*
X1011028D01*
X999722Y843194D02*
X1010911D01*
X1008145Y798194D02*
X1010753D01*
X975443Y948494D02*
X1010550D01*
X1008028Y868394D02*
X1010522D01*
X1008028Y863894D02*
X1010519D01*
X1008468Y799094D02*
X1010430D01*
X1008471Y800894D02*
X1010427D01*
X1008571Y799994D02*
X1010327D01*
X1008151Y801794D02*
X1010185D01*
X1005067Y811694D02*
X1010128D01*
X1008028Y867494D02*
X1010076D01*
X1008028Y864794D02*
X1010075D01*
X999722Y844094D02*
X1010011D01*
X1008028Y866594D02*
X1009872D01*
X1008028Y865694D02*
X1009871D01*
X1007543Y802694D02*
X1009285D01*
X1004167Y812594D02*
X1009228D01*
X999722Y844994D02*
X1009111D01*
X1006380Y803594D02*
X1008385D01*
X1003267Y813494D02*
X1008328D01*
X999722Y845894D02*
X1008211D01*
X1002424Y804494D02*
X1007485D01*
X1002367Y814394D02*
X1007428D01*
X999722Y846794D02*
X1007311D01*
X1001524Y805394D02*
X1006585D01*
X1001467Y815294D02*
X1006528D01*
X999722Y847694D02*
X1006411D01*
X1000624Y806294D02*
X1005685D01*
X1000567Y816194D02*
X1005628D01*
X999722Y848594D02*
X1005511D01*
X999724Y807194D02*
X1004785D01*
X999667Y817094D02*
X1004728D01*
X999722Y849494D02*
X1004611D01*
X998824Y808094D02*
X1003885D01*
X998767Y817994D02*
X1003828D01*
X999722Y850394D02*
X1003711D01*
X997924Y808994D02*
X1002985D01*
X997867Y818894D02*
X1002928D01*
X999722Y851294D02*
X1002811D01*
X996514Y796394D02*
X1002699D01*
X999722Y852194D02*
X1002286D01*
X999722Y861194D02*
X1002246D01*
X999722Y860294D02*
X1002246D01*
X999722Y859394D02*
X1002246D01*
X999722Y858494D02*
X1002246D01*
X999722Y857594D02*
X1002246D01*
X999722Y856694D02*
X1002246D01*
X999722Y855794D02*
X1002246D01*
X999722Y854894D02*
X1002246D01*
X999722Y853994D02*
X1002246D01*
X999722Y853094D02*
X1002246D01*
X997024Y809894D02*
X1002085D01*
X996967Y819794D02*
X1002028D01*
X997689Y797294D02*
X1001523D01*
X996124Y810794D02*
X1001185D01*
X996769Y820694D02*
X1001128D01*
X998303Y798194D02*
X1000910D01*
X999884Y870194D02*
X1000650D01*
X999889Y862094D02*
X1000634D01*
X998626Y799094D02*
X1000587D01*
X998628Y800894D02*
X1000584D01*
X998728Y799994D02*
X1000484D01*
X998309Y801794D02*
X1000343D01*
X995224Y811694D02*
X1000285D01*
X996769Y821594D02*
X1000228D01*
X997700Y802694D02*
X999443D01*
X994324Y812594D02*
X999385D01*
X996769Y822494D02*
X999328D01*
X996538Y803594D02*
X998543D01*
X993817Y813494D02*
X998485D01*
X996769Y823394D02*
X998428D01*
X993172Y804494D02*
X997643D01*
X993817Y814394D02*
X997585D01*
X997049Y824294D02*
X997490D01*
X992272Y805394D02*
X996743D01*
X993817Y815294D02*
X996685D01*
X986437Y900794D02*
X996341D01*
X968020Y899894D02*
X996341D01*
X968020Y898994D02*
X996341D01*
X985656Y898094D02*
X996341D01*
X987094Y897194D02*
X996341D01*
X987796Y896294D02*
X996341D01*
X987444Y901694D02*
X996280D01*
X995383Y895394D02*
X996275D01*
X991372Y806294D02*
X995843D01*
X993817Y816194D02*
X995785D01*
X990472Y807194D02*
X994943D01*
X993836Y817094D02*
X994885D01*
X990273Y808094D02*
X994043D01*
X987522Y891794D02*
X993388D01*
X986588Y890894D02*
X993388D01*
X968020Y889994D02*
X993388D01*
X968020Y889094D02*
X993388D01*
X987802Y888194D02*
X993388D01*
X988342Y887294D02*
X993388D01*
X988343Y886394D02*
X993388D01*
X988343Y885494D02*
X993388D01*
X988343Y884594D02*
X993388D01*
X988343Y883694D02*
X993388D01*
X988343Y882794D02*
X993388D01*
X988343Y881894D02*
X993388D01*
X988312Y880994D02*
X993388D01*
X986192Y880094D02*
X993388D01*
X985943Y879194D02*
X993388D01*
X985943Y878294D02*
X993388D01*
X985943Y877394D02*
X993388D01*
X985943Y876494D02*
X993388D01*
X985943Y875594D02*
X993388D01*
X985943Y874694D02*
X993388D01*
X985943Y873794D02*
X993388D01*
X985800Y872894D02*
X993388D01*
X985064Y871994D02*
X993388D01*
X984490Y871094D02*
X993388D01*
X988992Y870194D02*
X993388D01*
X989161Y869294D02*
X993388D01*
X989161Y868394D02*
X993388D01*
X989161Y867494D02*
X993388D01*
X989161Y866594D02*
X993388D01*
X988662Y865694D02*
X993388D01*
X924919Y864794D02*
X993388D01*
X986288Y863894D02*
X993388D01*
X987822Y862994D02*
X993388D01*
X988722Y862094D02*
X993388D01*
X989622Y861194D02*
X993388D01*
X990522Y860294D02*
X993388D01*
X991422Y859394D02*
X993388D01*
X992322Y858494D02*
X993368D01*
X990273Y808994D02*
X993143D01*
X986671Y796394D02*
X992856D01*
X990273Y809894D02*
X992243D01*
X987847Y797294D02*
X991681D01*
X990293Y810794D02*
X991343D01*
X988460Y798194D02*
X991067D01*
X988466Y801794D02*
X990965D01*
X988783Y799094D02*
X990745D01*
X988786Y800894D02*
X990742D01*
X988886Y799994D02*
X990642D01*
X987858Y802694D02*
X990191D01*
X986716Y803594D02*
X989291D01*
X986533Y804494D02*
X988391D01*
X986600Y805394D02*
X987491D01*
X982462Y865694D02*
X983679D01*
X959797Y848594D02*
X983152D01*
X959902Y847694D02*
X983152D01*
X959821Y846794D02*
X983152D01*
X959541Y845894D02*
X983152D01*
X959017Y844994D02*
X983152D01*
X958104Y844094D02*
X983152D01*
X877202Y843194D02*
X983152D01*
X877202Y842294D02*
X983152D01*
X877202Y841394D02*
X983152D01*
X877202Y840494D02*
X983152D01*
X877202Y839594D02*
X983152D01*
X877202Y838694D02*
X983152D01*
X877202Y837794D02*
X983152D01*
X877202Y836894D02*
X983152D01*
X877202Y835994D02*
X983152D01*
X877202Y835094D02*
X983152D01*
X877202Y834194D02*
X983152D01*
X877202Y833294D02*
X983152D01*
X877202Y832394D02*
X983152D01*
X877202Y831494D02*
X983152D01*
X877202Y830594D02*
X983152D01*
X877202Y829694D02*
X983152D01*
X877202Y828794D02*
X983152D01*
X877202Y827894D02*
X983152D01*
X877075Y826994D02*
X983152D01*
X876359Y826094D02*
X983152D01*
X875459Y825194D02*
X983152D01*
X874559Y824294D02*
X983152D01*
X873659Y823394D02*
X983152D01*
X872759Y822494D02*
X983152D01*
X957416Y821594D02*
X983152D01*
X958664Y820694D02*
X983152D01*
X959336Y819794D02*
X983152D01*
X959719Y818894D02*
X983152D01*
X959888Y817994D02*
X983152D01*
X959869Y817094D02*
X983152D01*
X959658Y816194D02*
X983152D01*
X959224Y815294D02*
X983152D01*
X958471Y814394D02*
X983152D01*
X956963Y813494D02*
X983152D01*
X857390Y812594D02*
X983152D01*
X857397Y811694D02*
X983152D01*
X858167Y810794D02*
X983152D01*
X875449Y809894D02*
X983152D01*
X876502Y808994D02*
X983152D01*
X877379Y808094D02*
X983152D01*
X877806Y807194D02*
X983152D01*
X877862Y806294D02*
X983152D01*
X877862Y805394D02*
X983152D01*
X877862Y804494D02*
X983152D01*
X976829Y796394D02*
X983014D01*
X976853Y803594D02*
X982969D01*
X959491Y849494D02*
X982958D01*
X975656Y898094D02*
X982848D01*
X975904Y907994D02*
X982600D01*
X968020Y879194D02*
X982561D01*
X968020Y878294D02*
X982561D01*
X968020Y877394D02*
X982561D01*
X968020Y876494D02*
X982561D01*
X968020Y875594D02*
X982561D01*
X968020Y874694D02*
X982561D01*
X968020Y880094D02*
X982312D01*
X976437Y900794D02*
X982067D01*
X958930Y850394D02*
X982058D01*
X976588Y890894D02*
X981916D01*
X978004Y797294D02*
X981838D01*
X978015Y802694D02*
X981827D01*
X977094Y897194D02*
X981410D01*
X977194Y907094D02*
X981310D01*
X978618Y798194D02*
X981225D01*
X978624Y801794D02*
X981219D01*
X957943Y851294D02*
X981158D01*
X977444Y901694D02*
X981060D01*
X977522Y891794D02*
X980982D01*
X978941Y799094D02*
X980902D01*
X978943Y800894D02*
X980899D01*
X979043Y799994D02*
X980799D01*
X977796Y896294D02*
X980708D01*
X975344Y888194D02*
X980702D01*
X977852Y906194D02*
X980652D01*
X977991Y902594D02*
X980512D01*
X978034Y892694D02*
X980470D01*
X978180Y895394D02*
X980324D01*
X978208Y905294D02*
X980296D01*
X956924Y852194D02*
X980258D01*
X978272Y903494D02*
X980232D01*
X978289Y893594D02*
X980215D01*
X976725Y880994D02*
X980192D01*
X978335Y894494D02*
X980169D01*
X978340Y904394D02*
X980164D01*
X976987Y887294D02*
X980162D01*
X977737Y886394D02*
X980161D01*
X978149Y885494D02*
X980161D01*
X978328Y884594D02*
X980161D01*
X978304Y883694D02*
X980161D01*
X978074Y882794D02*
X980161D01*
X977595Y881894D02*
X980161D01*
X972239Y983594D02*
X978893D01*
X974161Y972794D02*
X978269D01*
X974161Y954794D02*
X978229D01*
X974162Y975494D02*
X978007D01*
X973904Y982694D02*
X977954D01*
X974283Y961994D02*
X977851D01*
X974310Y965594D02*
X977842D01*
X974997Y981794D02*
X977799D01*
X975582Y980894D02*
X977799D01*
X975889Y979994D02*
X977799D01*
X975980Y979094D02*
X977799D01*
X975871Y978194D02*
X977799D01*
X975543Y977294D02*
X977799D01*
X974927Y976394D02*
X977799D01*
X974675Y971894D02*
X977799D01*
X975402Y970994D02*
X977799D01*
X975801Y970094D02*
X977799D01*
X975970Y969194D02*
X977799D01*
X975936Y968294D02*
X977799D01*
X975694Y967394D02*
X977799D01*
X975200Y966494D02*
X977799D01*
X975178Y961094D02*
X977799D01*
X975682Y960194D02*
X977799D01*
X975931Y959294D02*
X977799D01*
X975972Y958394D02*
X977799D01*
X975810Y957494D02*
X977799D01*
X975419Y956594D02*
X977799D01*
X974705Y955694D02*
X977799D01*
X974489Y865694D02*
X977479D01*
X968983Y796394D02*
X973171D01*
X968020Y888194D02*
X973160D01*
X968992Y803594D02*
X973147D01*
X968020Y898094D02*
X972848D01*
X968020Y907994D02*
X972600D01*
X968020Y900794D02*
X972067D01*
X969201Y797294D02*
X971996D01*
X969201Y802694D02*
X971985D01*
X968020Y890894D02*
X971916D01*
X968020Y880994D02*
X971778D01*
X962239Y983594D02*
X971540D01*
X968281Y887294D02*
X971517D01*
X968020Y897194D02*
X971410D01*
X969201Y798194D02*
X971382D01*
X969201Y801794D02*
X971376D01*
X968020Y907094D02*
X971310D01*
X968020Y901694D02*
X971060D01*
X969201Y799094D02*
X971059D01*
X969201Y800894D02*
X971057D01*
X968020Y891794D02*
X970982D01*
X969201Y799994D02*
X970957D01*
X968239Y881894D02*
X970873D01*
X968020Y896294D02*
X970708D01*
X968020Y906194D02*
X970652D01*
X968020Y902594D02*
X970512D01*
X968020Y892694D02*
X970470D01*
X968020Y895394D02*
X970324D01*
X968020Y905294D02*
X970296D01*
X968020Y903494D02*
X970232D01*
X968020Y893594D02*
X970215D01*
X968020Y894494D02*
X970169D01*
X968020Y904394D02*
X970164D01*
X963904Y982694D02*
X969875D01*
X933427Y974594D02*
X969618D01*
X948415Y973694D02*
X969618D01*
X963135Y972794D02*
X969618D01*
X951484Y964694D02*
X969618D01*
X951484Y963794D02*
X969618D01*
X951484Y962894D02*
X969618D01*
X963222Y954794D02*
X969618D01*
X951484Y953894D02*
X969618D01*
X951484Y952994D02*
X969618D01*
X951484Y952094D02*
X969618D01*
X951484Y951194D02*
X969618D01*
X951484Y950294D02*
X969618D01*
X951484Y949394D02*
X969618D01*
X951484Y948494D02*
X969618D01*
X951484Y947594D02*
X969618D01*
X951484Y946694D02*
X969618D01*
X951484Y945794D02*
X969618D01*
X951484Y944894D02*
X969618D01*
X951484Y943994D02*
X969618D01*
X951484Y943094D02*
X969618D01*
X951484Y942194D02*
X969618D01*
X951484Y941294D02*
X969618D01*
X951484Y940394D02*
X969618D01*
X951484Y939494D02*
X969618D01*
X951484Y938594D02*
X969618D01*
X951484Y937694D02*
X969618D01*
X951484Y936794D02*
X969618D01*
X951484Y935894D02*
X969618D01*
X963756Y975494D02*
X969618D01*
X968289Y865694D02*
X969506D01*
X964262Y961994D02*
X969496D01*
X964302Y965594D02*
X969469D01*
X968037Y873794D02*
X969135D01*
X964675Y971894D02*
X969105D01*
X964705Y955694D02*
X969074D01*
X951493Y934994D02*
X969025D01*
X964927Y976394D02*
X968852D01*
X964997Y981794D02*
X968782D01*
X965178Y961094D02*
X968601D01*
X965200Y966494D02*
X968580D01*
X965402Y970994D02*
X968377D01*
X965419Y956594D02*
X968360D01*
X965543Y977294D02*
X968236D01*
X965582Y980894D02*
X968197D01*
X965682Y960194D02*
X968097D01*
X965694Y967394D02*
X968086D01*
X965801Y970094D02*
X967978D01*
X965810Y957494D02*
X967969D01*
X965871Y978194D02*
X967909D01*
X965889Y979994D02*
X967891D01*
X965931Y959294D02*
X967848D01*
X965936Y968294D02*
X967844D01*
X965970Y969194D02*
X967810D01*
X965972Y958394D02*
X967808D01*
X965980Y979094D02*
X967799D01*
X943087Y911594D02*
X964191D01*
X928119Y871094D02*
X964154D01*
X943371Y910694D02*
X963617D01*
X928119Y871994D02*
X963499D01*
X941977Y907994D02*
X963476D01*
X940193Y907094D02*
X963476D01*
X951226Y906194D02*
X963476D01*
X951879Y905294D02*
X963476D01*
X952074Y904394D02*
X963476D01*
X951929Y903494D02*
X963476D01*
X951374Y902594D02*
X963476D01*
X951297Y901694D02*
X963476D01*
X951297Y900794D02*
X963476D01*
X951294Y899894D02*
X963476D01*
X955890Y898994D02*
X963476D01*
X956134Y898094D02*
X963476D01*
X956134Y897194D02*
X963476D01*
X956134Y896294D02*
X963476D01*
X956134Y895394D02*
X963476D01*
X956134Y894494D02*
X963476D01*
X955678Y893594D02*
X963476D01*
X955963Y892694D02*
X963476D01*
X956134Y891794D02*
X963476D01*
X956134Y890894D02*
X963476D01*
X956134Y889994D02*
X963476D01*
X956134Y889094D02*
X963476D01*
X956128Y888194D02*
X963476D01*
X955447Y887294D02*
X963476D01*
X954139Y886394D02*
X963476D01*
X953239Y885494D02*
X963476D01*
X937161Y884594D02*
X963476D01*
X959938Y877394D02*
X963476D01*
X959856Y876494D02*
X963476D01*
X959384Y875594D02*
X963476D01*
X943017Y908894D02*
X963343D01*
X924919Y865694D02*
X963306D01*
X943373Y909794D02*
X963304D01*
X937161Y883694D02*
X963158D01*
X892356Y874694D02*
X963131D01*
X928119Y872894D02*
X962996D01*
X928130Y870194D02*
X962976D01*
X928070Y873794D02*
X962892D01*
X937161Y882794D02*
X962258D01*
X959997Y878294D02*
X961955D01*
X788295Y983594D02*
X961540D01*
X856983Y796394D02*
X961331D01*
X877862Y803594D02*
X961323D01*
X877862Y802694D02*
X961114D01*
X884587Y801794D02*
X961114D01*
X884831Y800894D02*
X961114D01*
X884831Y799994D02*
X961114D01*
X884831Y799094D02*
X961114D01*
X884831Y798194D02*
X961114D01*
X884468Y797294D02*
X961114D01*
X949316Y972794D02*
X960644D01*
X951484Y954794D02*
X960557D01*
X933256Y975494D02*
X960023D01*
X788295Y982694D02*
X959875D01*
X951484Y961994D02*
X959518D01*
X951484Y965594D02*
X959478D01*
X950216Y971894D02*
X959105D01*
X951484Y955694D02*
X959074D01*
X863354Y976394D02*
X958852D01*
X788295Y981794D02*
X958782D01*
X951484Y961094D02*
X958601D01*
X951484Y966494D02*
X958580D01*
X951069Y970994D02*
X958377D01*
X951484Y956594D02*
X958360D01*
X863354Y977294D02*
X958236D01*
X788295Y980894D02*
X958197D01*
X951484Y960194D02*
X958097D01*
X951484Y967394D02*
X958086D01*
X951447Y970094D02*
X957978D01*
X951484Y957494D02*
X957969D01*
X863354Y978194D02*
X957909D01*
X788295Y979994D02*
X957891D01*
X951484Y959294D02*
X957848D01*
X951484Y968294D02*
X957844D01*
X951484Y969194D02*
X957810D01*
X951484Y958394D02*
X957808D01*
X862842Y979094D02*
X957799D01*
X946924Y852194D02*
X954099D01*
X946963Y813494D02*
X954061D01*
X947416Y821594D02*
X953608D01*
X947943Y851294D02*
X953081D01*
X948104Y844094D02*
X952920D01*
X948471Y814394D02*
X952553D01*
X948664Y820694D02*
X952360D01*
X948930Y850394D02*
X952094D01*
X949017Y844994D02*
X952006D01*
X949224Y815294D02*
X951799D01*
X949336Y819794D02*
X951687D01*
X949491Y849494D02*
X951533D01*
X949541Y845894D02*
X951482D01*
X949658Y816194D02*
X951365D01*
X949719Y818894D02*
X951305D01*
X949797Y848594D02*
X951227D01*
X949821Y846794D02*
X951203D01*
X949869Y817094D02*
X951155D01*
X949888Y817994D02*
X951136D01*
X949902Y847694D02*
X951122D01*
X939293Y906194D02*
X947987D01*
X946623Y905294D02*
X947288D01*
X933024Y968294D02*
X946941D01*
X863354Y967394D02*
X946941D01*
X863354Y966494D02*
X946941D01*
X863354Y965594D02*
X946941D01*
X863354Y964694D02*
X946941D01*
X863354Y963794D02*
X946941D01*
X863354Y962894D02*
X946941D01*
X863354Y961994D02*
X946941D01*
X863354Y961094D02*
X946941D01*
X863354Y960194D02*
X946941D01*
X863354Y959294D02*
X946941D01*
X863354Y958394D02*
X946941D01*
X863354Y957494D02*
X946941D01*
X863354Y956594D02*
X946941D01*
X884650Y955694D02*
X946941D01*
X885645Y954794D02*
X946941D01*
X941348Y953894D02*
X946941D01*
X941642Y952994D02*
X946941D01*
X941642Y952094D02*
X946941D01*
X941642Y951194D02*
X946941D01*
X941642Y950294D02*
X946941D01*
X941642Y949394D02*
X946941D01*
X941642Y948494D02*
X946941D01*
X941642Y947594D02*
X946941D01*
X941642Y946694D02*
X946941D01*
X941608Y945794D02*
X946941D01*
X885661Y944894D02*
X946941D01*
X885473Y943994D02*
X946941D01*
X885343Y943094D02*
X946941D01*
X885343Y942194D02*
X946941D01*
X885343Y941294D02*
X946941D01*
X885342Y940394D02*
X946941D01*
X885128Y939494D02*
X946941D01*
X884421Y938594D02*
X946941D01*
X883521Y937694D02*
X946941D01*
X882391Y936794D02*
X946941D01*
X914217Y935894D02*
X946941D01*
X937335Y934994D02*
X946932D01*
X941642Y928694D02*
X946931D01*
X941640Y929594D02*
X946911D01*
X938376Y934094D02*
X946622D01*
X939220Y933194D02*
X946622D01*
X939486Y932294D02*
X946622D01*
X939486Y931394D02*
X946622D01*
X941057Y930494D02*
X946622D01*
X933374Y969194D02*
X946491D01*
X941887Y927794D02*
X946403D01*
X936924Y852194D02*
X944099D01*
X936963Y813494D02*
X944061D01*
X937416Y821594D02*
X943608D01*
X938393Y905294D02*
X943142D01*
X937943Y851294D02*
X943081D01*
X938104Y844094D02*
X942920D01*
X937371Y904394D02*
X942565D01*
X938471Y814394D02*
X942553D01*
X928119Y903494D02*
X942382D01*
X938664Y820694D02*
X942360D01*
X938930Y850394D02*
X942094D01*
X939017Y844994D02*
X942006D01*
X939224Y815294D02*
X941799D01*
X939336Y819794D02*
X941687D01*
X928073Y902594D02*
X941542D01*
X939491Y849494D02*
X941533D01*
X939541Y845894D02*
X941482D01*
X939658Y816194D02*
X941365D01*
X939719Y818894D02*
X941305D01*
X939797Y848594D02*
X941227D01*
X939821Y846794D02*
X941203D01*
X939869Y817094D02*
X941155D01*
X939888Y817994D02*
X941136D01*
X939902Y847694D02*
X941122D01*
X891061Y901694D02*
X940642D01*
X915123Y931394D02*
X936090D01*
X929246Y930494D02*
X934534D01*
X929537Y953894D02*
X934242D01*
X926924Y852194D02*
X934099D01*
X926963Y813494D02*
X934061D01*
X929797Y945794D02*
X933983D01*
X929829Y929594D02*
X933951D01*
X929831Y952994D02*
X933949D01*
X929831Y952094D02*
X933949D01*
X929831Y951194D02*
X933949D01*
X929831Y950294D02*
X933949D01*
X929831Y949394D02*
X933949D01*
X929831Y948494D02*
X933949D01*
X929831Y947594D02*
X933949D01*
X929831Y946694D02*
X933949D01*
X929831Y928694D02*
X933949D01*
X929831Y927794D02*
X933949D01*
X929831Y926894D02*
X933949D01*
X929831Y925994D02*
X933949D01*
X929831Y925094D02*
X933949D01*
X929831Y924194D02*
X933949D01*
X929831Y923294D02*
X933949D01*
X929835Y922394D02*
X933945D01*
X927416Y821594D02*
X933608D01*
X927943Y851294D02*
X933081D01*
X928104Y844094D02*
X932920D01*
X928471Y814394D02*
X932553D01*
X928664Y820694D02*
X932360D01*
X928930Y850394D02*
X932094D01*
X929017Y844994D02*
X932006D01*
X929224Y815294D02*
X931799D01*
X929336Y819794D02*
X931687D01*
X929491Y849494D02*
X931533D01*
X929541Y845894D02*
X931482D01*
X929658Y816194D02*
X931365D01*
X929719Y818894D02*
X931305D01*
X929797Y848594D02*
X931227D01*
X929821Y846794D02*
X931203D01*
X929869Y817094D02*
X931155D01*
X929888Y817994D02*
X931136D01*
X929902Y847694D02*
X931122D01*
X901205Y900794D02*
X929503D01*
X901221Y875594D02*
X929487D01*
X901432Y881894D02*
X929277D01*
X901432Y888194D02*
X929277D01*
X901432Y894494D02*
X929277D01*
X901617Y897194D02*
X929092D01*
X901617Y890894D02*
X929092D01*
X901617Y884594D02*
X929091D01*
X901618Y878294D02*
X929091D01*
X901621Y879194D02*
X929087D01*
X901622Y885494D02*
X929087D01*
X901622Y891794D02*
X929086D01*
X901623Y898094D02*
X929086D01*
X901728Y899894D02*
X928981D01*
X901728Y893594D02*
X928981D01*
X901728Y887294D02*
X928981D01*
X901728Y880994D02*
X928981D01*
X901728Y876494D02*
X928981D01*
X901728Y882794D02*
X928980D01*
X901728Y889094D02*
X928980D01*
X901728Y895394D02*
X928980D01*
X901728Y898994D02*
X928980D01*
X901728Y896294D02*
X928980D01*
X901728Y892694D02*
X928980D01*
X901728Y889994D02*
X928980D01*
X901728Y886394D02*
X928980D01*
X901728Y883694D02*
X928980D01*
X901728Y880094D02*
X928980D01*
X901728Y877394D02*
X928980D01*
X920992Y968294D02*
X925637D01*
X921602Y975494D02*
X925406D01*
X922629Y974594D02*
X925287D01*
X923181Y973694D02*
X925287D01*
X923462Y972794D02*
X925287D01*
X923529Y971894D02*
X925287D01*
X923392Y970994D02*
X925287D01*
X923028Y970094D02*
X925287D01*
X922353Y969194D02*
X925287D01*
X897202Y852194D02*
X924099D01*
X916963Y813494D02*
X924061D01*
X917416Y821594D02*
X923608D01*
X917943Y851294D02*
X923081D01*
X918104Y844094D02*
X922920D01*
X862558Y930494D02*
X922723D01*
X918471Y814394D02*
X922553D01*
X885661Y953894D02*
X922431D01*
X918664Y820694D02*
X922360D01*
X885661Y945794D02*
X922171D01*
X862558Y929594D02*
X922140D01*
X885661Y952994D02*
X922138D01*
X885661Y952094D02*
X922138D01*
X885661Y951194D02*
X922138D01*
X885534Y950294D02*
X922138D01*
X885162Y949394D02*
X922138D01*
X885658Y948494D02*
X922138D01*
X885661Y947594D02*
X922138D01*
X885661Y946694D02*
X922138D01*
X883676Y928694D02*
X922138D01*
X884043Y927794D02*
X922138D01*
X884043Y926894D02*
X922138D01*
X884043Y925994D02*
X922138D01*
X884043Y925094D02*
X922138D01*
X883802Y924194D02*
X922138D01*
X862558Y923294D02*
X922138D01*
X862561Y922394D02*
X922134D01*
X918930Y850394D02*
X922094D01*
X919017Y844994D02*
X922006D01*
X919224Y815294D02*
X921799D01*
X919336Y819794D02*
X921687D01*
X919491Y849494D02*
X921533D01*
X919541Y845894D02*
X921482D01*
X919658Y816194D02*
X921365D01*
X919719Y818894D02*
X921305D01*
X919797Y848594D02*
X921227D01*
X919821Y846794D02*
X921203D01*
X919869Y817094D02*
X921155D01*
X919888Y817994D02*
X921136D01*
X919902Y847694D02*
X921122D01*
X897202Y853094D02*
X918926D01*
X897566Y853994D02*
X918025D01*
X911149Y968294D02*
X917984D01*
X911760Y975494D02*
X917374D01*
X898471Y854894D02*
X917125D01*
X912511Y969194D02*
X916623D01*
X912786Y974594D02*
X916348D01*
X907397Y855794D02*
X916225D01*
X913186Y970094D02*
X915948D01*
X913338Y973694D02*
X915795D01*
X913549Y970994D02*
X915584D01*
X913619Y972794D02*
X915514D01*
X913686Y971894D02*
X915448D01*
X908297Y856694D02*
X915433D01*
X909171Y865694D02*
X915239D01*
X909171Y864794D02*
X915239D01*
X909171Y863894D02*
X915239D01*
X909171Y862994D02*
X915239D01*
X909171Y862094D02*
X915239D01*
X909171Y861194D02*
X915239D01*
X909171Y860294D02*
X915239D01*
X909171Y859394D02*
X915239D01*
X909171Y858494D02*
X915239D01*
X909031Y857594D02*
X915239D01*
X906963Y813494D02*
X914061D01*
X907416Y821594D02*
X913608D01*
X876425Y935894D02*
X913342D01*
X907943Y851294D02*
X913081D01*
X908104Y844094D02*
X912920D01*
X908471Y814394D02*
X912553D01*
X911927Y866594D02*
X912483D01*
X862558Y931394D02*
X912436D01*
X908664Y820694D02*
X912360D01*
X908930Y850394D02*
X912094D01*
X909017Y844994D02*
X912006D01*
X876354Y934994D02*
X911842D01*
X909224Y815294D02*
X911799D01*
X909336Y819794D02*
X911687D01*
X862558Y932294D02*
X911606D01*
X909491Y849494D02*
X911533D01*
X909541Y845894D02*
X911482D01*
X863144Y934094D02*
X911393D01*
X909658Y816194D02*
X911365D01*
X862559Y933194D02*
X911326D01*
X909719Y818894D02*
X911305D01*
X909797Y848594D02*
X911227D01*
X909821Y846794D02*
X911203D01*
X909869Y817094D02*
X911155D01*
X909888Y817994D02*
X911136D01*
X909902Y847694D02*
X911122D01*
X901307Y968294D02*
X908142D01*
X901917Y975494D02*
X907532D01*
X902668Y969194D02*
X906781D01*
X902944Y974594D02*
X906505D01*
X903343Y970094D02*
X906105D01*
X903496Y973694D02*
X905953D01*
X903707Y970994D02*
X905742D01*
X903777Y972794D02*
X905672D01*
X903844Y971894D02*
X905605D01*
X896963Y813494D02*
X904061D01*
X897416Y821594D02*
X903608D01*
X897943Y851294D02*
X903081D01*
X898104Y844094D02*
X902920D01*
X887311Y866594D02*
X902640D01*
X887311Y865694D02*
X902640D01*
X887311Y864794D02*
X902640D01*
X887311Y863894D02*
X902640D01*
X887311Y862994D02*
X902640D01*
X887311Y862094D02*
X902640D01*
X887311Y873794D02*
X902639D01*
X891061Y902594D02*
X902636D01*
X891061Y905294D02*
X902590D01*
X891061Y904394D02*
X902590D01*
X891061Y903494D02*
X902590D01*
X887311Y872894D02*
X902590D01*
X887311Y871994D02*
X902590D01*
X887311Y871094D02*
X902590D01*
X887311Y870194D02*
X902590D01*
X887311Y869294D02*
X902590D01*
X887311Y868394D02*
X902590D01*
X887311Y867494D02*
X902590D01*
X893859Y906194D02*
X902576D01*
X898471Y814394D02*
X902553D01*
X898664Y820694D02*
X902360D01*
X898930Y850394D02*
X902094D01*
X899017Y844994D02*
X902006D01*
X899224Y815294D02*
X901799D01*
X899336Y819794D02*
X901687D01*
X899491Y849494D02*
X901533D01*
X899541Y845894D02*
X901482D01*
X899658Y816194D02*
X901365D01*
X899719Y818894D02*
X901305D01*
X899797Y848594D02*
X901227D01*
X899821Y846794D02*
X901203D01*
X899869Y817094D02*
X901155D01*
X899888Y817994D02*
X901136D01*
X899902Y847694D02*
X901122D01*
X863354Y968294D02*
X898299D01*
X863354Y975494D02*
X897689D01*
X863354Y969194D02*
X896938D01*
X863354Y974594D02*
X896663D01*
X863354Y970094D02*
X896263D01*
X863354Y973694D02*
X896110D01*
X863354Y970994D02*
X895899D01*
X863354Y972794D02*
X895829D01*
X863354Y971894D02*
X895763D01*
X886963Y813494D02*
X894061D01*
X892459Y852194D02*
X893821D01*
X887416Y821594D02*
X893608D01*
X887311Y861194D02*
X893472D01*
X891579Y851294D02*
X893081D01*
X888104Y844094D02*
X892920D01*
X888471Y814394D02*
X892553D01*
X887311Y860294D02*
X892549D01*
X888664Y820694D02*
X892360D01*
X890659Y850394D02*
X892094D01*
X889017Y844994D02*
X892006D01*
X889224Y815294D02*
X891799D01*
X889336Y819794D02*
X891687D01*
X887311Y859394D02*
X891649D01*
X889763Y849494D02*
X891533D01*
X889541Y845894D02*
X891482D01*
X889658Y816194D02*
X891365D01*
X889719Y818894D02*
X891305D01*
X889797Y848594D02*
X891227D01*
X889821Y846794D02*
X891203D01*
X889869Y817094D02*
X891155D01*
X889888Y817994D02*
X891136D01*
X889902Y847694D02*
X891122D01*
X887241Y858494D02*
X890773D01*
X886779Y857594D02*
X890439D01*
X885891Y856694D02*
X890435D01*
X884991Y855794D02*
X890435D01*
X884091Y854894D02*
X890359D01*
X868291Y853994D02*
X889477D01*
X887311Y874694D02*
X888746D01*
X867783Y853094D02*
X888577D01*
X887462Y875594D02*
X888160D01*
X867783Y852194D02*
X887677D01*
X876963Y813494D02*
X884061D01*
X877416Y821594D02*
X883608D01*
X877943Y851294D02*
X883081D01*
X878104Y844094D02*
X882920D01*
X812902Y915194D02*
X882768D01*
X812902Y914294D02*
X882768D01*
X812902Y913394D02*
X882768D01*
X812902Y912494D02*
X882768D01*
X848568Y911594D02*
X882768D01*
X848728Y910694D02*
X882768D01*
X848728Y909794D02*
X882768D01*
X848728Y908894D02*
X882768D01*
X848728Y907994D02*
X882768D01*
X848728Y907094D02*
X882768D01*
X848728Y906194D02*
X882768D01*
X848728Y905294D02*
X882768D01*
X848728Y904394D02*
X882768D01*
X848728Y903494D02*
X882768D01*
X848728Y902594D02*
X882768D01*
X848728Y901694D02*
X882768D01*
X848728Y900794D02*
X882768D01*
X848728Y899894D02*
X882768D01*
X848728Y898994D02*
X882768D01*
X848728Y898094D02*
X882768D01*
X848728Y897194D02*
X882768D01*
X848728Y896294D02*
X882768D01*
X881234Y889994D02*
X882768D01*
X881587Y889094D02*
X882768D01*
X881724Y888194D02*
X882768D01*
X881724Y887294D02*
X882768D01*
X881724Y886394D02*
X882768D01*
X881724Y885494D02*
X882768D01*
X881711Y884594D02*
X882768D01*
X880846Y883694D02*
X882768D01*
X872950Y882794D02*
X882768D01*
X873157Y881894D02*
X882768D01*
X873633Y880994D02*
X882768D01*
X873718Y880094D02*
X882768D01*
X873459Y879194D02*
X882768D01*
X872677Y878294D02*
X882768D01*
X869727Y877394D02*
X882768D01*
X869314Y876494D02*
X882768D01*
X868051Y875594D02*
X882768D01*
X863080Y874694D02*
X882768D01*
X863597Y873794D02*
X882768D01*
X863614Y872894D02*
X882768D01*
X863614Y871994D02*
X882768D01*
X863614Y871094D02*
X882768D01*
X863614Y870194D02*
X882768D01*
X863488Y869294D02*
X882768D01*
X848728Y868394D02*
X882768D01*
X848728Y867494D02*
X882768D01*
X848728Y866594D02*
X882768D01*
X848728Y865694D02*
X882768D01*
X848728Y864794D02*
X882768D01*
X848728Y863894D02*
X882768D01*
X848728Y862994D02*
X882768D01*
X848728Y862094D02*
X882768D01*
X848728Y861194D02*
X882768D01*
X848728Y860294D02*
X882768D01*
X812902Y916094D02*
X882764D01*
X881524Y895394D02*
X882706D01*
X878471Y814394D02*
X882553D01*
X812902Y916994D02*
X882441D01*
X878664Y820694D02*
X882360D01*
X848728Y859394D02*
X882166D01*
X878930Y850394D02*
X882094D01*
X879017Y844994D02*
X882006D01*
X879224Y815294D02*
X881799D01*
X879336Y819794D02*
X881687D01*
X879491Y849494D02*
X881533D01*
X863354Y955694D02*
X881491D01*
X879541Y845894D02*
X881482D01*
X879797Y848594D02*
X881227D01*
X879821Y846794D02*
X881203D01*
X879902Y847694D02*
X881122D01*
X876425Y949394D02*
X880980D01*
X876161Y943094D02*
X880799D01*
X876425Y942194D02*
X880799D01*
X863197Y943994D02*
X880668D01*
X876578Y941294D02*
X880647D01*
X876425Y950294D02*
X880608D01*
X876344Y954794D02*
X880497D01*
X876425Y948494D02*
X880484D01*
X876425Y953894D02*
X880480D01*
X876425Y952994D02*
X880480D01*
X876425Y952094D02*
X880480D01*
X876425Y951194D02*
X880480D01*
X876425Y947594D02*
X880480D01*
X876181Y946694D02*
X880480D01*
X863174Y945794D02*
X880480D01*
X863197Y944894D02*
X880480D01*
X878268Y797294D02*
X879213D01*
X878389Y801794D02*
X879091D01*
X877476Y928694D02*
X878429D01*
X877606Y924194D02*
X878300D01*
X872950Y883694D02*
X877422D01*
X863599Y889994D02*
X877034D01*
X848728Y895394D02*
X876744D01*
X863082Y889094D02*
X876681D01*
X872782Y884594D02*
X876557D01*
X863614Y890894D02*
X876546D01*
X863484Y894494D02*
X876543D01*
X863614Y893594D02*
X876543D01*
X863614Y892694D02*
X876543D01*
X863614Y891794D02*
X876543D01*
X863531Y888194D02*
X876543D01*
X870131Y887294D02*
X876543D01*
X871115Y886394D02*
X876543D01*
X872015Y885494D02*
X876543D01*
X869503Y813494D02*
X874061D01*
X857390Y843194D02*
X873821D01*
X857390Y842294D02*
X873821D01*
X857390Y841394D02*
X873821D01*
X857390Y840494D02*
X873821D01*
X857390Y839594D02*
X873821D01*
X857390Y838694D02*
X873821D01*
X857390Y837794D02*
X873821D01*
X857390Y836894D02*
X873821D01*
X857390Y835994D02*
X873821D01*
X857390Y835094D02*
X873821D01*
X857390Y834194D02*
X873821D01*
X857390Y833294D02*
X873821D01*
X857390Y832394D02*
X873821D01*
X857390Y831494D02*
X873821D01*
X857390Y830594D02*
X873821D01*
X857390Y829694D02*
X873821D01*
X857390Y828794D02*
X873821D01*
X871871Y821594D02*
X873608D01*
X857390Y827894D02*
X873377D01*
X856218Y804494D02*
X873319D01*
X856218Y803594D02*
X873319D01*
X857138Y802694D02*
X873319D01*
X856220Y805394D02*
X873225D01*
X867951Y851294D02*
X873081D01*
X857844Y797294D02*
X873013D01*
X868104Y844094D02*
X872920D01*
X857928Y801794D02*
X872894D01*
X858360Y800894D02*
X872650D01*
X858552Y799994D02*
X872650D01*
X858538Y799094D02*
X872650D01*
X858316Y798194D02*
X872650D01*
X869902Y814394D02*
X872553D01*
X857390Y826994D02*
X872477D01*
X870959Y820694D02*
X872308D01*
X869109Y928694D02*
X872229D01*
X869235Y924194D02*
X872103D01*
X868930Y850394D02*
X872094D01*
X869017Y844994D02*
X872006D01*
X869902Y815294D02*
X871799D01*
X870059Y819794D02*
X871687D01*
X857390Y826094D02*
X871577D01*
X869491Y849494D02*
X871533D01*
X869541Y845894D02*
X871482D01*
X869902Y816194D02*
X871365D01*
X869902Y818894D02*
X871305D01*
X869797Y848594D02*
X871227D01*
X869821Y846794D02*
X871203D01*
X869902Y817094D02*
X871155D01*
X869902Y817994D02*
X871136D01*
X869902Y847694D02*
X871122D01*
X857390Y825194D02*
X870677D01*
X857390Y824294D02*
X869777D01*
X812902Y882794D02*
X869569D01*
X863197Y943094D02*
X869509D01*
X832480Y946694D02*
X869488D01*
X812902Y881894D02*
X869362D01*
X863354Y954794D02*
X869325D01*
X863197Y934994D02*
X869315D01*
X863312Y953894D02*
X869244D01*
X832724Y952994D02*
X869244D01*
X832724Y952094D02*
X869244D01*
X832724Y951194D02*
X869244D01*
X832724Y950294D02*
X869244D01*
X832724Y949394D02*
X869244D01*
X832724Y948494D02*
X869244D01*
X832724Y947594D02*
X869244D01*
X863197Y942194D02*
X869244D01*
X863197Y935894D02*
X869244D01*
X863269Y941294D02*
X869173D01*
X863577Y883694D02*
X869033D01*
X812902Y880994D02*
X868887D01*
X857390Y823394D02*
X868877D01*
X857390Y822494D02*
X867977D01*
X863535Y875594D02*
X866595D01*
X863575Y880094D02*
X866094D01*
X862909Y928694D02*
X863862D01*
X863039Y924194D02*
X863733D01*
X857390Y853094D02*
X863240D01*
X857390Y852194D02*
X863240D01*
X857390Y851294D02*
X863073D01*
X857710Y853994D02*
X862920D01*
X857390Y844094D02*
X862920D01*
X857390Y850394D02*
X862094D01*
X857390Y844994D02*
X862006D01*
X857390Y849494D02*
X861533D01*
X857390Y813494D02*
X861521D01*
X857390Y845894D02*
X861482D01*
X857390Y821594D02*
X861341D01*
X857390Y848594D02*
X861227D01*
X857390Y846794D02*
X861203D01*
X857390Y847694D02*
X861122D01*
X857390Y820694D02*
X861121D01*
X857390Y819794D02*
X861121D01*
X857390Y818894D02*
X861121D01*
X857390Y817994D02*
X861121D01*
X857390Y817094D02*
X861121D01*
X857390Y816194D02*
X861121D01*
X857390Y815294D02*
X861121D01*
X857390Y814394D02*
X861121D01*
X812902Y917894D02*
X860070D01*
X812902Y918794D02*
X859145D01*
X847839Y874694D02*
X858968D01*
X848693Y889094D02*
X858966D01*
X848728Y894494D02*
X858564D01*
X848728Y869294D02*
X858559D01*
X848066Y888194D02*
X858516D01*
X846095Y875594D02*
X858513D01*
X812902Y880094D02*
X858473D01*
X812902Y883694D02*
X858470D01*
X848715Y873794D02*
X858450D01*
X848728Y889994D02*
X858448D01*
X848728Y893594D02*
X858433D01*
X848728Y892694D02*
X858433D01*
X848728Y891794D02*
X858433D01*
X848728Y890894D02*
X858433D01*
X848728Y872894D02*
X858433D01*
X848728Y871994D02*
X858433D01*
X848728Y871094D02*
X858433D01*
X848728Y870194D02*
X858433D01*
X812902Y919694D02*
X858340D01*
X812902Y920594D02*
X858031D01*
X812954Y932294D02*
X858014D01*
X812902Y931394D02*
X858014D01*
X812902Y930494D02*
X858014D01*
X812902Y929594D02*
X858014D01*
X812902Y923294D02*
X858014D01*
X812902Y922394D02*
X858014D01*
X812902Y921494D02*
X858014D01*
X842795Y933194D02*
X857990D01*
X812902Y928694D02*
X857662D01*
X812902Y924194D02*
X857536D01*
X812902Y927794D02*
X857295D01*
X812902Y926894D02*
X857295D01*
X812902Y925994D02*
X857295D01*
X812902Y925094D02*
X857295D01*
X845112Y934094D02*
X857250D01*
X845142Y945794D02*
X857220D01*
X845165Y944894D02*
X857197D01*
X845165Y943994D02*
X857197D01*
X845165Y943094D02*
X857197D01*
X845165Y942194D02*
X857197D01*
X845165Y941294D02*
X857197D01*
X845199Y940394D02*
X857197D01*
X845185Y939494D02*
X857197D01*
X845185Y938594D02*
X857197D01*
X845185Y937694D02*
X857197D01*
X845185Y936794D02*
X857197D01*
X845165Y935894D02*
X857197D01*
X845165Y934994D02*
X857197D01*
X848728Y858494D02*
X856107D01*
X848728Y857594D02*
X854775D01*
X848728Y856694D02*
X853875D01*
X848728Y855794D02*
X853114D01*
X848728Y854894D02*
X852853D01*
X848728Y853994D02*
X852846D01*
X848728Y853094D02*
X852846D01*
X848728Y852194D02*
X852846D01*
X848495Y851294D02*
X852846D01*
X812902Y850394D02*
X852846D01*
X833696Y842294D02*
X852846D01*
X832796Y841394D02*
X852846D01*
X832587Y840494D02*
X852846D01*
X832587Y839594D02*
X852846D01*
X812902Y849494D02*
X852840D01*
X837902Y804494D02*
X852837D01*
X845354Y803594D02*
X852837D01*
X832587Y838694D02*
X852780D01*
X837902Y805394D02*
X852255D01*
X812902Y848594D02*
X852074D01*
X847141Y796394D02*
X852072D01*
X847296Y802694D02*
X851917D01*
X839913Y837794D02*
X851893D01*
X837902Y806294D02*
X851355D01*
X848002Y797294D02*
X851211D01*
X812902Y847694D02*
X851174D01*
X848085Y801794D02*
X851127D01*
X848474Y798194D02*
X850739D01*
X848518Y800894D02*
X850695D01*
X837902Y807194D02*
X850523D01*
X848696Y799094D02*
X850517D01*
X848710Y799994D02*
X850503D01*
X832587Y826094D02*
X850278D01*
X832752Y825194D02*
X850278D01*
X832730Y824294D02*
X850278D01*
X832342Y823394D02*
X850278D01*
X831187Y822494D02*
X850278D01*
X812902Y821594D02*
X850278D01*
X832986Y820694D02*
X850278D01*
X834532Y819794D02*
X850278D01*
X835432Y818894D02*
X850278D01*
X836332Y817994D02*
X850278D01*
X837211Y817094D02*
X850278D01*
X837721Y816194D02*
X850278D01*
X837899Y815294D02*
X850278D01*
X837902Y814394D02*
X850278D01*
X837902Y813494D02*
X850278D01*
X837902Y812594D02*
X850278D01*
X837902Y811694D02*
X850278D01*
X837902Y810794D02*
X850278D01*
X837902Y809894D02*
X850278D01*
X837902Y808994D02*
X850278D01*
X837902Y808094D02*
X850278D01*
X839953Y826994D02*
X850142D01*
X812902Y879194D02*
X844915D01*
X812902Y884594D02*
X844568D01*
X838156Y803594D02*
X844016D01*
X812902Y878294D02*
X844013D01*
X812902Y885494D02*
X843661D01*
X812902Y877394D02*
X843113D01*
X812902Y886394D02*
X842761D01*
X812902Y876494D02*
X842272D01*
X838855Y796394D02*
X842230D01*
X812902Y887294D02*
X842102D01*
X838877Y802694D02*
X842075D01*
X812902Y875594D02*
X842010D01*
X812902Y888194D02*
X841791D01*
X838886Y797294D02*
X841368D01*
X838886Y801794D02*
X841285D01*
X838886Y798194D02*
X840896D01*
X838886Y800894D02*
X840852D01*
X838886Y799094D02*
X840674D01*
X838886Y799994D02*
X840660D01*
X812902Y874694D02*
X839563D01*
X788295Y979094D02*
X839521D01*
X821957Y945794D02*
X839188D01*
X821957Y944894D02*
X839165D01*
X821957Y943994D02*
X839165D01*
X832460Y943094D02*
X839165D01*
X832724Y942194D02*
X839165D01*
X832724Y941294D02*
X839165D01*
X832724Y940394D02*
X839098D01*
X832724Y939494D02*
X839067D01*
X832724Y953894D02*
X839050D01*
X788295Y978194D02*
X839008D01*
X788295Y977294D02*
X839008D01*
X788295Y976394D02*
X839008D01*
X788295Y975494D02*
X839008D01*
X788295Y974594D02*
X839008D01*
X788295Y973694D02*
X839008D01*
X788295Y972794D02*
X839008D01*
X788295Y971894D02*
X839008D01*
X788295Y970994D02*
X839008D01*
X788295Y970094D02*
X839008D01*
X788295Y969194D02*
X839008D01*
X788295Y968294D02*
X839008D01*
X788295Y967394D02*
X839008D01*
X788295Y966494D02*
X839008D01*
X788295Y965594D02*
X839008D01*
X788295Y964694D02*
X839008D01*
X788295Y963794D02*
X839008D01*
X788295Y962894D02*
X839008D01*
X788295Y961994D02*
X839008D01*
X788295Y961094D02*
X839008D01*
X788295Y960194D02*
X839008D01*
X788295Y959294D02*
X839008D01*
X788295Y958394D02*
X839008D01*
X788295Y957494D02*
X839008D01*
X788295Y956594D02*
X839008D01*
X788295Y955694D02*
X839008D01*
X832644Y954794D02*
X839008D01*
X812902Y851294D02*
X838907D01*
X812902Y911594D02*
X838834D01*
X812902Y889094D02*
X838709D01*
X812902Y873794D02*
X838687D01*
X812902Y910694D02*
X838673D01*
X812902Y909794D02*
X838673D01*
X812902Y908894D02*
X838673D01*
X812902Y907994D02*
X838673D01*
X812902Y907094D02*
X838673D01*
X812902Y906194D02*
X838673D01*
X812902Y905294D02*
X838673D01*
X812902Y904394D02*
X838673D01*
X812902Y903494D02*
X838673D01*
X812902Y902594D02*
X838673D01*
X812902Y901694D02*
X838673D01*
X812902Y900794D02*
X838673D01*
X812902Y899894D02*
X838673D01*
X812902Y898994D02*
X838673D01*
X812902Y898094D02*
X838673D01*
X812902Y897194D02*
X838673D01*
X812902Y896294D02*
X838673D01*
X812902Y895394D02*
X838673D01*
X812902Y894494D02*
X838673D01*
X812902Y893594D02*
X838673D01*
X812902Y892694D02*
X838673D01*
X812902Y891794D02*
X838673D01*
X812902Y890894D02*
X838673D01*
X812902Y889994D02*
X838673D01*
X812902Y872894D02*
X838673D01*
X812902Y871994D02*
X838673D01*
X812902Y871094D02*
X838673D01*
X812902Y870194D02*
X838673D01*
X812902Y869294D02*
X838673D01*
X812902Y868394D02*
X838673D01*
X812902Y867494D02*
X838673D01*
X812902Y866594D02*
X838673D01*
X812902Y865694D02*
X838673D01*
X812902Y864794D02*
X838673D01*
X812902Y863894D02*
X838673D01*
X812902Y862994D02*
X838673D01*
X812902Y862094D02*
X838673D01*
X812902Y861194D02*
X838673D01*
X812902Y860294D02*
X838673D01*
X812902Y859394D02*
X838673D01*
X812902Y858494D02*
X838673D01*
X812902Y857594D02*
X838673D01*
X812902Y856694D02*
X838673D01*
X812902Y855794D02*
X838673D01*
X812902Y854894D02*
X838673D01*
X812902Y853994D02*
X838673D01*
X812902Y853094D02*
X838673D01*
X812902Y852194D02*
X838673D01*
X832587Y832394D02*
X835345D01*
X832587Y837794D02*
X834938D01*
X832587Y831494D02*
X834891D01*
X832587Y826994D02*
X834850D01*
X832587Y833294D02*
X834828D01*
X832587Y836894D02*
X834811D01*
X832587Y835994D02*
X834811D01*
X832587Y835094D02*
X834811D01*
X832587Y834194D02*
X834811D01*
X832587Y830594D02*
X834811D01*
X832587Y829694D02*
X834811D01*
X832587Y828794D02*
X834811D01*
X832587Y827894D02*
X834811D01*
X788295Y813494D02*
X831783D01*
X788295Y812594D02*
X831783D01*
X788295Y811694D02*
X831783D01*
X788295Y810794D02*
X831783D01*
X788295Y809894D02*
X831783D01*
X788295Y808994D02*
X831783D01*
X788295Y808094D02*
X831783D01*
X788295Y807194D02*
X831783D01*
X788295Y806294D02*
X831783D01*
X788295Y805394D02*
X831783D01*
X788295Y804494D02*
X831783D01*
X812902Y846794D02*
X831770D01*
X788295Y803594D02*
X831529D01*
X788295Y814394D02*
X831280D01*
X812902Y845894D02*
X830870D01*
X788295Y796394D02*
X830831D01*
X788295Y802694D02*
X830808D01*
X788295Y801794D02*
X830799D01*
X788295Y800894D02*
X830799D01*
X788295Y799994D02*
X830799D01*
X788295Y799094D02*
X830799D01*
X788295Y798194D02*
X830799D01*
X788295Y797294D02*
X830799D01*
X812902Y844994D02*
X829970D01*
X812902Y822494D02*
X829442D01*
X812902Y844094D02*
X829070D01*
X812902Y843194D02*
X828310D01*
X812902Y823394D02*
X828288D01*
X812902Y842294D02*
X828050D01*
X812902Y841394D02*
X828043D01*
X812902Y840494D02*
X828043D01*
X812902Y839594D02*
X828043D01*
X812902Y838694D02*
X828043D01*
X812902Y837794D02*
X828043D01*
X812902Y836894D02*
X828043D01*
X812902Y835994D02*
X828043D01*
X812902Y835094D02*
X828043D01*
X818492Y834194D02*
X828043D01*
X819181Y833294D02*
X828043D01*
X819395Y832394D02*
X828043D01*
X819268Y831494D02*
X828043D01*
X818729Y830594D02*
X828043D01*
X812902Y829694D02*
X828043D01*
X812902Y828794D02*
X828043D01*
X812902Y827894D02*
X828043D01*
X812902Y826994D02*
X828043D01*
X812902Y826094D02*
X828043D01*
X812902Y824294D02*
X827900D01*
X812902Y825194D02*
X827878D01*
X821957Y943094D02*
X825808D01*
X821901Y946694D02*
X825788D01*
X821320Y954794D02*
X825624D01*
X821488Y953894D02*
X825543D01*
X821488Y952994D02*
X825543D01*
X821488Y952094D02*
X825543D01*
X821488Y951194D02*
X825543D01*
X821482Y950294D02*
X825543D01*
X820976Y949394D02*
X825543D01*
X821376Y948494D02*
X825543D01*
X821574Y947594D02*
X825543D01*
X821957Y942194D02*
X825543D01*
X821957Y941294D02*
X825543D01*
X821957Y940394D02*
X825543D01*
X821957Y939494D02*
X825543D01*
X803060Y949394D02*
X816820D01*
X788295Y954794D02*
X816475D01*
X803647Y948494D02*
X816419D01*
X788295Y950294D02*
X816314D01*
X788295Y953894D02*
X816307D01*
X788295Y952994D02*
X816307D01*
X788295Y952094D02*
X816307D01*
X788295Y951194D02*
X816307D01*
X803650Y947594D02*
X816221D01*
X803650Y946694D02*
X815894D01*
X803650Y945794D02*
X815839D01*
X803650Y944894D02*
X815839D01*
X803650Y943994D02*
X815839D01*
X803650Y943094D02*
X815839D01*
X803600Y942194D02*
X815839D01*
X788295Y941294D02*
X815839D01*
X788295Y940394D02*
X815839D01*
X800797Y939494D02*
X815839D01*
X812902Y834194D02*
X815366D01*
X812902Y830594D02*
X815129D01*
X812902Y833294D02*
X814677D01*
X812902Y831494D02*
X814590D01*
X812902Y832394D02*
X814463D01*
X788295Y815294D02*
X810337D01*
X788295Y816194D02*
X809401D01*
X788295Y817094D02*
X808501D01*
X788295Y817994D02*
X807604D01*
X788295Y818894D02*
X807022D01*
X788295Y819794D02*
X806797D01*
X788295Y931394D02*
X806783D01*
X788295Y930494D02*
X806783D01*
X788295Y929594D02*
X806783D01*
X788295Y928694D02*
X806783D01*
X788295Y927794D02*
X806783D01*
X788295Y926894D02*
X806783D01*
X788295Y925994D02*
X806783D01*
X788295Y925094D02*
X806783D01*
X788295Y924194D02*
X806783D01*
X788295Y923294D02*
X806783D01*
X788295Y922394D02*
X806783D01*
X788295Y921494D02*
X806783D01*
X788295Y920594D02*
X806783D01*
X788295Y919694D02*
X806783D01*
X788295Y918794D02*
X806783D01*
X788295Y917894D02*
X806783D01*
X788295Y916994D02*
X806783D01*
X788295Y916094D02*
X806783D01*
X803451Y915194D02*
X806783D01*
X803650Y914294D02*
X806783D01*
X803650Y913394D02*
X806783D01*
X803650Y912494D02*
X806783D01*
X803650Y911594D02*
X806783D01*
X803650Y910694D02*
X806783D01*
X803650Y909794D02*
X806783D01*
X803650Y908894D02*
X806783D01*
X803422Y907994D02*
X806783D01*
X788295Y907094D02*
X806783D01*
X788295Y906194D02*
X806783D01*
X801287Y898094D02*
X806783D01*
X788295Y897194D02*
X806783D01*
X788295Y896294D02*
X806783D01*
X788295Y895394D02*
X806783D01*
X788295Y894494D02*
X806783D01*
X788295Y893594D02*
X806783D01*
X788295Y892694D02*
X806783D01*
X788295Y891794D02*
X806783D01*
X788295Y890894D02*
X806783D01*
X788295Y889994D02*
X806783D01*
X788295Y889094D02*
X806783D01*
X788295Y888194D02*
X806783D01*
X788295Y887294D02*
X806783D01*
X788295Y886394D02*
X806783D01*
X788295Y885494D02*
X806783D01*
X788295Y884594D02*
X806783D01*
X788295Y883694D02*
X806783D01*
X788295Y882794D02*
X806783D01*
X788295Y881894D02*
X806783D01*
X788295Y880994D02*
X806783D01*
X788295Y880094D02*
X806783D01*
X803551Y879194D02*
X806783D01*
X803650Y878294D02*
X806783D01*
X803650Y877394D02*
X806783D01*
X803650Y876494D02*
X806783D01*
X803650Y875594D02*
X806783D01*
X803650Y874694D02*
X806783D01*
X803650Y873794D02*
X806783D01*
X803650Y872894D02*
X806783D01*
X803254Y871994D02*
X806783D01*
X794398Y871094D02*
X806783D01*
X794398Y870194D02*
X806783D01*
X801872Y869294D02*
X806783D01*
X802824Y868394D02*
X806783D01*
X803341Y867494D02*
X806783D01*
X803597Y866594D02*
X806783D01*
X803642Y865694D02*
X806783D01*
X803482Y864794D02*
X806783D01*
X803091Y863894D02*
X806783D01*
X802370Y862994D02*
X806783D01*
X800839Y862094D02*
X806783D01*
X794398Y861194D02*
X806783D01*
X794398Y860294D02*
X806783D01*
X801954Y859394D02*
X806783D01*
X802866Y858494D02*
X806783D01*
X803364Y857594D02*
X806783D01*
X803606Y856694D02*
X806783D01*
X803638Y855794D02*
X806783D01*
X803465Y854894D02*
X806783D01*
X803056Y853994D02*
X806783D01*
X802308Y853094D02*
X806783D01*
X800642Y852194D02*
X806783D01*
X794398Y851294D02*
X806783D01*
X794398Y850394D02*
X806783D01*
X802033Y849494D02*
X806783D01*
X802908Y848594D02*
X806783D01*
X803387Y847694D02*
X806783D01*
X803614Y846794D02*
X806783D01*
X803633Y845894D02*
X806783D01*
X803446Y844994D02*
X806783D01*
X803021Y844094D02*
X806783D01*
X802242Y843194D02*
X806783D01*
X800394Y842294D02*
X806783D01*
X794398Y841394D02*
X806783D01*
X794398Y840494D02*
X806783D01*
X802108Y839594D02*
X806783D01*
X802948Y838694D02*
X806783D01*
X803408Y837794D02*
X806783D01*
X803621Y836894D02*
X806783D01*
X803627Y835994D02*
X806783D01*
X803427Y835094D02*
X806783D01*
X802983Y834194D02*
X806783D01*
X802174Y833294D02*
X806783D01*
X800008Y832394D02*
X806783D01*
X794398Y831494D02*
X806783D01*
X794398Y830594D02*
X806783D01*
X794398Y829694D02*
X806783D01*
X794398Y828794D02*
X806783D01*
X794398Y827894D02*
X806783D01*
X804681Y826994D02*
X806783D01*
X805647Y826094D02*
X806783D01*
X805570Y823394D02*
X806783D01*
X804416Y822494D02*
X806783D01*
X788295Y821594D02*
X806783D01*
X788295Y820694D02*
X806783D01*
X801592Y905294D02*
X806782D01*
X801891Y932294D02*
X806731D01*
X788295Y822494D02*
X802671D01*
X794398Y832394D02*
X799205D01*
X794398Y842294D02*
X798819D01*
X794398Y852194D02*
X798570D01*
X788295Y939494D02*
X798416D01*
X794398Y862094D02*
X798374D01*
X788295Y898094D02*
X797926D01*
X788295Y905294D02*
X797621D01*
X794398Y869294D02*
X797341D01*
X788295Y932294D02*
X797322D01*
X794398Y859394D02*
X797258D01*
X794398Y849494D02*
X797180D01*
X794398Y839594D02*
X797105D01*
X794398Y833294D02*
X797039D01*
X794398Y843194D02*
X796970D01*
X794398Y853094D02*
X796905D01*
X788295Y938594D02*
X796856D01*
X794398Y862994D02*
X796842D01*
X788295Y898994D02*
X796668D01*
X788295Y904394D02*
X796529D01*
X794398Y868394D02*
X796389D01*
X788295Y933194D02*
X796379D01*
X794398Y858494D02*
X796346D01*
X794398Y848594D02*
X796305D01*
X794398Y838694D02*
X796265D01*
X794398Y834194D02*
X796229D01*
X794398Y844094D02*
X796192D01*
X794398Y853994D02*
X796156D01*
X788295Y949394D02*
X796153D01*
X788295Y937694D02*
X796129D01*
X794398Y863894D02*
X796122D01*
X788295Y899894D02*
X796025D01*
X794410Y871994D02*
X795959D01*
X788295Y903494D02*
X795948D01*
X794398Y867494D02*
X795871D01*
X788295Y934094D02*
X795866D01*
X794398Y857594D02*
X795848D01*
X794398Y847694D02*
X795826D01*
X794398Y837794D02*
X795805D01*
X788295Y907994D02*
X795791D01*
X794398Y835094D02*
X795786D01*
X794398Y844994D02*
X795766D01*
X788295Y915194D02*
X795761D01*
X794398Y854894D02*
X795748D01*
X788295Y936794D02*
X795734D01*
X794398Y864794D02*
X795730D01*
X788295Y900794D02*
X795683D01*
X788295Y879194D02*
X795662D01*
X788295Y902594D02*
X795647D01*
X794398Y866594D02*
X795615D01*
X788295Y934994D02*
X795613D01*
X788295Y942194D02*
X795613D01*
X794398Y856694D02*
X795606D01*
X794398Y846794D02*
X795598D01*
X794398Y836894D02*
X795591D01*
X794398Y835994D02*
X795585D01*
X794398Y845894D02*
X795580D01*
X794398Y855794D02*
X795575D01*
X788295Y935894D02*
X795572D01*
X794398Y865694D02*
X795571D01*
X788295Y948494D02*
X795565D01*
X788295Y901694D02*
X795564D01*
X788295Y947594D02*
X795563D01*
X788295Y946694D02*
X795563D01*
X788295Y945794D02*
X795563D01*
X788295Y944894D02*
X795563D01*
X788295Y943994D02*
X795563D01*
X788295Y943094D02*
X795563D01*
X788295Y914294D02*
X795563D01*
X788295Y913394D02*
X795563D01*
X788295Y912494D02*
X795563D01*
X788295Y911594D02*
X795563D01*
X788295Y910694D02*
X795563D01*
X788295Y909794D02*
X795563D01*
X788295Y908894D02*
X795563D01*
X788295Y878294D02*
X795487D01*
X788295Y877394D02*
X793276D01*
X788295Y876494D02*
X792376D01*
X788295Y823394D02*
X791897D01*
X788295Y875594D02*
X791476D01*
X788295Y824294D02*
X790997D01*
X788295Y874694D02*
X790576D01*
X788295Y825194D02*
X790187D01*
X788295Y873794D02*
X789986D01*
X788295Y826094D02*
X789872D01*
X788295Y872894D02*
X789854D01*
X788295Y871994D02*
X789854D01*
X788295Y871094D02*
X789854D01*
X788295Y870194D02*
X789854D01*
X788295Y869294D02*
X789854D01*
X788295Y868394D02*
X789854D01*
X788295Y867494D02*
X789854D01*
X788295Y866594D02*
X789854D01*
X788295Y865694D02*
X789854D01*
X788295Y864794D02*
X789854D01*
X788295Y863894D02*
X789854D01*
X788295Y862994D02*
X789854D01*
X788295Y862094D02*
X789854D01*
X788295Y861194D02*
X789854D01*
X788295Y860294D02*
X789854D01*
X788295Y859394D02*
X789854D01*
X788295Y858494D02*
X789854D01*
X788295Y857594D02*
X789854D01*
X788295Y856694D02*
X789854D01*
X788295Y855794D02*
X789854D01*
X788295Y854894D02*
X789854D01*
X788295Y853994D02*
X789854D01*
X788295Y853094D02*
X789854D01*
X788295Y852194D02*
X789854D01*
X788295Y851294D02*
X789854D01*
X788295Y850394D02*
X789854D01*
X788295Y849494D02*
X789854D01*
X788295Y848594D02*
X789854D01*
X788295Y847694D02*
X789854D01*
X788295Y846794D02*
X789854D01*
X788295Y845894D02*
X789854D01*
X788295Y844994D02*
X789854D01*
X788295Y844094D02*
X789854D01*
X788295Y843194D02*
X789854D01*
X788295Y842294D02*
X789854D01*
X788295Y841394D02*
X789854D01*
X788295Y840494D02*
X789854D01*
X788295Y839594D02*
X789854D01*
X788295Y838694D02*
X789854D01*
X788295Y837794D02*
X789854D01*
X788295Y836894D02*
X789854D01*
X788295Y835994D02*
X789854D01*
X788295Y835094D02*
X789854D01*
X788295Y834194D02*
X789854D01*
X788295Y833294D02*
X789854D01*
X788295Y832394D02*
X789854D01*
X788295Y831494D02*
X789854D01*
X788295Y830594D02*
X789854D01*
X788295Y829694D02*
X789854D01*
X788295Y828794D02*
X789854D01*
X788295Y827894D02*
X789854D01*
X788295Y826994D02*
X789854D01*
X832405Y946611D02*
X830902Y948114D01*
X825863Y946611D02*
X827366Y948114D01*
X825863Y955153D02*
X827366Y953650D01*
X832405Y955153D02*
X830902Y953650D01*
X901409Y894335D02*
X900447Y893373D01*
X901409Y891492D02*
X900447Y892454D01*
X893867Y894335D02*
X894828Y893373D01*
X934268Y953921D02*
X935847Y952342D01*
X941322Y953921D02*
X939744Y952342D01*
X941322Y945292D02*
X939744Y946870D01*
X934268Y945292D02*
X935847Y946870D01*
X878382Y924107D02*
X879592Y925317D01*
X878382Y928649D02*
X879592Y927439D01*
X883724Y928649D02*
X882513Y927439D01*
X883724Y924107D02*
X882513Y925317D01*
X880800Y955377D02*
X882010Y954167D01*
X885342Y955377D02*
X884132Y954167D01*
X885342Y950035D02*
X884132Y951246D01*
X880800Y950035D02*
X882010Y951246D01*
X988842Y870381D02*
X987632Y869171D01*
X988842Y865839D02*
X987632Y867050D01*
X983500Y865839D02*
X984710Y867050D01*
X879169Y797335D02*
X880379Y798546D01*
X879169Y801877D02*
X880379Y800667D01*
X884511Y801877D02*
X883301Y800667D01*
X884511Y797335D02*
X883301Y798546D01*
X955814Y893736D02*
X954604Y894946D01*
X951272Y899078D02*
X952483Y897868D01*
X955814Y899078D02*
X954604Y897868D01*
X951272Y893736D02*
X952483Y894946D01*
X936842Y891185D02*
X935880Y890223D01*
X936842Y888343D02*
X935880Y889304D01*
X929300Y888343D02*
X930261Y889304D01*
X929300Y891185D02*
X930261Y890223D01*
X863295Y889405D02*
X862084Y890616D01*
X858752Y889405D02*
X859963Y890616D01*
X858752Y894748D02*
X859963Y893537D01*
X863295Y894748D02*
X862084Y893537D01*
X876863Y889335D02*
X878073Y888124D01*
X881405Y889335D02*
X880195Y888124D01*
X881405Y883993D02*
X880195Y885203D01*
X876863Y883993D02*
X878073Y885203D01*
X858752Y874374D02*
X859963Y873164D01*
X863295Y874374D02*
X862084Y873164D01*
X863295Y869032D02*
X862084Y870242D01*
X858752Y869032D02*
X859963Y870242D01*
X876106Y946611D02*
X874602Y948114D01*
X869564Y946611D02*
X871067Y948114D01*
X869564Y955153D02*
X871067Y953650D01*
X876106Y955153D02*
X874602Y953650D01*
X901409Y888035D02*
X900447Y887074D01*
X901409Y885193D02*
X900447Y886155D01*
X787402Y787402D02*
X1062992D01*
Y984252*
X787402*
Y787402*
X805118Y799213D02*
G03X805118I-5905J0D01*
G01X1057087D02*
G03X1057087I-5906J0D01*
G01Y972441D02*
G03X1057087I-5906J0D01*
G01X805118D02*
G03X805118I-5905J0D01*
G54D21*
G01X818898Y946113D03*
Y952313D03*
X883071Y946506D03*
Y952706D03*
X879134Y886664D03*
Y892864D03*
X953543Y896407D03*
Y890207D03*
X861024Y892076D03*
Y885876D03*
Y871703D03*
Y877903D03*
X949213Y932234D03*
Y926034D03*
X837402Y829183D03*
Y835383D03*
G54D22*
X984252Y884252D03*
X981890Y958661D03*
Y968898D03*
Y979134D03*
X1003937Y866142D03*
G54D23*
X974252Y884252D03*
X984252Y894252D03*
X974252D03*
X984252Y904252D03*
X974252D03*
X971890Y958661D03*
X961890D03*
X971890Y968898D03*
X961890D03*
X971890Y979134D03*
X961890D03*
X1013937Y866142D03*
X1023937D03*
X1033937D03*
X1043937D03*
X1053937D03*
X1043937Y946142D03*
X1033937D03*
X1023937D03*
X1013937D03*
G54D25*
X881840Y799606D03*
X875640D03*
X881053Y926378D03*
X874853D03*
X979971Y868110D03*
X986171D03*
X860286Y926378D03*
X866486D03*
X965798Y868110D03*
X971998D03*
G54D35*
X887795Y883465D02*
X897638D01*
X933071Y880315D02*
X962992D01*
X887402Y889764D02*
X897638D01*
G54D46*
X865512Y817638D03*
G54D56*
X792126Y826378D02*
Y873031D01*
X794882Y875787*
X799606*
X792126Y826378D02*
X793701Y824803D01*
X803543*
X830315D02*
Y842126D01*
X833465Y845276*
X851969*
X855118Y848425*
X837402Y835383D02*
X837451Y835433D01*
X852756*
X855118Y837795*
Y848425*
Y837795D02*
Y810630D01*
X857874Y807874*
X874409*
X875591Y806693*
Y799656*
X875640Y799606*
X855118Y848425D02*
Y854724D01*
X856693Y856299*
X867323*
X882283*
X885039Y859055*
Y887008*
X865512Y847638D02*
Y854488D01*
X867323Y856299*
X965354Y873622D02*
X965748Y874016D01*
Y883071*
X962992Y880315D02*
X965748Y883071D01*
Y886614*
Y909449D02*
Y886614D01*
X968110Y884252*
X974252*
X879134Y892864D02*
X884252D01*
X885039Y894439*
Y887008D02*
Y886220D01*
X887795Y883465*
X885039Y894439D02*
Y891339D01*
X887402Y889764*
X885039Y891339D02*
Y887008D01*
X860286Y926378D02*
Y920866D01*
X861467Y919685*
X883858*
X965748*
X883858D02*
X885039Y916535D01*
Y894439*
X965748Y919685D02*
X969685D01*
X971890Y921890*
Y935433*
X949213Y932234D02*
X949262Y932283D01*
X969528*
X971890Y934646*
Y935433*
Y948819*
X860197Y940000D02*
X860286Y939911D01*
Y926378*
X860197Y940000D02*
X861417Y938780D01*
X872733*
X872835Y938882*
X881496*
X883071Y940457*
Y946506*
X971890Y958661D02*
Y948819D01*
X974567Y946142*
X1013937*
X929331Y972047D02*
X946850D01*
X949213Y969685*
Y932234*
X971890Y958661D02*
Y968898D01*
Y979134*
G54D57*
X985661Y975363D02*
X984011Y977013D01*
X978119Y975363D02*
X979768Y977013D01*
X978119Y982905D02*
X979768Y981255D01*
X985661Y982905D02*
X984011Y981255D01*
X985661Y965127D02*
X984011Y966776D01*
X978119Y965127D02*
X979768Y966776D01*
X978119Y972669D02*
X979768Y971019D01*
X985661Y972669D02*
X984011Y971019D01*
X802465Y863086D02*
X801694Y863857D01*
X802465Y868804D02*
X801694Y868033D01*
X796747Y868804D02*
X797518Y868033D01*
X796747Y863086D02*
X797518Y863857D01*
X803330Y941749D02*
X801694Y943385D01*
X795882Y941749D02*
X797518Y943385D01*
X795882Y949196D02*
X797518Y947560D01*
X803330Y949196D02*
X801694Y947560D01*
X803330Y907890D02*
X801694Y909526D01*
X795882Y907890D02*
X797518Y909526D01*
X795882Y915338D02*
X797518Y913702D01*
X803330Y915338D02*
X801694Y913702D01*
X916629Y969188D02*
X917400Y969959D01*
X922347Y969188D02*
X921576Y969959D01*
X922347Y974906D02*
X921576Y974135D01*
X916629Y974906D02*
X917400Y974135D01*
X977859Y802859D02*
X977088Y802088D01*
X972141Y802859D02*
X972912Y802088D01*
X972141Y797141D02*
X972912Y797912D01*
X977859Y797141D02*
X977088Y797912D01*
X952407Y820742D02*
X953178Y819971D01*
X952407Y814533D02*
X953178Y815304D01*
X958616Y814533D02*
X957845Y815304D01*
X958616Y820742D02*
X957845Y819971D01*
X1041045Y949034D02*
X1041816Y948263D01*
X1041045Y943249D02*
X1041816Y944020D01*
X1046829Y943249D02*
X1046058Y944020D01*
X1046829Y949034D02*
X1046058Y948263D01*
X985661Y954890D02*
X984011Y956540D01*
X978119Y954890D02*
X979768Y956540D01*
X978119Y962433D02*
X979768Y960783D01*
X985661Y962433D02*
X984011Y960783D01*
X971360Y901360D02*
X972131Y902131D01*
X977144Y901360D02*
X976373Y902131D01*
X977144Y907144D02*
X976373Y906373D01*
X971360Y907144D02*
X972131Y906373D01*
X818675Y834029D02*
X817903Y833258D01*
X815184Y834029D02*
X815955Y833258D01*
X815184Y830538D02*
X815955Y831309D01*
X818675Y830538D02*
X817903Y831309D01*
G54D69*
X865512Y817638D02*
X875512Y827638D01*
Y847638*
Y817638D02*
X885512D01*
X816929Y832283D02*
Y916535D01*
X824016Y923622*
X848031*
X851181Y926772*
Y949606*
X837402Y829183D02*
X837451Y829134D01*
X850394*
X851969Y827559*
Y808071*
X854528Y805512*
Y799606*
X885512Y847638D02*
X892126Y854252D01*
Y857480*
X894488Y859843*
X904331*
Y870472*
X895512Y847638D02*
Y854331D01*
X897874Y856693*
X905906*
X907480Y858268*
Y870472*
X843701Y862795D02*
Y875591D01*
X846063Y877953*
X860974*
X861024Y877903*
X953543Y862205D02*
X986220D01*
X992126Y856299*
Y812402*
X1004528Y800000*
X890551Y876378D02*
X891339Y877165D01*
X897638*
X923228Y870472D02*
Y863780D01*
X924803Y862205*
X953543*
X920079Y870472D02*
Y859449D01*
X922047Y857480*
X983465*
X988583Y852362*
Y806693*
X994685Y800591*
Y800000*
X916929Y870472D02*
Y857480D01*
X920079Y854331*
X980512*
X984843Y850000*
Y800000*
X926378Y870472D02*
Y868898D01*
X927165Y868110*
X965798*
X971998D02*
X979971D01*
X965798D02*
X970079Y872391D01*
X983071*
X984252Y873572*
Y884252*
X861024Y877903D02*
X861073Y877953D01*
X867323*
X861024Y885876D02*
X861073Y885827D01*
X869291*
X871260Y883858*
Y880315*
X890551D02*
X897638D01*
X933071Y886614D02*
X951969D01*
X953543Y888189*
Y890207*
X933071Y877165D02*
X957480D01*
X888976Y896063D02*
X897638D01*
X933071D02*
X945669D01*
X949606Y900000*
Y904331*
X984252Y894252D02*
X994134D01*
X995079Y893307*
Y819291*
X1014370Y800000*
X843701Y900197D02*
Y887845D01*
X845669Y885876*
X861024*
X913780Y905906D02*
Y911417D01*
X916929Y905906D02*
Y914961D01*
X918110Y916142*
X1015748*
X1019291Y919685*
X1031181*
X1033937Y922441*
Y946142*
X920079Y905906D02*
Y911811D01*
X922047Y913780*
X1024016*
X926378Y905906D02*
X936614D01*
X940945Y910236*
X933071Y899213D02*
X940551D01*
X944882Y903543*
X984252Y904252D02*
X996142D01*
X998031Y902362*
Y826181*
X1024213Y800000*
X892520Y908268D02*
X903543D01*
X904331Y907480*
Y905906*
X889370Y912205D02*
Y900394D01*
X890551Y899213*
X897638*
X899606Y912598D02*
X905118D01*
X907480Y910236*
Y905906*
X909449Y912992D02*
X910630Y911811D01*
Y905906*
X866486Y926378D02*
X874853D01*
X937795Y925984D02*
X937845Y926034D01*
X949213*
X949262Y925984*
X953937*
X913780Y933465D02*
X936614D01*
X937795Y932283*
Y925984*
X818898Y952313D02*
X818848Y952362D01*
X827654*
X829134Y950882*
X818898Y952313D02*
X848475D01*
X851181Y949606*
Y966181*
X1033937Y866142D02*
Y852087D01*
X1052953Y833071*
X1023937Y866142D02*
Y852244D01*
X1043110Y833071*
X1013937Y866142D02*
Y852402D01*
X1033268Y833071*
X1003937Y866142D02*
Y852559D01*
X1023425Y833071*
G54D74*
X799606Y901772D03*
X844685Y799606D03*
X854528D03*
X919488Y972047D03*
X909646D03*
X899803D03*
X799606Y935630D03*
X975000Y800000D03*
X984843D03*
X994685D03*
X1004528D03*
X1014370D03*
X1024213D03*
X799606Y865945D03*
Y856102D03*
Y846260D03*
Y836417D03*
X1043110Y833071D03*
X1033268D03*
X1023425D03*
G54D76*
X897638Y899213D03*
Y896063D03*
Y892913D03*
Y889764D03*
Y886614D03*
Y883465D03*
Y880315D03*
Y877165D03*
X933071D03*
Y880315D03*
Y883465D03*
Y886614D03*
Y889764D03*
Y892913D03*
Y896063D03*
Y899213D03*
G54D77*
X904331Y870472D03*
X907480D03*
X910630D03*
X913780D03*
X916929D03*
X920079D03*
X923228D03*
X926378D03*
Y905906D03*
X923228D03*
X920079D03*
X916929D03*
X913780D03*
X910630D03*
X907480D03*
X904331D03*
G54D81*
X799606Y901772D02*
X806693D01*
X808661*
X809843Y902953*
Y905906*
Y820079*
X812205Y817717*
X832283*
X834843Y815157*
Y799606*
X799606Y935630D02*
X807874D01*
X815354*
X807874D02*
X809843Y933661D01*
Y905906*
X815354Y935630D02*
X816535D01*
X818898Y937992*
Y946113*
X815354Y935630D02*
X825197D01*
X826772*
X829134Y937992*
Y938882*
X825197Y935630D02*
X840945D01*
X842126Y936811*
Y939961*
X842165Y940000*
G54D83*
X803543Y824803D03*
X830315D03*
X816929Y832283D03*
X953543Y862205D03*
X890551Y876378D03*
X965354Y873622D03*
X867323Y877953D03*
X871260Y880315D03*
X890551D03*
X957480Y877165D03*
X888976Y896063D03*
X949606Y904331D03*
X944882Y903543D03*
X892520Y908268D03*
X889370Y912205D03*
X899606Y912598D03*
X909449Y912992D03*
X913780Y911417D03*
X940945Y910236D03*
X965748Y909449D03*
X953937Y925984D03*
X965748Y919685D03*
X913780Y933465D03*
X1024016Y913780D03*
G54D98*
X829134Y938882D03*
Y950882D03*
X872835Y938882D03*
Y950882D03*
G54D99*
X799606Y911614D03*
X834843Y799606D03*
X929331Y972047D03*
X799606Y945472D03*
X965157Y800000D03*
X799606Y875787D03*
X1052953Y833071D03*
G54D100*
X937795Y949606D03*
Y925984D03*
X925984Y949606D03*
Y925984D03*
G54D101*
X842165Y940000D03*
X860197D03*
G54D102*
X851181Y966181D03*
G54D103*
X875512Y817638D03*
X885512D03*
X895512D03*
X905512D03*
X915512D03*
X925512D03*
X935512D03*
X945512D03*
X955512D03*
Y847638D03*
X945512D03*
X935512D03*
X925512D03*
X915512D03*
X905512D03*
X895512D03*
X885512D03*
X875512D03*
X865512D03*
G54D104*
X843701Y862795D03*
Y900197D03*
G74*
X0Y0D02*
M02*
